G75*
%MOIN*%
%OFA0B0*%
%FSLAX25Y25*%
%IPPOS*%
%LPD*%
%AMOC8*
5,1,8,0,0,1.08239X$1,22.5*
%
%ADD10C,0.00200*%
%ADD11C,0.00000*%
%ADD12C,0.09061*%
%ADD13R,0.05124X0.05518*%
%ADD14R,0.09061X0.02762*%
%ADD15R,0.05518X0.05124*%
%ADD16C,0.07800*%
%ADD17R,0.04337X0.05912*%
%ADD18C,0.07487*%
D10*
X0041350Y0042100D02*
X0101350Y0053350D01*
X0136350Y0002100D01*
X0170100Y0053350D01*
X0231350Y0042100D01*
X0220100Y0102100D01*
X0271350Y0137100D01*
X0221350Y0170850D01*
X0233850Y0230850D01*
X0171350Y0219600D01*
X0136350Y0272100D01*
X0102600Y0220850D01*
X0042600Y0234600D01*
X0053850Y0172100D01*
X0001350Y0137100D01*
X0053850Y0102100D01*
X0041350Y0042100D01*
D11*
X0158019Y0198100D02*
X0158021Y0198231D01*
X0158027Y0198363D01*
X0158037Y0198494D01*
X0158051Y0198625D01*
X0158069Y0198755D01*
X0158091Y0198884D01*
X0158116Y0199013D01*
X0158146Y0199141D01*
X0158180Y0199268D01*
X0158217Y0199395D01*
X0158258Y0199519D01*
X0158303Y0199643D01*
X0158352Y0199765D01*
X0158404Y0199886D01*
X0158460Y0200004D01*
X0158520Y0200122D01*
X0158583Y0200237D01*
X0158650Y0200350D01*
X0158720Y0200462D01*
X0158793Y0200571D01*
X0158869Y0200677D01*
X0158949Y0200782D01*
X0159032Y0200884D01*
X0159118Y0200983D01*
X0159207Y0201080D01*
X0159299Y0201174D01*
X0159394Y0201265D01*
X0159491Y0201354D01*
X0159591Y0201439D01*
X0159694Y0201521D01*
X0159799Y0201600D01*
X0159906Y0201676D01*
X0160016Y0201748D01*
X0160128Y0201817D01*
X0160242Y0201883D01*
X0160357Y0201945D01*
X0160475Y0202004D01*
X0160594Y0202059D01*
X0160715Y0202111D01*
X0160838Y0202158D01*
X0160962Y0202202D01*
X0161087Y0202243D01*
X0161213Y0202279D01*
X0161341Y0202312D01*
X0161469Y0202340D01*
X0161598Y0202365D01*
X0161728Y0202386D01*
X0161858Y0202403D01*
X0161989Y0202416D01*
X0162120Y0202425D01*
X0162251Y0202430D01*
X0162383Y0202431D01*
X0162514Y0202428D01*
X0162646Y0202421D01*
X0162777Y0202410D01*
X0162907Y0202395D01*
X0163037Y0202376D01*
X0163167Y0202353D01*
X0163295Y0202327D01*
X0163423Y0202296D01*
X0163550Y0202261D01*
X0163676Y0202223D01*
X0163800Y0202181D01*
X0163924Y0202135D01*
X0164045Y0202085D01*
X0164165Y0202032D01*
X0164284Y0201975D01*
X0164401Y0201915D01*
X0164515Y0201851D01*
X0164628Y0201783D01*
X0164739Y0201712D01*
X0164848Y0201638D01*
X0164954Y0201561D01*
X0165058Y0201480D01*
X0165159Y0201397D01*
X0165258Y0201310D01*
X0165354Y0201220D01*
X0165447Y0201127D01*
X0165538Y0201032D01*
X0165625Y0200934D01*
X0165710Y0200833D01*
X0165791Y0200730D01*
X0165869Y0200624D01*
X0165944Y0200516D01*
X0166016Y0200406D01*
X0166084Y0200294D01*
X0166149Y0200180D01*
X0166210Y0200063D01*
X0166268Y0199945D01*
X0166322Y0199825D01*
X0166373Y0199704D01*
X0166420Y0199581D01*
X0166463Y0199457D01*
X0166502Y0199332D01*
X0166538Y0199205D01*
X0166569Y0199077D01*
X0166597Y0198949D01*
X0166621Y0198820D01*
X0166641Y0198690D01*
X0166657Y0198559D01*
X0166669Y0198428D01*
X0166677Y0198297D01*
X0166681Y0198166D01*
X0166681Y0198034D01*
X0166677Y0197903D01*
X0166669Y0197772D01*
X0166657Y0197641D01*
X0166641Y0197510D01*
X0166621Y0197380D01*
X0166597Y0197251D01*
X0166569Y0197123D01*
X0166538Y0196995D01*
X0166502Y0196868D01*
X0166463Y0196743D01*
X0166420Y0196619D01*
X0166373Y0196496D01*
X0166322Y0196375D01*
X0166268Y0196255D01*
X0166210Y0196137D01*
X0166149Y0196020D01*
X0166084Y0195906D01*
X0166016Y0195794D01*
X0165944Y0195684D01*
X0165869Y0195576D01*
X0165791Y0195470D01*
X0165710Y0195367D01*
X0165625Y0195266D01*
X0165538Y0195168D01*
X0165447Y0195073D01*
X0165354Y0194980D01*
X0165258Y0194890D01*
X0165159Y0194803D01*
X0165058Y0194720D01*
X0164954Y0194639D01*
X0164848Y0194562D01*
X0164739Y0194488D01*
X0164628Y0194417D01*
X0164516Y0194349D01*
X0164401Y0194285D01*
X0164284Y0194225D01*
X0164165Y0194168D01*
X0164045Y0194115D01*
X0163924Y0194065D01*
X0163800Y0194019D01*
X0163676Y0193977D01*
X0163550Y0193939D01*
X0163423Y0193904D01*
X0163295Y0193873D01*
X0163167Y0193847D01*
X0163037Y0193824D01*
X0162907Y0193805D01*
X0162777Y0193790D01*
X0162646Y0193779D01*
X0162514Y0193772D01*
X0162383Y0193769D01*
X0162251Y0193770D01*
X0162120Y0193775D01*
X0161989Y0193784D01*
X0161858Y0193797D01*
X0161728Y0193814D01*
X0161598Y0193835D01*
X0161469Y0193860D01*
X0161341Y0193888D01*
X0161213Y0193921D01*
X0161087Y0193957D01*
X0160962Y0193998D01*
X0160838Y0194042D01*
X0160715Y0194089D01*
X0160594Y0194141D01*
X0160475Y0194196D01*
X0160357Y0194255D01*
X0160242Y0194317D01*
X0160128Y0194383D01*
X0160016Y0194452D01*
X0159906Y0194524D01*
X0159799Y0194600D01*
X0159694Y0194679D01*
X0159591Y0194761D01*
X0159491Y0194846D01*
X0159394Y0194935D01*
X0159299Y0195026D01*
X0159207Y0195120D01*
X0159118Y0195217D01*
X0159032Y0195316D01*
X0158949Y0195418D01*
X0158869Y0195523D01*
X0158793Y0195629D01*
X0158720Y0195738D01*
X0158650Y0195850D01*
X0158583Y0195963D01*
X0158520Y0196078D01*
X0158460Y0196196D01*
X0158404Y0196314D01*
X0158352Y0196435D01*
X0158303Y0196557D01*
X0158258Y0196681D01*
X0158217Y0196805D01*
X0158180Y0196932D01*
X0158146Y0197059D01*
X0158116Y0197187D01*
X0158091Y0197316D01*
X0158069Y0197445D01*
X0158051Y0197575D01*
X0158037Y0197706D01*
X0158027Y0197837D01*
X0158021Y0197969D01*
X0158019Y0198100D01*
X0163519Y0212100D02*
X0163521Y0212231D01*
X0163527Y0212363D01*
X0163537Y0212494D01*
X0163551Y0212625D01*
X0163569Y0212755D01*
X0163591Y0212884D01*
X0163616Y0213013D01*
X0163646Y0213141D01*
X0163680Y0213268D01*
X0163717Y0213395D01*
X0163758Y0213519D01*
X0163803Y0213643D01*
X0163852Y0213765D01*
X0163904Y0213886D01*
X0163960Y0214004D01*
X0164020Y0214122D01*
X0164083Y0214237D01*
X0164150Y0214350D01*
X0164220Y0214462D01*
X0164293Y0214571D01*
X0164369Y0214677D01*
X0164449Y0214782D01*
X0164532Y0214884D01*
X0164618Y0214983D01*
X0164707Y0215080D01*
X0164799Y0215174D01*
X0164894Y0215265D01*
X0164991Y0215354D01*
X0165091Y0215439D01*
X0165194Y0215521D01*
X0165299Y0215600D01*
X0165406Y0215676D01*
X0165516Y0215748D01*
X0165628Y0215817D01*
X0165742Y0215883D01*
X0165857Y0215945D01*
X0165975Y0216004D01*
X0166094Y0216059D01*
X0166215Y0216111D01*
X0166338Y0216158D01*
X0166462Y0216202D01*
X0166587Y0216243D01*
X0166713Y0216279D01*
X0166841Y0216312D01*
X0166969Y0216340D01*
X0167098Y0216365D01*
X0167228Y0216386D01*
X0167358Y0216403D01*
X0167489Y0216416D01*
X0167620Y0216425D01*
X0167751Y0216430D01*
X0167883Y0216431D01*
X0168014Y0216428D01*
X0168146Y0216421D01*
X0168277Y0216410D01*
X0168407Y0216395D01*
X0168537Y0216376D01*
X0168667Y0216353D01*
X0168795Y0216327D01*
X0168923Y0216296D01*
X0169050Y0216261D01*
X0169176Y0216223D01*
X0169300Y0216181D01*
X0169424Y0216135D01*
X0169545Y0216085D01*
X0169665Y0216032D01*
X0169784Y0215975D01*
X0169901Y0215915D01*
X0170015Y0215851D01*
X0170128Y0215783D01*
X0170239Y0215712D01*
X0170348Y0215638D01*
X0170454Y0215561D01*
X0170558Y0215480D01*
X0170659Y0215397D01*
X0170758Y0215310D01*
X0170854Y0215220D01*
X0170947Y0215127D01*
X0171038Y0215032D01*
X0171125Y0214934D01*
X0171210Y0214833D01*
X0171291Y0214730D01*
X0171369Y0214624D01*
X0171444Y0214516D01*
X0171516Y0214406D01*
X0171584Y0214294D01*
X0171649Y0214180D01*
X0171710Y0214063D01*
X0171768Y0213945D01*
X0171822Y0213825D01*
X0171873Y0213704D01*
X0171920Y0213581D01*
X0171963Y0213457D01*
X0172002Y0213332D01*
X0172038Y0213205D01*
X0172069Y0213077D01*
X0172097Y0212949D01*
X0172121Y0212820D01*
X0172141Y0212690D01*
X0172157Y0212559D01*
X0172169Y0212428D01*
X0172177Y0212297D01*
X0172181Y0212166D01*
X0172181Y0212034D01*
X0172177Y0211903D01*
X0172169Y0211772D01*
X0172157Y0211641D01*
X0172141Y0211510D01*
X0172121Y0211380D01*
X0172097Y0211251D01*
X0172069Y0211123D01*
X0172038Y0210995D01*
X0172002Y0210868D01*
X0171963Y0210743D01*
X0171920Y0210619D01*
X0171873Y0210496D01*
X0171822Y0210375D01*
X0171768Y0210255D01*
X0171710Y0210137D01*
X0171649Y0210020D01*
X0171584Y0209906D01*
X0171516Y0209794D01*
X0171444Y0209684D01*
X0171369Y0209576D01*
X0171291Y0209470D01*
X0171210Y0209367D01*
X0171125Y0209266D01*
X0171038Y0209168D01*
X0170947Y0209073D01*
X0170854Y0208980D01*
X0170758Y0208890D01*
X0170659Y0208803D01*
X0170558Y0208720D01*
X0170454Y0208639D01*
X0170348Y0208562D01*
X0170239Y0208488D01*
X0170128Y0208417D01*
X0170016Y0208349D01*
X0169901Y0208285D01*
X0169784Y0208225D01*
X0169665Y0208168D01*
X0169545Y0208115D01*
X0169424Y0208065D01*
X0169300Y0208019D01*
X0169176Y0207977D01*
X0169050Y0207939D01*
X0168923Y0207904D01*
X0168795Y0207873D01*
X0168667Y0207847D01*
X0168537Y0207824D01*
X0168407Y0207805D01*
X0168277Y0207790D01*
X0168146Y0207779D01*
X0168014Y0207772D01*
X0167883Y0207769D01*
X0167751Y0207770D01*
X0167620Y0207775D01*
X0167489Y0207784D01*
X0167358Y0207797D01*
X0167228Y0207814D01*
X0167098Y0207835D01*
X0166969Y0207860D01*
X0166841Y0207888D01*
X0166713Y0207921D01*
X0166587Y0207957D01*
X0166462Y0207998D01*
X0166338Y0208042D01*
X0166215Y0208089D01*
X0166094Y0208141D01*
X0165975Y0208196D01*
X0165857Y0208255D01*
X0165742Y0208317D01*
X0165628Y0208383D01*
X0165516Y0208452D01*
X0165406Y0208524D01*
X0165299Y0208600D01*
X0165194Y0208679D01*
X0165091Y0208761D01*
X0164991Y0208846D01*
X0164894Y0208935D01*
X0164799Y0209026D01*
X0164707Y0209120D01*
X0164618Y0209217D01*
X0164532Y0209316D01*
X0164449Y0209418D01*
X0164369Y0209523D01*
X0164293Y0209629D01*
X0164220Y0209738D01*
X0164150Y0209850D01*
X0164083Y0209963D01*
X0164020Y0210078D01*
X0163960Y0210196D01*
X0163904Y0210314D01*
X0163852Y0210435D01*
X0163803Y0210557D01*
X0163758Y0210681D01*
X0163717Y0210805D01*
X0163680Y0210932D01*
X0163646Y0211059D01*
X0163616Y0211187D01*
X0163591Y0211316D01*
X0163569Y0211445D01*
X0163551Y0211575D01*
X0163537Y0211706D01*
X0163527Y0211837D01*
X0163521Y0211969D01*
X0163519Y0212100D01*
D12*
X0167850Y0212100D03*
X0162350Y0198100D03*
D13*
G36*
X0149871Y0184436D02*
X0154593Y0182450D01*
X0152455Y0177364D01*
X0147733Y0179350D01*
X0149871Y0184436D01*
G37*
G36*
X0157245Y0181336D02*
X0161967Y0179350D01*
X0159829Y0174264D01*
X0155107Y0176250D01*
X0157245Y0181336D01*
G37*
G36*
X0175096Y0172651D02*
X0170885Y0175568D01*
X0174026Y0180103D01*
X0178237Y0177186D01*
X0175096Y0172651D01*
G37*
G36*
X0181674Y0168097D02*
X0177463Y0171014D01*
X0180604Y0175549D01*
X0184815Y0172632D01*
X0181674Y0168097D01*
G37*
X0175350Y0157100D03*
X0167350Y0157100D03*
X0167350Y0117100D03*
X0175350Y0117100D03*
G36*
X0158543Y0088485D02*
X0160462Y0083736D01*
X0155347Y0081669D01*
X0153428Y0086418D01*
X0158543Y0088485D01*
G37*
G36*
X0161353Y0081531D02*
X0163272Y0076782D01*
X0158157Y0074715D01*
X0156238Y0079464D01*
X0161353Y0081531D01*
G37*
G36*
X0141323Y0087633D02*
X0137547Y0091095D01*
X0141275Y0095163D01*
X0145051Y0091701D01*
X0141323Y0087633D01*
G37*
G36*
X0135425Y0093037D02*
X0131649Y0096499D01*
X0135377Y0100567D01*
X0139153Y0097105D01*
X0135425Y0093037D01*
G37*
X0105350Y0117100D03*
X0097350Y0117100D03*
X0097350Y0157100D03*
X0105350Y0157100D03*
G36*
X0114157Y0185215D02*
X0112238Y0189964D01*
X0117353Y0192031D01*
X0119272Y0187282D01*
X0114157Y0185215D01*
G37*
G36*
X0111347Y0192169D02*
X0109428Y0196918D01*
X0114543Y0198985D01*
X0116462Y0194236D01*
X0111347Y0192169D01*
G37*
G36*
X0063863Y0210686D02*
X0060240Y0214309D01*
X0064141Y0218210D01*
X0067764Y0214587D01*
X0063863Y0210686D01*
G37*
G36*
X0058559Y0215990D02*
X0054936Y0219613D01*
X0058837Y0223514D01*
X0062460Y0219891D01*
X0058559Y0215990D01*
G37*
X0030100Y0137100D03*
X0022600Y0137100D03*
G36*
X0064764Y0061113D02*
X0061141Y0057490D01*
X0057240Y0061391D01*
X0060863Y0065014D01*
X0064764Y0061113D01*
G37*
G36*
X0059460Y0055809D02*
X0055837Y0052186D01*
X0051936Y0056087D01*
X0055559Y0059710D01*
X0059460Y0055809D01*
G37*
G36*
X0211837Y0066014D02*
X0215460Y0062391D01*
X0211559Y0058490D01*
X0207936Y0062113D01*
X0211837Y0066014D01*
G37*
G36*
X0217141Y0060710D02*
X0220764Y0057087D01*
X0216863Y0053186D01*
X0213240Y0056809D01*
X0217141Y0060710D01*
G37*
X0242600Y0137100D03*
X0250100Y0137100D03*
G36*
X0210936Y0211587D02*
X0214559Y0215210D01*
X0218460Y0211309D01*
X0214837Y0207686D01*
X0210936Y0211587D01*
G37*
G36*
X0216240Y0216891D02*
X0219863Y0220514D01*
X0223764Y0216613D01*
X0220141Y0212990D01*
X0216240Y0216891D01*
G37*
D14*
X0149460Y0144600D03*
X0149460Y0139600D03*
X0149460Y0134600D03*
X0149460Y0129600D03*
X0123240Y0129600D03*
X0123240Y0134600D03*
X0123240Y0139600D03*
X0123240Y0144600D03*
D15*
X0136350Y0243350D03*
X0136350Y0250850D03*
X0136350Y0030850D03*
X0136350Y0023350D03*
D16*
X0118953Y0070167D03*
X0110113Y0074949D03*
X0113972Y0084174D03*
X0104361Y0087110D03*
X0100502Y0077885D03*
X0122812Y0079392D03*
D17*
G36*
X0189502Y0174817D02*
X0186562Y0178003D01*
X0190906Y0182011D01*
X0193846Y0178825D01*
X0189502Y0174817D01*
G37*
G36*
X0184429Y0180315D02*
X0181489Y0183501D01*
X0185833Y0187509D01*
X0188773Y0184323D01*
X0184429Y0180315D01*
G37*
G36*
X0193331Y0183440D02*
X0190391Y0186626D01*
X0194735Y0190634D01*
X0197675Y0187448D01*
X0193331Y0183440D01*
G37*
D18*
X0173506Y0198834D03*
X0169631Y0189616D03*
X0151194Y0197366D03*
X0155069Y0206584D03*
M02*
