G75*
%MOIN*%
%OFA0B0*%
%FSLAX25Y25*%
%IPPOS*%
%LPD*%
%AMOC8*
5,1,8,0,0,1.08239X$1,22.5*
%
%ADD10C,0.00200*%
%ADD11C,0.00000*%
%ADD12R,0.04724X0.05118*%
%ADD13C,0.00800*%
%ADD14R,0.05118X0.04724*%
%ADD15C,0.07400*%
%ADD16C,0.07087*%
%ADD17C,0.01000*%
%ADD18C,0.01200*%
%ADD19C,0.03377*%
%ADD20C,0.01600*%
D10*
X0041350Y0042100D02*
X0101350Y0053350D01*
X0136350Y0002100D01*
X0170100Y0053350D01*
X0231350Y0042100D01*
X0220100Y0102100D01*
X0271350Y0137100D01*
X0221350Y0170850D01*
X0233850Y0230850D01*
X0171350Y0219600D01*
X0136350Y0272100D01*
X0102600Y0220850D01*
X0042600Y0234600D01*
X0053850Y0172100D01*
X0001350Y0137100D01*
X0053850Y0102100D01*
X0041350Y0042100D01*
D11*
X0158019Y0198100D02*
X0158021Y0198231D01*
X0158027Y0198363D01*
X0158037Y0198494D01*
X0158051Y0198625D01*
X0158069Y0198755D01*
X0158091Y0198884D01*
X0158116Y0199013D01*
X0158146Y0199141D01*
X0158180Y0199268D01*
X0158217Y0199395D01*
X0158258Y0199519D01*
X0158303Y0199643D01*
X0158352Y0199765D01*
X0158404Y0199886D01*
X0158460Y0200004D01*
X0158520Y0200122D01*
X0158583Y0200237D01*
X0158650Y0200350D01*
X0158720Y0200462D01*
X0158793Y0200571D01*
X0158869Y0200677D01*
X0158949Y0200782D01*
X0159032Y0200884D01*
X0159118Y0200983D01*
X0159207Y0201080D01*
X0159299Y0201174D01*
X0159394Y0201265D01*
X0159491Y0201354D01*
X0159591Y0201439D01*
X0159694Y0201521D01*
X0159799Y0201600D01*
X0159906Y0201676D01*
X0160016Y0201748D01*
X0160128Y0201817D01*
X0160242Y0201883D01*
X0160357Y0201945D01*
X0160475Y0202004D01*
X0160594Y0202059D01*
X0160715Y0202111D01*
X0160838Y0202158D01*
X0160962Y0202202D01*
X0161087Y0202243D01*
X0161213Y0202279D01*
X0161341Y0202312D01*
X0161469Y0202340D01*
X0161598Y0202365D01*
X0161728Y0202386D01*
X0161858Y0202403D01*
X0161989Y0202416D01*
X0162120Y0202425D01*
X0162251Y0202430D01*
X0162383Y0202431D01*
X0162514Y0202428D01*
X0162646Y0202421D01*
X0162777Y0202410D01*
X0162907Y0202395D01*
X0163037Y0202376D01*
X0163167Y0202353D01*
X0163295Y0202327D01*
X0163423Y0202296D01*
X0163550Y0202261D01*
X0163676Y0202223D01*
X0163800Y0202181D01*
X0163924Y0202135D01*
X0164045Y0202085D01*
X0164165Y0202032D01*
X0164284Y0201975D01*
X0164401Y0201915D01*
X0164515Y0201851D01*
X0164628Y0201783D01*
X0164739Y0201712D01*
X0164848Y0201638D01*
X0164954Y0201561D01*
X0165058Y0201480D01*
X0165159Y0201397D01*
X0165258Y0201310D01*
X0165354Y0201220D01*
X0165447Y0201127D01*
X0165538Y0201032D01*
X0165625Y0200934D01*
X0165710Y0200833D01*
X0165791Y0200730D01*
X0165869Y0200624D01*
X0165944Y0200516D01*
X0166016Y0200406D01*
X0166084Y0200294D01*
X0166149Y0200180D01*
X0166210Y0200063D01*
X0166268Y0199945D01*
X0166322Y0199825D01*
X0166373Y0199704D01*
X0166420Y0199581D01*
X0166463Y0199457D01*
X0166502Y0199332D01*
X0166538Y0199205D01*
X0166569Y0199077D01*
X0166597Y0198949D01*
X0166621Y0198820D01*
X0166641Y0198690D01*
X0166657Y0198559D01*
X0166669Y0198428D01*
X0166677Y0198297D01*
X0166681Y0198166D01*
X0166681Y0198034D01*
X0166677Y0197903D01*
X0166669Y0197772D01*
X0166657Y0197641D01*
X0166641Y0197510D01*
X0166621Y0197380D01*
X0166597Y0197251D01*
X0166569Y0197123D01*
X0166538Y0196995D01*
X0166502Y0196868D01*
X0166463Y0196743D01*
X0166420Y0196619D01*
X0166373Y0196496D01*
X0166322Y0196375D01*
X0166268Y0196255D01*
X0166210Y0196137D01*
X0166149Y0196020D01*
X0166084Y0195906D01*
X0166016Y0195794D01*
X0165944Y0195684D01*
X0165869Y0195576D01*
X0165791Y0195470D01*
X0165710Y0195367D01*
X0165625Y0195266D01*
X0165538Y0195168D01*
X0165447Y0195073D01*
X0165354Y0194980D01*
X0165258Y0194890D01*
X0165159Y0194803D01*
X0165058Y0194720D01*
X0164954Y0194639D01*
X0164848Y0194562D01*
X0164739Y0194488D01*
X0164628Y0194417D01*
X0164516Y0194349D01*
X0164401Y0194285D01*
X0164284Y0194225D01*
X0164165Y0194168D01*
X0164045Y0194115D01*
X0163924Y0194065D01*
X0163800Y0194019D01*
X0163676Y0193977D01*
X0163550Y0193939D01*
X0163423Y0193904D01*
X0163295Y0193873D01*
X0163167Y0193847D01*
X0163037Y0193824D01*
X0162907Y0193805D01*
X0162777Y0193790D01*
X0162646Y0193779D01*
X0162514Y0193772D01*
X0162383Y0193769D01*
X0162251Y0193770D01*
X0162120Y0193775D01*
X0161989Y0193784D01*
X0161858Y0193797D01*
X0161728Y0193814D01*
X0161598Y0193835D01*
X0161469Y0193860D01*
X0161341Y0193888D01*
X0161213Y0193921D01*
X0161087Y0193957D01*
X0160962Y0193998D01*
X0160838Y0194042D01*
X0160715Y0194089D01*
X0160594Y0194141D01*
X0160475Y0194196D01*
X0160357Y0194255D01*
X0160242Y0194317D01*
X0160128Y0194383D01*
X0160016Y0194452D01*
X0159906Y0194524D01*
X0159799Y0194600D01*
X0159694Y0194679D01*
X0159591Y0194761D01*
X0159491Y0194846D01*
X0159394Y0194935D01*
X0159299Y0195026D01*
X0159207Y0195120D01*
X0159118Y0195217D01*
X0159032Y0195316D01*
X0158949Y0195418D01*
X0158869Y0195523D01*
X0158793Y0195629D01*
X0158720Y0195738D01*
X0158650Y0195850D01*
X0158583Y0195963D01*
X0158520Y0196078D01*
X0158460Y0196196D01*
X0158404Y0196314D01*
X0158352Y0196435D01*
X0158303Y0196557D01*
X0158258Y0196681D01*
X0158217Y0196805D01*
X0158180Y0196932D01*
X0158146Y0197059D01*
X0158116Y0197187D01*
X0158091Y0197316D01*
X0158069Y0197445D01*
X0158051Y0197575D01*
X0158037Y0197706D01*
X0158027Y0197837D01*
X0158021Y0197969D01*
X0158019Y0198100D01*
X0163519Y0212100D02*
X0163521Y0212231D01*
X0163527Y0212363D01*
X0163537Y0212494D01*
X0163551Y0212625D01*
X0163569Y0212755D01*
X0163591Y0212884D01*
X0163616Y0213013D01*
X0163646Y0213141D01*
X0163680Y0213268D01*
X0163717Y0213395D01*
X0163758Y0213519D01*
X0163803Y0213643D01*
X0163852Y0213765D01*
X0163904Y0213886D01*
X0163960Y0214004D01*
X0164020Y0214122D01*
X0164083Y0214237D01*
X0164150Y0214350D01*
X0164220Y0214462D01*
X0164293Y0214571D01*
X0164369Y0214677D01*
X0164449Y0214782D01*
X0164532Y0214884D01*
X0164618Y0214983D01*
X0164707Y0215080D01*
X0164799Y0215174D01*
X0164894Y0215265D01*
X0164991Y0215354D01*
X0165091Y0215439D01*
X0165194Y0215521D01*
X0165299Y0215600D01*
X0165406Y0215676D01*
X0165516Y0215748D01*
X0165628Y0215817D01*
X0165742Y0215883D01*
X0165857Y0215945D01*
X0165975Y0216004D01*
X0166094Y0216059D01*
X0166215Y0216111D01*
X0166338Y0216158D01*
X0166462Y0216202D01*
X0166587Y0216243D01*
X0166713Y0216279D01*
X0166841Y0216312D01*
X0166969Y0216340D01*
X0167098Y0216365D01*
X0167228Y0216386D01*
X0167358Y0216403D01*
X0167489Y0216416D01*
X0167620Y0216425D01*
X0167751Y0216430D01*
X0167883Y0216431D01*
X0168014Y0216428D01*
X0168146Y0216421D01*
X0168277Y0216410D01*
X0168407Y0216395D01*
X0168537Y0216376D01*
X0168667Y0216353D01*
X0168795Y0216327D01*
X0168923Y0216296D01*
X0169050Y0216261D01*
X0169176Y0216223D01*
X0169300Y0216181D01*
X0169424Y0216135D01*
X0169545Y0216085D01*
X0169665Y0216032D01*
X0169784Y0215975D01*
X0169901Y0215915D01*
X0170015Y0215851D01*
X0170128Y0215783D01*
X0170239Y0215712D01*
X0170348Y0215638D01*
X0170454Y0215561D01*
X0170558Y0215480D01*
X0170659Y0215397D01*
X0170758Y0215310D01*
X0170854Y0215220D01*
X0170947Y0215127D01*
X0171038Y0215032D01*
X0171125Y0214934D01*
X0171210Y0214833D01*
X0171291Y0214730D01*
X0171369Y0214624D01*
X0171444Y0214516D01*
X0171516Y0214406D01*
X0171584Y0214294D01*
X0171649Y0214180D01*
X0171710Y0214063D01*
X0171768Y0213945D01*
X0171822Y0213825D01*
X0171873Y0213704D01*
X0171920Y0213581D01*
X0171963Y0213457D01*
X0172002Y0213332D01*
X0172038Y0213205D01*
X0172069Y0213077D01*
X0172097Y0212949D01*
X0172121Y0212820D01*
X0172141Y0212690D01*
X0172157Y0212559D01*
X0172169Y0212428D01*
X0172177Y0212297D01*
X0172181Y0212166D01*
X0172181Y0212034D01*
X0172177Y0211903D01*
X0172169Y0211772D01*
X0172157Y0211641D01*
X0172141Y0211510D01*
X0172121Y0211380D01*
X0172097Y0211251D01*
X0172069Y0211123D01*
X0172038Y0210995D01*
X0172002Y0210868D01*
X0171963Y0210743D01*
X0171920Y0210619D01*
X0171873Y0210496D01*
X0171822Y0210375D01*
X0171768Y0210255D01*
X0171710Y0210137D01*
X0171649Y0210020D01*
X0171584Y0209906D01*
X0171516Y0209794D01*
X0171444Y0209684D01*
X0171369Y0209576D01*
X0171291Y0209470D01*
X0171210Y0209367D01*
X0171125Y0209266D01*
X0171038Y0209168D01*
X0170947Y0209073D01*
X0170854Y0208980D01*
X0170758Y0208890D01*
X0170659Y0208803D01*
X0170558Y0208720D01*
X0170454Y0208639D01*
X0170348Y0208562D01*
X0170239Y0208488D01*
X0170128Y0208417D01*
X0170016Y0208349D01*
X0169901Y0208285D01*
X0169784Y0208225D01*
X0169665Y0208168D01*
X0169545Y0208115D01*
X0169424Y0208065D01*
X0169300Y0208019D01*
X0169176Y0207977D01*
X0169050Y0207939D01*
X0168923Y0207904D01*
X0168795Y0207873D01*
X0168667Y0207847D01*
X0168537Y0207824D01*
X0168407Y0207805D01*
X0168277Y0207790D01*
X0168146Y0207779D01*
X0168014Y0207772D01*
X0167883Y0207769D01*
X0167751Y0207770D01*
X0167620Y0207775D01*
X0167489Y0207784D01*
X0167358Y0207797D01*
X0167228Y0207814D01*
X0167098Y0207835D01*
X0166969Y0207860D01*
X0166841Y0207888D01*
X0166713Y0207921D01*
X0166587Y0207957D01*
X0166462Y0207998D01*
X0166338Y0208042D01*
X0166215Y0208089D01*
X0166094Y0208141D01*
X0165975Y0208196D01*
X0165857Y0208255D01*
X0165742Y0208317D01*
X0165628Y0208383D01*
X0165516Y0208452D01*
X0165406Y0208524D01*
X0165299Y0208600D01*
X0165194Y0208679D01*
X0165091Y0208761D01*
X0164991Y0208846D01*
X0164894Y0208935D01*
X0164799Y0209026D01*
X0164707Y0209120D01*
X0164618Y0209217D01*
X0164532Y0209316D01*
X0164449Y0209418D01*
X0164369Y0209523D01*
X0164293Y0209629D01*
X0164220Y0209738D01*
X0164150Y0209850D01*
X0164083Y0209963D01*
X0164020Y0210078D01*
X0163960Y0210196D01*
X0163904Y0210314D01*
X0163852Y0210435D01*
X0163803Y0210557D01*
X0163758Y0210681D01*
X0163717Y0210805D01*
X0163680Y0210932D01*
X0163646Y0211059D01*
X0163616Y0211187D01*
X0163591Y0211316D01*
X0163569Y0211445D01*
X0163551Y0211575D01*
X0163537Y0211706D01*
X0163527Y0211837D01*
X0163521Y0211969D01*
X0163519Y0212100D01*
D12*
G36*
X0117247Y0191822D02*
X0119093Y0187474D01*
X0114383Y0185474D01*
X0112537Y0189822D01*
X0117247Y0191822D01*
G37*
G36*
X0114317Y0198726D02*
X0116163Y0194378D01*
X0111453Y0192378D01*
X0109607Y0196726D01*
X0114317Y0198726D01*
G37*
G36*
X0064141Y0217927D02*
X0067481Y0214587D01*
X0063863Y0210969D01*
X0060523Y0214309D01*
X0064141Y0217927D01*
G37*
G36*
X0058837Y0223231D02*
X0062177Y0219891D01*
X0058559Y0216273D01*
X0055219Y0219613D01*
X0058837Y0223231D01*
G37*
X0030100Y0137100D03*
X0022600Y0137100D03*
G36*
X0057523Y0061391D02*
X0060863Y0064731D01*
X0064481Y0061113D01*
X0061141Y0057773D01*
X0057523Y0061391D01*
G37*
G36*
X0052219Y0056087D02*
X0055559Y0059427D01*
X0059177Y0055809D01*
X0055837Y0052469D01*
X0052219Y0056087D01*
G37*
G36*
X0155450Y0081848D02*
X0153559Y0086175D01*
X0158248Y0088224D01*
X0160139Y0083897D01*
X0155450Y0081848D01*
G37*
G36*
X0158452Y0074976D02*
X0156561Y0079303D01*
X0161250Y0081352D01*
X0163141Y0077025D01*
X0158452Y0074976D01*
G37*
G36*
X0211559Y0058773D02*
X0208219Y0062113D01*
X0211837Y0065731D01*
X0215177Y0062391D01*
X0211559Y0058773D01*
G37*
G36*
X0216863Y0053469D02*
X0213523Y0056809D01*
X0217141Y0060427D01*
X0220481Y0057087D01*
X0216863Y0053469D01*
G37*
X0242600Y0137100D03*
X0250100Y0137100D03*
G36*
X0218177Y0211309D02*
X0214837Y0207969D01*
X0211219Y0211587D01*
X0214559Y0214927D01*
X0218177Y0211309D01*
G37*
G36*
X0223481Y0216613D02*
X0220141Y0213273D01*
X0216523Y0216891D01*
X0219863Y0220231D01*
X0223481Y0216613D01*
G37*
D13*
X0210279Y0212332D02*
X0208511Y0210564D01*
X0210279Y0210564D02*
X0208511Y0212332D01*
X0238850Y0142100D02*
X0238850Y0139600D01*
X0240100Y0140850D02*
X0237600Y0140850D01*
X0212582Y0068439D02*
X0210814Y0066671D01*
X0212582Y0066671D02*
X0210814Y0068439D01*
X0159284Y0088829D02*
X0158283Y0091119D01*
X0157638Y0089474D02*
X0159929Y0090474D01*
X0140100Y0035850D02*
X0140100Y0033350D01*
X0138850Y0034600D02*
X0141350Y0034600D01*
X0067189Y0060368D02*
X0065421Y0062136D01*
X0065421Y0060368D02*
X0067189Y0062136D01*
X0033850Y0132100D02*
X0033850Y0134600D01*
X0032600Y0133350D02*
X0035100Y0133350D01*
X0063118Y0208261D02*
X0064886Y0210029D01*
X0063118Y0210029D02*
X0064886Y0208261D01*
X0113340Y0184882D02*
X0114317Y0182580D01*
X0114979Y0184219D02*
X0112678Y0183243D01*
X0132600Y0238350D02*
X0132600Y0240850D01*
X0133850Y0239600D02*
X0131350Y0239600D01*
D14*
X0136350Y0243350D03*
X0136350Y0250850D03*
X0136350Y0030850D03*
X0136350Y0023350D03*
D15*
X0118953Y0070167D03*
X0110113Y0074949D03*
X0113972Y0084174D03*
X0104361Y0087110D03*
X0100502Y0077885D03*
X0122812Y0079392D03*
D16*
X0169631Y0189616D03*
X0173506Y0198834D03*
X0155069Y0206584D03*
X0151194Y0197366D03*
D17*
X0150827Y0202944D02*
X0146217Y0204882D01*
X0149491Y0206217D02*
X0147553Y0201608D01*
D18*
X0145980Y0202251D02*
X0134309Y0202251D01*
X0134352Y0201694D02*
X0133914Y0207424D01*
X0134691Y0213119D01*
X0136649Y0218522D01*
X0137063Y0219269D01*
X0137986Y0219651D01*
X0138799Y0220464D01*
X0139238Y0221525D01*
X0139238Y0222675D01*
X0139158Y0222869D01*
X0140387Y0224890D01*
X0145328Y0232300D01*
X0147950Y0235900D01*
X0148447Y0236563D01*
X0149084Y0237412D01*
X0150108Y0241050D01*
X0149751Y0244813D01*
X0148061Y0248193D01*
X0148061Y0248193D01*
X0145265Y0250737D01*
X0141740Y0252100D01*
X0140109Y0252100D01*
X0140109Y0253709D01*
X0139406Y0254412D01*
X0133294Y0254412D01*
X0132591Y0253709D01*
X0132591Y0247991D01*
X0133294Y0247288D01*
X0139406Y0247288D01*
X0140109Y0247991D01*
X0140109Y0247999D01*
X0140241Y0247971D01*
X0140367Y0248052D01*
X0140974Y0247996D01*
X0143070Y0247185D01*
X0144733Y0245673D01*
X0145738Y0243662D01*
X0145950Y0241425D01*
X0145341Y0239261D01*
X0144750Y0238300D01*
X0144473Y0237931D01*
X0144253Y0237637D01*
X0143950Y0237233D01*
X0144598Y0238866D01*
X0144369Y0241440D01*
X0143008Y0243636D01*
X0143008Y0243636D01*
X0143008Y0243636D01*
X0140804Y0244986D01*
X0140804Y0244986D01*
X0140342Y0245024D01*
X0140342Y0245024D01*
X0140109Y0245044D01*
X0140109Y0246209D01*
X0139406Y0246912D01*
X0133294Y0246912D01*
X0132591Y0246209D01*
X0132591Y0242450D01*
X0131937Y0242450D01*
X0131000Y0241513D01*
X0131000Y0241200D01*
X0130687Y0241200D01*
X0129750Y0240263D01*
X0129750Y0238937D01*
X0130687Y0238000D01*
X0131000Y0238000D01*
X0131000Y0237687D01*
X0131937Y0236750D01*
X0133263Y0236750D01*
X0134200Y0237687D01*
X0134200Y0238000D01*
X0134513Y0238000D01*
X0135450Y0238937D01*
X0135450Y0239788D01*
X0139406Y0239788D01*
X0140109Y0240491D01*
X0140109Y0240646D01*
X0140431Y0240127D01*
X0140490Y0239464D01*
X0140244Y0238845D01*
X0140021Y0238595D01*
X0137286Y0236164D01*
X0136242Y0234988D01*
X0135775Y0234988D01*
X0134714Y0234549D01*
X0133901Y0233736D01*
X0133461Y0232675D01*
X0133461Y0231861D01*
X0132474Y0230750D01*
X0128796Y0224597D01*
X0126332Y0217866D01*
X0125169Y0210793D01*
X0125347Y0203627D01*
X0126861Y0196620D01*
X0127936Y0194081D01*
X0127935Y0194080D01*
X0128229Y0193388D01*
X0126993Y0195465D01*
X0126993Y0195465D01*
X0124132Y0197828D01*
X0120643Y0199090D01*
X0116933Y0199104D01*
X0116933Y0199104D01*
X0115653Y0198652D01*
X0115228Y0199653D01*
X0114306Y0200025D01*
X0108680Y0197637D01*
X0108307Y0196715D01*
X0108715Y0195756D01*
X0106547Y0194574D01*
X0101715Y0192869D01*
X0096631Y0192227D01*
X0091526Y0192676D01*
X0086632Y0194198D01*
X0084335Y0195341D01*
X0083708Y0195760D01*
X0082673Y0196851D01*
X0082443Y0197312D01*
X0082738Y0198025D01*
X0082738Y0199175D01*
X0082299Y0200236D01*
X0081486Y0201049D01*
X0081271Y0201138D01*
X0080780Y0203082D01*
X0079566Y0211094D01*
X0079350Y0215142D01*
X0079332Y0215971D01*
X0079309Y0217047D01*
X0078017Y0220631D01*
X0075648Y0223615D01*
X0075648Y0223615D01*
X0075648Y0223615D01*
X0072450Y0225686D01*
X0068759Y0226629D01*
X0068759Y0226629D01*
X0064959Y0226344D01*
X0061450Y0224860D01*
X0060644Y0224146D01*
X0060101Y0223665D01*
X0059335Y0224431D01*
X0058340Y0224431D01*
X0054019Y0220110D01*
X0054019Y0219115D01*
X0058062Y0215072D01*
X0059056Y0215072D01*
X0063378Y0219394D01*
X0063378Y0220388D01*
X0062954Y0220812D01*
X0063666Y0221345D01*
X0065937Y0222305D01*
X0068396Y0222490D01*
X0070785Y0221880D01*
X0072854Y0220539D01*
X0074388Y0218608D01*
X0075224Y0216288D01*
X0075350Y0215058D01*
X0075442Y0210740D01*
X0075442Y0210740D01*
X0076736Y0202199D01*
X0077341Y0200091D01*
X0076961Y0199175D01*
X0076961Y0198025D01*
X0077401Y0196964D01*
X0078214Y0196151D01*
X0078561Y0196007D01*
X0079313Y0194499D01*
X0081183Y0192528D01*
X0081644Y0192267D01*
X0082153Y0191979D01*
X0082365Y0191859D01*
X0083086Y0191451D01*
X0084981Y0190379D01*
X0090721Y0188594D01*
X0096709Y0188067D01*
X0102673Y0188820D01*
X0108342Y0190820D01*
X0110298Y0192026D01*
X0110542Y0191451D01*
X0111463Y0191079D01*
X0117090Y0193467D01*
X0117462Y0194389D01*
X0117244Y0194903D01*
X0117628Y0195003D01*
X0119917Y0194995D01*
X0122070Y0194216D01*
X0123835Y0192758D01*
X0125006Y0190791D01*
X0125446Y0188545D01*
X0125372Y0187399D01*
X0125372Y0187399D01*
X0124047Y0179699D01*
X0122843Y0174102D01*
X0122714Y0174049D01*
X0121901Y0173236D01*
X0121461Y0172175D01*
X0121461Y0171025D01*
X0121743Y0170345D01*
X0121727Y0170302D01*
X0119656Y0164778D01*
X0116869Y0153310D01*
X0115480Y0141592D01*
X0115480Y0141592D01*
X0115509Y0129791D01*
X0116955Y0118079D01*
X0119796Y0106626D01*
X0119796Y0106626D01*
X0123993Y0095597D01*
X0123993Y0095597D01*
X0129485Y0085151D01*
X0136191Y0075441D01*
X0140103Y0071024D01*
X0142320Y0068275D01*
X0142320Y0068275D01*
X0145952Y0062224D01*
X0148413Y0055610D01*
X0149620Y0048657D01*
X0149533Y0041601D01*
X0148154Y0034680D01*
X0146993Y0031344D01*
X0146993Y0031344D01*
X0146435Y0030180D01*
X0144884Y0028125D01*
X0142847Y0026549D01*
X0140468Y0025564D01*
X0140109Y0025518D01*
X0140109Y0026209D01*
X0139406Y0026912D01*
X0133294Y0026912D01*
X0132591Y0026209D01*
X0132591Y0025749D01*
X0132359Y0025788D01*
X0130224Y0026741D01*
X0128523Y0028345D01*
X0127446Y0030421D01*
X0127116Y0032735D01*
X0127568Y0035029D01*
X0128075Y0036087D01*
X0128075Y0036088D01*
X0129019Y0037644D01*
X0128102Y0035334D01*
X0128331Y0032760D01*
X0129692Y0030564D01*
X0129692Y0030564D01*
X0129692Y0030564D01*
X0131896Y0029214D01*
X0131896Y0029214D01*
X0132358Y0029176D01*
X0132591Y0029156D01*
X0132591Y0027991D01*
X0133294Y0027288D01*
X0139406Y0027288D01*
X0140109Y0027991D01*
X0140109Y0031750D01*
X0140763Y0031750D01*
X0141700Y0032687D01*
X0141700Y0033000D01*
X0142013Y0033000D01*
X0142950Y0033937D01*
X0142950Y0035263D01*
X0142013Y0036200D01*
X0141700Y0036200D01*
X0141700Y0036513D01*
X0140763Y0037450D01*
X0139437Y0037450D01*
X0138500Y0036513D01*
X0138500Y0036200D01*
X0138187Y0036200D01*
X0137250Y0035263D01*
X0137250Y0034412D01*
X0133294Y0034412D01*
X0132591Y0033709D01*
X0132591Y0033554D01*
X0132269Y0034073D01*
X0132210Y0034736D01*
X0132456Y0035355D01*
X0132679Y0035605D01*
X0135414Y0038036D01*
X0136458Y0039211D01*
X0136925Y0039211D01*
X0137986Y0039651D01*
X0138799Y0040464D01*
X0139238Y0041525D01*
X0139238Y0042528D01*
X0139824Y0043268D01*
X0142374Y0048856D01*
X0143514Y0054892D01*
X0143461Y0055876D01*
X0143799Y0056214D01*
X0144238Y0057275D01*
X0144238Y0058425D01*
X0143799Y0059486D01*
X0142986Y0060299D01*
X0142897Y0060335D01*
X0141297Y0063218D01*
X0138377Y0065559D01*
X0138377Y0065559D01*
X0134787Y0066620D01*
X0131063Y0066245D01*
X0129543Y0065436D01*
X0126579Y0064419D01*
X0120284Y0063010D01*
X0113850Y0062536D01*
X0107416Y0063010D01*
X0101121Y0064419D01*
X0098068Y0065467D01*
X0097822Y0065561D01*
X0097295Y0065764D01*
X0093335Y0067287D01*
X0093335Y0067287D01*
X0083528Y0069879D01*
X0073499Y0071391D01*
X0073499Y0071391D01*
X0070522Y0071513D01*
X0069986Y0072049D01*
X0068925Y0072488D01*
X0068515Y0072488D01*
X0069188Y0072562D01*
X0074636Y0074090D01*
X0075309Y0074405D01*
X0075775Y0074211D01*
X0076925Y0074211D01*
X0077986Y0074651D01*
X0078799Y0075464D01*
X0079238Y0076525D01*
X0079238Y0076697D01*
X0079318Y0076762D01*
X0079937Y0077204D01*
X0079950Y0077282D01*
X0081598Y0078639D01*
X0085142Y0083192D01*
X0087602Y0088411D01*
X0088858Y0094043D01*
X0088849Y0099812D01*
X0088849Y0099812D01*
X0087576Y0105440D01*
X0085100Y0110652D01*
X0081542Y0115194D01*
X0077075Y0118846D01*
X0075236Y0119767D01*
X0075191Y0119790D01*
X0074496Y0120138D01*
X0074496Y0120138D01*
X0070845Y0122130D01*
X0068084Y0124038D01*
X0072852Y0123408D01*
X0078901Y0123858D01*
X0078901Y0123858D01*
X0084731Y0125534D01*
X0084731Y0125534D01*
X0090096Y0128365D01*
X0094770Y0132232D01*
X0096146Y0133955D01*
X0096146Y0133955D01*
X0096384Y0134253D01*
X0096663Y0134602D01*
X0100667Y0139615D01*
X0100667Y0139615D01*
X0107899Y0150216D01*
X0107899Y0150216D01*
X0114314Y0161331D01*
X0119875Y0172896D01*
X0121453Y0176930D01*
X0121986Y0177151D01*
X0122799Y0177964D01*
X0123238Y0179025D01*
X0123238Y0180175D01*
X0122973Y0180815D01*
X0123589Y0182390D01*
X0124753Y0185984D01*
X0124829Y0186220D01*
X0125110Y0187089D01*
X0124757Y0189384D01*
X0123409Y0191275D01*
X0121356Y0192359D01*
X0119034Y0192405D01*
X0118427Y0192115D01*
X0118158Y0192749D01*
X0117237Y0193121D01*
X0111610Y0190733D01*
X0111238Y0189811D01*
X0112707Y0186351D01*
X0112105Y0186095D01*
X0111608Y0184866D01*
X0111731Y0184579D01*
X0111443Y0184456D01*
X0110946Y0183227D01*
X0111464Y0182007D01*
X0112693Y0181511D01*
X0112981Y0181633D01*
X0113103Y0181345D01*
X0114332Y0180849D01*
X0115552Y0181366D01*
X0116049Y0182595D01*
X0115927Y0182883D01*
X0116214Y0183006D01*
X0116711Y0184234D01*
X0116379Y0185017D01*
X0120020Y0186563D01*
X0120393Y0187485D01*
X0120021Y0188361D01*
X0120321Y0188355D01*
X0120686Y0188162D01*
X0120925Y0187827D01*
X0120988Y0187419D01*
X0120947Y0187216D01*
X0119769Y0183754D01*
X0119207Y0182253D01*
X0118714Y0182049D01*
X0117901Y0181236D01*
X0117461Y0180175D01*
X0117461Y0179025D01*
X0117706Y0178436D01*
X0116096Y0174541D01*
X0110670Y0163255D01*
X0104410Y0152409D01*
X0097353Y0142064D01*
X0093537Y0137098D01*
X0091806Y0135145D01*
X0087789Y0131822D01*
X0083179Y0129389D01*
X0078169Y0127949D01*
X0072970Y0127562D01*
X0067802Y0128245D01*
X0062883Y0129969D01*
X0058419Y0132661D01*
X0054870Y0135957D01*
X0054744Y0136111D01*
X0054238Y0136728D01*
X0054238Y0137675D01*
X0053799Y0138736D01*
X0052986Y0139549D01*
X0051925Y0139988D01*
X0051725Y0139988D01*
X0051509Y0140286D01*
X0051509Y0140286D01*
X0047925Y0143732D01*
X0043789Y0146489D01*
X0043789Y0146489D01*
X0039230Y0148473D01*
X0036811Y0149046D01*
X0036005Y0149237D01*
X0034893Y0149501D01*
X0030960Y0149226D01*
X0030960Y0149226D01*
X0027287Y0147793D01*
X0027287Y0147793D01*
X0024207Y0145331D01*
X0024207Y0145331D01*
X0024207Y0145331D01*
X0022001Y0142063D01*
X0021672Y0140968D01*
X0021640Y0140859D01*
X0019741Y0140859D01*
X0019038Y0140156D01*
X0019038Y0134044D01*
X0019741Y0133341D01*
X0025459Y0133341D01*
X0026162Y0134044D01*
X0026162Y0140156D01*
X0025864Y0140454D01*
X0027257Y0142517D01*
X0029360Y0144199D01*
X0031869Y0145178D01*
X0034555Y0145365D01*
X0035889Y0145154D01*
X0037931Y0144573D01*
X0041821Y0142880D01*
X0045351Y0140527D01*
X0048409Y0137587D01*
X0048461Y0137522D01*
X0048461Y0136525D01*
X0048901Y0135464D01*
X0049714Y0134651D01*
X0050775Y0134211D01*
X0050946Y0134211D01*
X0051473Y0133469D01*
X0051473Y0133469D01*
X0052570Y0132450D01*
X0054869Y0129641D01*
X0061409Y0123611D01*
X0068727Y0118554D01*
X0071964Y0116933D01*
X0071964Y0116933D01*
X0072704Y0116562D01*
X0074813Y0115355D01*
X0078570Y0112284D01*
X0081562Y0108463D01*
X0083645Y0104080D01*
X0084715Y0099347D01*
X0084723Y0094495D01*
X0083667Y0089759D01*
X0081598Y0085369D01*
X0078618Y0081540D01*
X0076929Y0079986D01*
X0076925Y0079988D01*
X0075775Y0079988D01*
X0074714Y0079549D01*
X0073901Y0078736D01*
X0073653Y0078137D01*
X0073203Y0077948D01*
X0068406Y0076603D01*
X0063453Y0076061D01*
X0060961Y0076097D01*
X0060644Y0076114D01*
X0059043Y0076203D01*
X0055352Y0075140D01*
X0052218Y0072919D01*
X0049991Y0069790D01*
X0048919Y0066102D01*
X0048919Y0066102D01*
X0049123Y0062266D01*
X0049123Y0062266D01*
X0050579Y0058712D01*
X0051304Y0057894D01*
X0051720Y0057424D01*
X0051785Y0057351D01*
X0051019Y0056585D01*
X0051019Y0055590D01*
X0055340Y0051268D01*
X0056335Y0051268D01*
X0060378Y0055312D01*
X0060378Y0056306D01*
X0056056Y0060628D01*
X0055062Y0060628D01*
X0054639Y0060205D01*
X0054112Y0060911D01*
X0053183Y0063178D01*
X0053053Y0065625D01*
X0053737Y0067977D01*
X0055157Y0069973D01*
X0057156Y0071390D01*
X0059511Y0072068D01*
X0060739Y0072103D01*
X0060739Y0072103D01*
X0063564Y0071947D01*
X0067510Y0072378D01*
X0066714Y0072049D01*
X0066346Y0071681D01*
X0064850Y0071740D01*
X0062099Y0071631D01*
X0062099Y0071631D01*
X0061365Y0071602D01*
X0061271Y0071598D01*
X0060443Y0071566D01*
X0060443Y0071566D01*
X0059981Y0071547D01*
X0059981Y0071547D01*
X0057707Y0070323D01*
X0056202Y0068224D01*
X0055772Y0065678D01*
X0055772Y0065678D01*
X0056503Y0063201D01*
X0056503Y0063201D01*
X0057044Y0062610D01*
X0056322Y0061888D01*
X0056322Y0060894D01*
X0060644Y0056572D01*
X0061638Y0056572D01*
X0064296Y0059230D01*
X0064758Y0058768D01*
X0066084Y0058768D01*
X0066305Y0058989D01*
X0066526Y0058768D01*
X0067852Y0058768D01*
X0068789Y0059705D01*
X0068789Y0061030D01*
X0068568Y0061252D01*
X0068789Y0061473D01*
X0068789Y0062798D01*
X0067852Y0063736D01*
X0066526Y0063736D01*
X0066305Y0063514D01*
X0066084Y0063736D01*
X0064758Y0063736D01*
X0064157Y0063134D01*
X0061360Y0065931D01*
X0060365Y0065931D01*
X0060014Y0065580D01*
X0059912Y0065926D01*
X0060031Y0066629D01*
X0060446Y0067209D01*
X0061074Y0067547D01*
X0061429Y0067602D01*
X0064850Y0067669D01*
X0066223Y0067642D01*
X0066714Y0067151D01*
X0067775Y0066711D01*
X0068925Y0066711D01*
X0069986Y0067151D01*
X0070298Y0067463D01*
X0073105Y0067272D01*
X0082690Y0065827D01*
X0092061Y0063350D01*
X0096632Y0061733D01*
X0097405Y0061436D01*
X0099925Y0060467D01*
X0099925Y0060467D01*
X0106812Y0058925D01*
X0113850Y0058407D01*
X0120888Y0058925D01*
X0127775Y0060467D01*
X0130425Y0061486D01*
X0130558Y0061445D01*
X0131182Y0061777D01*
X0131841Y0062031D01*
X0131858Y0062069D01*
X0132278Y0062243D01*
X0134397Y0062456D01*
X0136439Y0061852D01*
X0138101Y0060520D01*
X0138805Y0059253D01*
X0138461Y0058425D01*
X0138461Y0057275D01*
X0138901Y0056214D01*
X0139342Y0055773D01*
X0139338Y0055169D01*
X0138983Y0053291D01*
X0138799Y0053736D01*
X0137986Y0054549D01*
X0136925Y0054988D01*
X0135775Y0054988D01*
X0134714Y0054549D01*
X0133901Y0053736D01*
X0133461Y0052675D01*
X0133461Y0051588D01*
X0132006Y0049653D01*
X0132006Y0049653D01*
X0126938Y0042052D01*
X0126938Y0042052D01*
X0124998Y0038747D01*
X0124625Y0038113D01*
X0124467Y0037842D01*
X0124206Y0037398D01*
X0123681Y0036504D01*
X0122960Y0032845D01*
X0122960Y0032845D01*
X0123488Y0029152D01*
X0123488Y0029152D01*
X0125205Y0025840D01*
X0127919Y0023281D01*
X0131325Y0021762D01*
X0131325Y0021762D01*
X0132591Y0021656D01*
X0132591Y0020491D01*
X0133294Y0019788D01*
X0139406Y0019788D01*
X0140109Y0020491D01*
X0140109Y0021399D01*
X0141527Y0021580D01*
X0144915Y0022984D01*
X0147815Y0025228D01*
X0150025Y0028154D01*
X0150025Y0028154D01*
X0150399Y0029087D01*
X0150707Y0029856D01*
X0152161Y0033489D01*
X0153691Y0041164D01*
X0153691Y0041164D01*
X0153787Y0048990D01*
X0153787Y0048990D01*
X0152448Y0056701D01*
X0149719Y0064036D01*
X0149719Y0064036D01*
X0145692Y0070746D01*
X0143646Y0073056D01*
X0143097Y0073676D01*
X0139479Y0078018D01*
X0133059Y0087314D01*
X0127801Y0097315D01*
X0123783Y0107874D01*
X0121062Y0118840D01*
X0119678Y0130052D01*
X0119651Y0141351D01*
X0120981Y0152570D01*
X0123648Y0163549D01*
X0125473Y0168898D01*
X0125491Y0168946D01*
X0125986Y0169151D01*
X0126799Y0169964D01*
X0127238Y0171025D01*
X0127238Y0172175D01*
X0126799Y0173236D01*
X0126794Y0173241D01*
X0128136Y0178908D01*
X0129328Y0186801D01*
X0129451Y0187621D01*
X0129605Y0188636D01*
X0129053Y0191451D01*
X0140981Y0163384D01*
X0143509Y0155952D01*
X0147980Y0140801D01*
X0149886Y0133209D01*
X0150368Y0129777D01*
X0150694Y0122754D01*
X0150145Y0115744D01*
X0148731Y0108857D01*
X0148299Y0107437D01*
X0147964Y0107299D01*
X0147151Y0106486D01*
X0146711Y0105425D01*
X0146711Y0104275D01*
X0147023Y0103523D01*
X0146422Y0101788D01*
X0143583Y0094505D01*
X0142026Y0090920D01*
X0141686Y0090164D01*
X0141189Y0089058D01*
X0141189Y0089058D01*
X0140851Y0084988D01*
X0141888Y0081038D01*
X0144181Y0077660D01*
X0144181Y0077659D02*
X0144181Y0077659D01*
X0147469Y0075238D01*
X0147469Y0075238D01*
X0151376Y0074050D01*
X0151376Y0074050D01*
X0155456Y0074231D01*
X0157166Y0074921D01*
X0157551Y0074039D01*
X0158477Y0073676D01*
X0164078Y0076123D01*
X0164441Y0077048D01*
X0163758Y0078612D01*
X0167522Y0080995D01*
X0172216Y0083119D01*
X0174663Y0083931D01*
X0177393Y0084616D01*
X0182973Y0085328D01*
X0185787Y0085351D01*
X0187144Y0085196D01*
X0189693Y0084239D01*
X0191798Y0082512D01*
X0193235Y0080199D01*
X0193482Y0079428D01*
X0193436Y0079310D01*
X0193693Y0078719D01*
X0193765Y0078408D01*
X0193461Y0077675D01*
X0193461Y0076525D01*
X0193901Y0075464D01*
X0194714Y0074651D01*
X0194812Y0074611D01*
X0195147Y0072945D01*
X0195872Y0065447D01*
X0195852Y0061679D01*
X0195819Y0060851D01*
X0195770Y0059605D01*
X0197032Y0055651D01*
X0199568Y0052366D01*
X0199568Y0052366D01*
X0199568Y0052366D01*
X0203074Y0050144D01*
X0207128Y0049253D01*
X0211242Y0049800D01*
X0211242Y0049800D01*
X0214923Y0051719D01*
X0215875Y0052759D01*
X0216365Y0052268D01*
X0217360Y0052268D01*
X0221681Y0056590D01*
X0221681Y0057585D01*
X0217638Y0061628D01*
X0216644Y0061628D01*
X0212322Y0057306D01*
X0212322Y0056312D01*
X0213014Y0055620D01*
X0212376Y0055035D01*
X0209981Y0053787D01*
X0207304Y0053431D01*
X0204666Y0054011D01*
X0202385Y0055456D01*
X0200734Y0057594D01*
X0199913Y0060167D01*
X0199848Y0061521D01*
X0199855Y0061697D01*
X0199881Y0062349D01*
X0200008Y0065565D01*
X0200008Y0065565D01*
X0199229Y0073622D01*
X0198794Y0075459D01*
X0198799Y0075464D01*
X0199238Y0076525D01*
X0199238Y0077675D01*
X0198799Y0078736D01*
X0197986Y0079549D01*
X0197631Y0079696D01*
X0197507Y0079981D01*
X0197087Y0081791D01*
X0194932Y0085259D01*
X0191776Y0087849D01*
X0191776Y0087849D01*
X0187953Y0089285D01*
X0186741Y0089323D01*
X0185913Y0089349D01*
X0185085Y0089375D01*
X0182776Y0089448D01*
X0176549Y0088653D01*
X0173566Y0087778D01*
X0173537Y0087769D01*
X0170790Y0086963D01*
X0165575Y0084603D01*
X0162008Y0082345D01*
X0161226Y0082651D01*
X0155625Y0080204D01*
X0155262Y0079279D01*
X0155553Y0078613D01*
X0154569Y0078309D01*
X0151899Y0078191D01*
X0149341Y0078968D01*
X0147189Y0080554D01*
X0145688Y0082765D01*
X0145009Y0085351D01*
X0145230Y0088014D01*
X0145674Y0089280D01*
X0145674Y0089280D01*
X0145779Y0089514D01*
X0146014Y0090036D01*
X0147319Y0092938D01*
X0147319Y0092939D01*
X0150232Y0100413D01*
X0150839Y0102237D01*
X0151236Y0102401D01*
X0152049Y0103214D01*
X0152488Y0104275D01*
X0152488Y0105425D01*
X0152169Y0106197D01*
X0152705Y0107780D01*
X0154222Y0115168D01*
X0154222Y0115168D01*
X0154811Y0122688D01*
X0154462Y0130223D01*
X0153950Y0133194D01*
X0153987Y0133254D01*
X0153810Y0134001D01*
X0153680Y0134756D01*
X0153622Y0134797D01*
X0151951Y0141856D01*
X0147417Y0157222D01*
X0144989Y0164055D01*
X0145015Y0164120D01*
X0144714Y0164827D01*
X0144457Y0165550D01*
X0144394Y0165580D01*
X0131943Y0194878D01*
X0131942Y0194880D01*
X0130835Y0197879D01*
X0129486Y0204121D01*
X0129327Y0210505D01*
X0130364Y0216807D01*
X0132559Y0222804D01*
X0135836Y0228285D01*
X0136584Y0229211D01*
X0136925Y0229211D01*
X0137986Y0229651D01*
X0138799Y0230464D01*
X0139238Y0231525D01*
X0139238Y0232249D01*
X0140191Y0233259D01*
X0142679Y0235605D01*
X0142829Y0235739D01*
X0142010Y0234647D01*
X0136945Y0227049D01*
X0135716Y0224964D01*
X0134714Y0224549D01*
X0133901Y0223736D01*
X0133461Y0222675D01*
X0133461Y0221525D01*
X0133529Y0221363D01*
X0132895Y0220352D01*
X0130636Y0214118D01*
X0130636Y0214118D01*
X0129739Y0207548D01*
X0130245Y0200936D01*
X0132131Y0194579D01*
X0135312Y0188761D01*
X0139646Y0183743D01*
X0139646Y0183743D01*
X0139646Y0183743D01*
X0144939Y0179749D01*
X0144939Y0179749D01*
X0150954Y0176958D01*
X0150954Y0176958D01*
X0157422Y0175496D01*
X0164052Y0175427D01*
X0164052Y0175427D01*
X0170549Y0176754D01*
X0176621Y0179419D01*
X0181996Y0183302D01*
X0184101Y0185640D01*
X0178608Y0177180D01*
X0172759Y0165570D01*
X0168212Y0153391D01*
X0165020Y0140789D01*
X0163222Y0127914D01*
X0162838Y0114920D01*
X0162838Y0114920D01*
X0163345Y0108579D01*
X0163356Y0108441D01*
X0163367Y0108307D01*
X0163422Y0107615D01*
X0163537Y0106183D01*
X0163537Y0106183D01*
X0164941Y0101875D01*
X0167309Y0098013D01*
X0170513Y0094809D01*
X0174375Y0092441D01*
X0178683Y0091037D01*
X0180901Y0090860D01*
X0187112Y0090114D01*
X0189026Y0089770D01*
X0192667Y0088422D01*
X0195894Y0086264D01*
X0198530Y0083413D01*
X0200430Y0080027D01*
X0201489Y0076291D01*
X0201646Y0072481D01*
X0200901Y0071736D01*
X0200461Y0070675D01*
X0200461Y0069525D01*
X0200901Y0068464D01*
X0201138Y0068227D01*
X0200979Y0066751D01*
X0200881Y0063999D01*
X0200881Y0063999D01*
X0200851Y0063171D01*
X0200801Y0061765D01*
X0201984Y0059212D01*
X0204194Y0057471D01*
X0204194Y0057471D01*
X0206953Y0056919D01*
X0206953Y0056919D01*
X0209664Y0057675D01*
X0210340Y0058294D01*
X0211062Y0057572D01*
X0212056Y0057572D01*
X0216378Y0061894D01*
X0216378Y0062888D01*
X0213720Y0065546D01*
X0214182Y0066008D01*
X0214182Y0067334D01*
X0213961Y0067555D01*
X0214182Y0067776D01*
X0214182Y0069102D01*
X0213245Y0070039D01*
X0211919Y0070039D01*
X0211698Y0069818D01*
X0211477Y0070039D01*
X0210152Y0070039D01*
X0209214Y0069102D01*
X0209214Y0067776D01*
X0209436Y0067555D01*
X0209214Y0067334D01*
X0209214Y0066008D01*
X0209816Y0065407D01*
X0207019Y0062610D01*
X0207019Y0061615D01*
X0207388Y0061246D01*
X0206798Y0061082D01*
X0205940Y0061254D01*
X0205253Y0061795D01*
X0204885Y0062589D01*
X0204849Y0063029D01*
X0205033Y0066462D01*
X0205154Y0067819D01*
X0205799Y0068464D01*
X0206238Y0069525D01*
X0206238Y0070675D01*
X0205799Y0071736D01*
X0205724Y0071811D01*
X0205780Y0072096D01*
X0205780Y0072096D01*
X0205580Y0076946D01*
X0205580Y0076946D01*
X0204256Y0081616D01*
X0204256Y0081616D01*
X0201881Y0085850D01*
X0198585Y0089413D01*
X0194550Y0092112D01*
X0189998Y0093797D01*
X0188411Y0093987D01*
X0186821Y0094178D01*
X0186766Y0094184D01*
X0182115Y0094743D01*
X0182085Y0094778D01*
X0181299Y0094840D01*
X0181178Y0094855D01*
X0179493Y0095090D01*
X0176108Y0096193D01*
X0173073Y0098055D01*
X0170555Y0100573D01*
X0168693Y0103608D01*
X0167590Y0106993D01*
X0167344Y0108759D01*
X0167015Y0115025D01*
X0167384Y0127563D01*
X0169120Y0139986D01*
X0172200Y0152146D01*
X0176587Y0163897D01*
X0182231Y0175100D01*
X0189062Y0185620D01*
X0192880Y0190560D01*
X0193871Y0191566D01*
X0193871Y0191566D01*
X0196249Y0193130D01*
X0198528Y0193837D01*
X0198714Y0193651D01*
X0199775Y0193211D01*
X0200925Y0193211D01*
X0201986Y0193651D01*
X0202585Y0194250D01*
X0204503Y0194383D01*
X0212448Y0195664D01*
X0216320Y0196656D01*
X0218221Y0197088D01*
X0221593Y0199152D01*
X0224126Y0202188D01*
X0225553Y0205875D01*
X0225553Y0205875D01*
X0225724Y0209825D01*
X0225724Y0209825D01*
X0224621Y0213622D01*
X0223622Y0215056D01*
X0224681Y0216115D01*
X0224681Y0217110D01*
X0220360Y0221431D01*
X0219365Y0221431D01*
X0215322Y0217388D01*
X0215322Y0216394D01*
X0219644Y0212072D01*
X0220638Y0212072D01*
X0220692Y0212126D01*
X0220866Y0211828D01*
X0221592Y0209328D01*
X0221480Y0206728D01*
X0220540Y0204300D01*
X0218872Y0202302D01*
X0216653Y0200942D01*
X0215420Y0200554D01*
X0215380Y0200544D01*
X0214599Y0200367D01*
X0214596Y0200362D01*
X0211614Y0199670D01*
X0204035Y0198447D01*
X0202252Y0198283D01*
X0201986Y0198549D01*
X0200925Y0198988D01*
X0199775Y0198988D01*
X0198714Y0198549D01*
X0198189Y0198024D01*
X0194481Y0196875D01*
X0191133Y0194673D01*
X0190352Y0193760D01*
X0190326Y0193757D01*
X0189815Y0193133D01*
X0189292Y0192521D01*
X0189294Y0192495D01*
X0187912Y0190804D01*
X0188084Y0191104D01*
X0189218Y0192858D01*
X0192003Y0195964D01*
X0195375Y0198421D01*
X0199184Y0200121D01*
X0203264Y0200990D01*
X0205269Y0201096D01*
X0205714Y0200651D01*
X0206775Y0200211D01*
X0207925Y0200211D01*
X0208986Y0200651D01*
X0209354Y0201019D01*
X0210850Y0200960D01*
X0213601Y0201069D01*
X0214429Y0201102D01*
X0214639Y0201110D01*
X0215719Y0201153D01*
X0217993Y0202377D01*
X0219498Y0204476D01*
X0219928Y0207022D01*
X0219928Y0207022D01*
X0219197Y0209499D01*
X0219197Y0209499D01*
X0218884Y0209840D01*
X0218884Y0209840D01*
X0218656Y0210090D01*
X0219378Y0210812D01*
X0219378Y0211806D01*
X0215056Y0216128D01*
X0214062Y0216128D01*
X0211404Y0213470D01*
X0210942Y0213932D01*
X0209616Y0213932D01*
X0209395Y0213711D01*
X0209174Y0213932D01*
X0207848Y0213932D01*
X0206911Y0212995D01*
X0206911Y0211669D01*
X0207132Y0211448D01*
X0206911Y0211227D01*
X0206911Y0209902D01*
X0207848Y0208964D01*
X0209174Y0208964D01*
X0209395Y0209186D01*
X0209616Y0208964D01*
X0210942Y0208964D01*
X0211543Y0209566D01*
X0214340Y0206768D01*
X0215335Y0206768D01*
X0215686Y0207120D01*
X0215788Y0206774D01*
X0215669Y0206071D01*
X0215254Y0205491D01*
X0214626Y0205153D01*
X0214271Y0205098D01*
X0210850Y0205031D01*
X0209477Y0205058D01*
X0208986Y0205549D01*
X0207925Y0205988D01*
X0206775Y0205988D01*
X0205714Y0205549D01*
X0205265Y0205100D01*
X0202831Y0205100D01*
X0197904Y0204050D01*
X0193304Y0201997D01*
X0189233Y0199030D01*
X0185870Y0195280D01*
X0185028Y0193814D01*
X0184777Y0193378D01*
X0184616Y0193096D01*
X0184616Y0193096D01*
X0183053Y0190680D01*
X0179206Y0186409D01*
X0174547Y0183044D01*
X0169285Y0180734D01*
X0163654Y0179583D01*
X0157907Y0179643D01*
X0152301Y0180911D01*
X0147088Y0183330D01*
X0142500Y0186792D01*
X0138744Y0191141D01*
X0135986Y0196184D01*
X0134352Y0201694D01*
X0134542Y0201053D02*
X0145944Y0201053D01*
X0145713Y0201618D02*
X0146245Y0200314D01*
X0147127Y0199943D01*
X0146450Y0198309D01*
X0146450Y0196422D01*
X0147173Y0194679D01*
X0148507Y0193345D01*
X0150250Y0192623D01*
X0152137Y0192623D01*
X0153881Y0193345D01*
X0155215Y0194679D01*
X0155937Y0196422D01*
X0155937Y0198309D01*
X0155215Y0200053D01*
X0153881Y0201387D01*
X0152293Y0202045D01*
X0152492Y0202518D01*
X0154125Y0201841D01*
X0156012Y0201841D01*
X0157756Y0202563D01*
X0159090Y0203898D01*
X0159812Y0205641D01*
X0159812Y0207528D01*
X0159090Y0209271D01*
X0157756Y0210606D01*
X0156012Y0211328D01*
X0154125Y0211328D01*
X0152382Y0210606D01*
X0151048Y0209271D01*
X0150390Y0207683D01*
X0149500Y0208057D01*
X0148197Y0207525D01*
X0147614Y0206139D01*
X0146227Y0206722D01*
X0144923Y0206189D01*
X0144377Y0204891D01*
X0144909Y0203587D01*
X0146296Y0203004D01*
X0145713Y0201618D01*
X0145236Y0203450D02*
X0134218Y0203450D01*
X0134126Y0204648D02*
X0144476Y0204648D01*
X0144779Y0205847D02*
X0134034Y0205847D01*
X0133942Y0207045D02*
X0147995Y0207045D01*
X0150622Y0208244D02*
X0134025Y0208244D01*
X0134189Y0209442D02*
X0151219Y0209442D01*
X0152467Y0210641D02*
X0134352Y0210641D01*
X0134516Y0211839D02*
X0161919Y0211839D01*
X0161919Y0210920D02*
X0162822Y0208741D01*
X0164491Y0207072D01*
X0166670Y0206169D01*
X0169030Y0206169D01*
X0171209Y0207072D01*
X0172878Y0208741D01*
X0173781Y0210920D01*
X0173781Y0213280D01*
X0172878Y0215459D01*
X0171209Y0217128D01*
X0169030Y0218031D01*
X0166670Y0218031D01*
X0164491Y0217128D01*
X0162822Y0215459D01*
X0161919Y0213280D01*
X0161919Y0210920D01*
X0162035Y0210641D02*
X0157670Y0210641D01*
X0158919Y0209442D02*
X0162531Y0209442D01*
X0163319Y0208244D02*
X0159516Y0208244D01*
X0159812Y0207045D02*
X0164555Y0207045D01*
X0163530Y0204031D02*
X0161170Y0204031D01*
X0158991Y0203128D01*
X0157322Y0201459D01*
X0156419Y0199280D01*
X0156419Y0196920D01*
X0157322Y0194741D01*
X0158991Y0193072D01*
X0161170Y0192169D01*
X0163530Y0192169D01*
X0165709Y0193072D01*
X0167378Y0194741D01*
X0168281Y0196920D01*
X0168281Y0199280D01*
X0167378Y0201459D01*
X0165709Y0203128D01*
X0163530Y0204031D01*
X0164932Y0203450D02*
X0171236Y0203450D01*
X0171532Y0203601D02*
X0170811Y0203233D01*
X0170156Y0202757D01*
X0169583Y0202185D01*
X0169107Y0201530D01*
X0168927Y0201176D01*
X0173301Y0199337D01*
X0173003Y0198629D01*
X0168629Y0200468D01*
X0168490Y0200039D01*
X0168363Y0199239D01*
X0168363Y0198429D01*
X0168490Y0197630D01*
X0168740Y0196860D01*
X0169107Y0196138D01*
X0169583Y0195484D01*
X0170156Y0194911D01*
X0170457Y0194692D01*
X0170036Y0194759D01*
X0169226Y0194759D01*
X0168427Y0194632D01*
X0167657Y0194382D01*
X0166935Y0194014D01*
X0166280Y0193539D01*
X0165708Y0192966D01*
X0165232Y0192311D01*
X0165052Y0191957D01*
X0169426Y0190119D01*
X0171264Y0194493D01*
X0173003Y0198629D01*
X0173712Y0198331D01*
X0174009Y0199039D01*
X0178383Y0197201D01*
X0178523Y0197630D01*
X0178649Y0198429D01*
X0178649Y0199239D01*
X0178523Y0200039D01*
X0178273Y0200808D01*
X0177905Y0201530D01*
X0177429Y0202185D01*
X0176857Y0202757D01*
X0176202Y0203233D01*
X0175848Y0203413D01*
X0174009Y0199040D01*
X0173301Y0199337D01*
X0175140Y0203711D01*
X0174711Y0203851D01*
X0173911Y0203977D01*
X0173101Y0203977D01*
X0172302Y0203851D01*
X0171532Y0203601D01*
X0169650Y0202251D02*
X0166586Y0202251D01*
X0167546Y0201053D02*
X0169220Y0201053D01*
X0168460Y0199854D02*
X0168043Y0199854D01*
X0168281Y0198656D02*
X0168363Y0198656D01*
X0168281Y0197457D02*
X0168546Y0197457D01*
X0169046Y0196259D02*
X0168007Y0196259D01*
X0167510Y0195060D02*
X0170006Y0195060D01*
X0171503Y0195060D02*
X0172337Y0195060D01*
X0171873Y0193957D02*
X0170134Y0189821D01*
X0169426Y0190119D01*
X0169128Y0189410D01*
X0169836Y0189112D01*
X0167998Y0184738D01*
X0168427Y0184599D01*
X0169226Y0184472D01*
X0170036Y0184472D01*
X0170835Y0184599D01*
X0171605Y0184849D01*
X0172327Y0185217D01*
X0172982Y0185692D01*
X0173554Y0186265D01*
X0174030Y0186920D01*
X0174210Y0187274D01*
X0169836Y0189112D01*
X0170134Y0189821D01*
X0174508Y0187982D01*
X0174648Y0188411D01*
X0174774Y0189211D01*
X0174774Y0190020D01*
X0174648Y0190820D01*
X0174398Y0191590D01*
X0174030Y0192311D01*
X0173554Y0192966D01*
X0172982Y0193539D01*
X0172680Y0193758D01*
X0173101Y0193691D01*
X0173911Y0193691D01*
X0174711Y0193817D01*
X0175481Y0194068D01*
X0176202Y0194435D01*
X0176857Y0194911D01*
X0177429Y0195484D01*
X0177905Y0196138D01*
X0178085Y0196492D01*
X0173712Y0198331D01*
X0171873Y0193957D01*
X0171873Y0193957D01*
X0171833Y0193862D02*
X0170999Y0193862D01*
X0171329Y0192663D02*
X0170495Y0192663D01*
X0170825Y0191465D02*
X0169992Y0191465D01*
X0170321Y0190266D02*
X0169488Y0190266D01*
X0169075Y0190266D02*
X0167091Y0190266D01*
X0166223Y0191465D02*
X0138567Y0191465D01*
X0137911Y0192663D02*
X0150152Y0192663D01*
X0152236Y0192663D02*
X0159978Y0192663D01*
X0158201Y0193862D02*
X0154398Y0193862D01*
X0155373Y0195060D02*
X0157190Y0195060D01*
X0156693Y0196259D02*
X0155869Y0196259D01*
X0155937Y0197457D02*
X0156419Y0197457D01*
X0156419Y0198656D02*
X0155794Y0198656D01*
X0155297Y0199854D02*
X0156657Y0199854D01*
X0157154Y0201053D02*
X0154215Y0201053D01*
X0153135Y0202251D02*
X0152380Y0202251D01*
X0157003Y0202251D02*
X0158114Y0202251D01*
X0158642Y0203450D02*
X0159768Y0203450D01*
X0159401Y0204648D02*
X0200712Y0204648D01*
X0197904Y0204050D02*
X0197904Y0204050D01*
X0196559Y0203450D02*
X0175030Y0203450D01*
X0175359Y0202251D02*
X0174526Y0202251D01*
X0174856Y0201053D02*
X0174022Y0201053D01*
X0174352Y0199854D02*
X0173518Y0199854D01*
X0173848Y0198656D02*
X0174922Y0198656D01*
X0175790Y0197457D02*
X0177773Y0197457D01*
X0178467Y0197457D02*
X0187823Y0197457D01*
X0188898Y0198656D02*
X0178649Y0198656D01*
X0178552Y0199854D02*
X0190364Y0199854D01*
X0189233Y0199030D02*
X0189233Y0199030D01*
X0192009Y0201053D02*
X0178148Y0201053D01*
X0177363Y0202251D02*
X0193874Y0202251D01*
X0193304Y0201997D02*
X0193304Y0201997D01*
X0195901Y0198656D02*
X0198972Y0198656D01*
X0198586Y0199854D02*
X0212410Y0199854D01*
X0213197Y0201053D02*
X0216833Y0201053D01*
X0217759Y0202251D02*
X0218791Y0202251D01*
X0217993Y0202377D02*
X0217993Y0202377D01*
X0218762Y0203450D02*
X0219831Y0203450D01*
X0219498Y0204476D02*
X0219498Y0204476D01*
X0219527Y0204648D02*
X0220675Y0204648D01*
X0221139Y0205847D02*
X0219730Y0205847D01*
X0219921Y0207045D02*
X0221494Y0207045D01*
X0221545Y0208244D02*
X0219568Y0208244D01*
X0219214Y0209442D02*
X0221559Y0209442D01*
X0221211Y0210641D02*
X0219207Y0210641D01*
X0219345Y0211839D02*
X0220859Y0211839D01*
X0218678Y0213038D02*
X0218146Y0213038D01*
X0217479Y0214237D02*
X0216948Y0214237D01*
X0216281Y0215435D02*
X0215749Y0215435D01*
X0215322Y0216634D02*
X0171704Y0216634D01*
X0171707Y0217795D02*
X0171999Y0217989D01*
X0231672Y0228731D01*
X0219754Y0171524D01*
X0219547Y0171217D01*
X0219616Y0170862D01*
X0219542Y0170507D01*
X0219745Y0170198D01*
X0219815Y0169835D01*
X0220115Y0169632D01*
X0220314Y0169329D01*
X0220676Y0169254D01*
X0268324Y0137092D01*
X0219436Y0103705D01*
X0219095Y0103641D01*
X0218877Y0103324D01*
X0218560Y0103107D01*
X0218495Y0102765D01*
X0218299Y0102479D01*
X0218370Y0102101D01*
X0218299Y0101723D01*
X0218495Y0101436D01*
X0229223Y0044219D01*
X0170747Y0054960D01*
X0170447Y0055157D01*
X0170081Y0055082D01*
X0169715Y0055149D01*
X0169419Y0054945D01*
X0169067Y0054873D01*
X0168862Y0054561D01*
X0168555Y0054350D01*
X0168490Y0053997D01*
X0136324Y0005152D01*
X0102955Y0054014D01*
X0102891Y0054355D01*
X0102574Y0054573D01*
X0102357Y0054890D01*
X0102015Y0054955D01*
X0101729Y0055151D01*
X0101351Y0055080D01*
X0100973Y0055151D01*
X0100686Y0054955D01*
X0043532Y0044239D01*
X0055447Y0101431D01*
X0055655Y0101743D01*
X0055585Y0102093D01*
X0055658Y0102443D01*
X0055452Y0102756D01*
X0055379Y0103124D01*
X0055082Y0103322D01*
X0054886Y0103621D01*
X0054519Y0103697D01*
X0004415Y0137100D01*
X0054499Y0170490D01*
X0054844Y0170552D01*
X0055062Y0170865D01*
X0055379Y0171076D01*
X0055448Y0171420D01*
X0055648Y0171708D01*
X0055580Y0172083D01*
X0055655Y0172457D01*
X0055460Y0172749D01*
X0044729Y0232368D01*
X0101921Y0219261D01*
X0102253Y0219043D01*
X0102581Y0219110D01*
X0102907Y0219036D01*
X0103243Y0219247D01*
X0103633Y0219327D01*
X0103816Y0219606D01*
X0104100Y0219784D01*
X0104188Y0220171D01*
X0136359Y0269022D01*
X0169739Y0218951D01*
X0169802Y0218606D01*
X0170115Y0218388D01*
X0170326Y0218071D01*
X0170670Y0218002D01*
X0170958Y0217802D01*
X0171333Y0217870D01*
X0171707Y0217795D01*
X0171763Y0217832D02*
X0215766Y0217832D01*
X0216964Y0219031D02*
X0177783Y0219031D01*
X0172888Y0215435D02*
X0213369Y0215435D01*
X0212170Y0214237D02*
X0173384Y0214237D01*
X0173781Y0213038D02*
X0206954Y0213038D01*
X0206911Y0211839D02*
X0173781Y0211839D01*
X0173665Y0210641D02*
X0206911Y0210641D01*
X0207370Y0209442D02*
X0173169Y0209442D01*
X0172381Y0208244D02*
X0212865Y0208244D01*
X0211667Y0209442D02*
X0211420Y0209442D01*
X0214064Y0207045D02*
X0171145Y0207045D01*
X0172071Y0199854D02*
X0170088Y0199854D01*
X0172939Y0198656D02*
X0173014Y0198656D01*
X0173344Y0197457D02*
X0172511Y0197457D01*
X0172840Y0196259D02*
X0172007Y0196259D01*
X0174847Y0193862D02*
X0185055Y0193862D01*
X0185028Y0193814D02*
X0185028Y0193814D01*
X0184336Y0192663D02*
X0173774Y0192663D01*
X0174438Y0191465D02*
X0183560Y0191465D01*
X0182680Y0190266D02*
X0174735Y0190266D01*
X0174752Y0189068D02*
X0181601Y0189068D01*
X0180521Y0187869D02*
X0172794Y0187869D01*
X0171926Y0189068D02*
X0169942Y0189068D01*
X0169818Y0189068D02*
X0168984Y0189068D01*
X0169128Y0189410D02*
X0167289Y0185036D01*
X0166935Y0185217D01*
X0166280Y0185692D01*
X0165708Y0186265D01*
X0165232Y0186920D01*
X0164865Y0187641D01*
X0164614Y0188411D01*
X0164488Y0189211D01*
X0164488Y0190020D01*
X0164614Y0190820D01*
X0164754Y0191249D01*
X0169128Y0189410D01*
X0169314Y0187869D02*
X0168480Y0187869D01*
X0168810Y0186671D02*
X0167976Y0186671D01*
X0168306Y0185472D02*
X0167473Y0185472D01*
X0166583Y0185472D02*
X0144249Y0185472D01*
X0145837Y0184274D02*
X0176250Y0184274D01*
X0177909Y0185472D02*
X0172679Y0185472D01*
X0173849Y0186671D02*
X0179442Y0186671D01*
X0182871Y0184274D02*
X0183214Y0184274D01*
X0183951Y0185472D02*
X0183993Y0185472D01*
X0182436Y0183075D02*
X0181682Y0183075D01*
X0181996Y0183302D02*
X0181996Y0183302D01*
X0181658Y0181877D02*
X0180023Y0181877D01*
X0180880Y0180678D02*
X0178364Y0180678D01*
X0176705Y0179480D02*
X0180101Y0179480D01*
X0179323Y0178281D02*
X0174028Y0178281D01*
X0176621Y0179419D02*
X0176621Y0179419D01*
X0178559Y0177083D02*
X0171297Y0177083D01*
X0170549Y0176754D02*
X0170549Y0176754D01*
X0169011Y0180678D02*
X0153331Y0180678D01*
X0150220Y0181877D02*
X0171888Y0181877D01*
X0174591Y0183075D02*
X0147637Y0183075D01*
X0145520Y0179480D02*
X0138487Y0179480D01*
X0137977Y0180678D02*
X0143708Y0180678D01*
X0142120Y0181877D02*
X0137468Y0181877D01*
X0136959Y0183075D02*
X0140532Y0183075D01*
X0139188Y0184274D02*
X0136449Y0184274D01*
X0135940Y0185472D02*
X0138153Y0185472D01*
X0137118Y0186671D02*
X0135431Y0186671D01*
X0134921Y0187869D02*
X0136083Y0187869D01*
X0135312Y0188761D02*
X0135312Y0188761D01*
X0135145Y0189068D02*
X0134412Y0189068D01*
X0134489Y0190266D02*
X0133902Y0190266D01*
X0133834Y0191465D02*
X0133393Y0191465D01*
X0133179Y0192663D02*
X0132884Y0192663D01*
X0132523Y0193862D02*
X0132374Y0193862D01*
X0132131Y0194579D02*
X0132131Y0194579D01*
X0131988Y0195060D02*
X0131875Y0195060D01*
X0131633Y0196259D02*
X0131433Y0196259D01*
X0131277Y0197457D02*
X0130990Y0197457D01*
X0130922Y0198656D02*
X0130667Y0198656D01*
X0130566Y0199854D02*
X0130408Y0199854D01*
X0130245Y0200936D02*
X0130245Y0200936D01*
X0130236Y0201053D02*
X0130149Y0201053D01*
X0130145Y0202251D02*
X0129890Y0202251D01*
X0130053Y0203450D02*
X0129631Y0203450D01*
X0129473Y0204648D02*
X0129961Y0204648D01*
X0129870Y0205847D02*
X0129443Y0205847D01*
X0129413Y0207045D02*
X0129778Y0207045D01*
X0129739Y0207548D02*
X0129739Y0207548D01*
X0129834Y0208244D02*
X0129384Y0208244D01*
X0129354Y0209442D02*
X0129998Y0209442D01*
X0130162Y0210641D02*
X0129350Y0210641D01*
X0129547Y0211839D02*
X0130325Y0211839D01*
X0130489Y0213038D02*
X0129744Y0213038D01*
X0129941Y0214237D02*
X0130679Y0214237D01*
X0131113Y0215435D02*
X0130138Y0215435D01*
X0130335Y0216634D02*
X0131548Y0216634D01*
X0130364Y0216807D02*
X0130364Y0216807D01*
X0130739Y0217832D02*
X0131982Y0217832D01*
X0132416Y0219031D02*
X0131178Y0219031D01*
X0131617Y0220229D02*
X0132850Y0220229D01*
X0132895Y0220352D02*
X0132895Y0220352D01*
X0133502Y0221428D02*
X0132055Y0221428D01*
X0132494Y0222626D02*
X0133461Y0222626D01*
X0133169Y0223825D02*
X0133990Y0223825D01*
X0133886Y0225023D02*
X0135751Y0225023D01*
X0136457Y0226222D02*
X0134602Y0226222D01*
X0135319Y0227420D02*
X0137192Y0227420D01*
X0137991Y0228619D02*
X0136105Y0228619D01*
X0138152Y0229817D02*
X0138790Y0229817D01*
X0139027Y0231016D02*
X0139589Y0231016D01*
X0139238Y0232214D02*
X0140388Y0232214D01*
X0140353Y0233413D02*
X0141187Y0233413D01*
X0141625Y0234611D02*
X0141986Y0234611D01*
X0142010Y0234647D02*
X0142010Y0234647D01*
X0144253Y0237637D02*
X0144253Y0237637D01*
X0144336Y0238207D02*
X0144680Y0238207D01*
X0144750Y0238300D02*
X0144750Y0238300D01*
X0144598Y0238866D02*
X0144598Y0238866D01*
X0144550Y0239405D02*
X0145382Y0239405D01*
X0145719Y0240604D02*
X0144443Y0240604D01*
X0144369Y0241440D02*
X0144369Y0241440D01*
X0144144Y0241802D02*
X0145914Y0241802D01*
X0145801Y0243001D02*
X0143401Y0243001D01*
X0142088Y0244199D02*
X0145470Y0244199D01*
X0144870Y0245398D02*
X0140109Y0245398D01*
X0139722Y0246596D02*
X0143718Y0246596D01*
X0141494Y0247795D02*
X0139913Y0247795D01*
X0143575Y0251390D02*
X0148113Y0251390D01*
X0148912Y0250192D02*
X0145864Y0250192D01*
X0145265Y0250737D02*
X0145265Y0250737D01*
X0147181Y0248993D02*
X0149711Y0248993D01*
X0150510Y0247795D02*
X0148260Y0247795D01*
X0148859Y0246596D02*
X0151309Y0246596D01*
X0152108Y0245398D02*
X0149459Y0245398D01*
X0149751Y0244813D02*
X0149751Y0244813D01*
X0149809Y0244199D02*
X0152907Y0244199D01*
X0153706Y0243001D02*
X0149923Y0243001D01*
X0150037Y0241802D02*
X0154505Y0241802D01*
X0155304Y0240604D02*
X0149983Y0240604D01*
X0150108Y0241050D02*
X0150108Y0241050D01*
X0149645Y0239405D02*
X0156103Y0239405D01*
X0156902Y0238207D02*
X0149308Y0238207D01*
X0149084Y0237412D02*
X0149084Y0237412D01*
X0148781Y0237008D02*
X0157701Y0237008D01*
X0158500Y0235810D02*
X0147884Y0235810D01*
X0147950Y0235900D02*
X0147950Y0235900D01*
X0148447Y0236563D02*
X0148447Y0236563D01*
X0147011Y0234611D02*
X0159299Y0234611D01*
X0160098Y0233413D02*
X0146138Y0233413D01*
X0145270Y0232214D02*
X0160897Y0232214D01*
X0161696Y0231016D02*
X0144471Y0231016D01*
X0143672Y0229817D02*
X0162495Y0229817D01*
X0163294Y0228619D02*
X0142873Y0228619D01*
X0142074Y0227420D02*
X0164093Y0227420D01*
X0164892Y0226222D02*
X0141275Y0226222D01*
X0140476Y0225023D02*
X0165691Y0225023D01*
X0166490Y0223825D02*
X0139739Y0223825D01*
X0139238Y0222626D02*
X0167289Y0222626D01*
X0168088Y0221428D02*
X0139198Y0221428D01*
X0138564Y0220229D02*
X0168887Y0220229D01*
X0169686Y0219031D02*
X0136931Y0219031D01*
X0136399Y0217832D02*
X0166191Y0217832D01*
X0163996Y0216634D02*
X0135964Y0216634D01*
X0135530Y0215435D02*
X0162812Y0215435D01*
X0162316Y0214237D02*
X0135096Y0214237D01*
X0134680Y0213038D02*
X0161919Y0213038D01*
X0159812Y0205847D02*
X0206434Y0205847D01*
X0208266Y0205847D02*
X0215509Y0205847D01*
X0215612Y0207045D02*
X0215708Y0207045D01*
X0214271Y0205098D02*
X0214271Y0205098D01*
X0218825Y0197457D02*
X0225157Y0197457D01*
X0224907Y0196259D02*
X0214770Y0196259D01*
X0212448Y0195664D02*
X0212448Y0195664D01*
X0208705Y0195060D02*
X0224657Y0195060D01*
X0224408Y0193862D02*
X0202197Y0193862D01*
X0204503Y0194383D02*
X0204503Y0194383D01*
X0205329Y0198656D02*
X0201728Y0198656D01*
X0204453Y0201053D02*
X0205312Y0201053D01*
X0196360Y0197457D02*
X0194053Y0197457D01*
X0194481Y0196875D02*
X0194481Y0196875D01*
X0193544Y0196259D02*
X0192408Y0196259D01*
X0191722Y0195060D02*
X0191193Y0195060D01*
X0191133Y0194673D02*
X0191133Y0194673D01*
X0190439Y0193862D02*
X0190118Y0193862D01*
X0189414Y0192663D02*
X0189092Y0192663D01*
X0188452Y0191465D02*
X0188317Y0191465D01*
X0190800Y0187869D02*
X0223159Y0187869D01*
X0222909Y0186671D02*
X0189874Y0186671D01*
X0188966Y0185472D02*
X0222660Y0185472D01*
X0222410Y0184274D02*
X0188188Y0184274D01*
X0187410Y0183075D02*
X0222160Y0183075D01*
X0221911Y0181877D02*
X0186632Y0181877D01*
X0185853Y0180678D02*
X0221661Y0180678D01*
X0221411Y0179480D02*
X0185075Y0179480D01*
X0184297Y0178281D02*
X0221162Y0178281D01*
X0220912Y0177083D02*
X0183518Y0177083D01*
X0182740Y0175884D02*
X0220662Y0175884D01*
X0220413Y0174686D02*
X0182022Y0174686D01*
X0181418Y0173487D02*
X0220163Y0173487D01*
X0219913Y0172289D02*
X0180815Y0172289D01*
X0180211Y0171090D02*
X0219572Y0171090D01*
X0219804Y0169892D02*
X0179607Y0169892D01*
X0179003Y0168693D02*
X0221507Y0168693D01*
X0223282Y0167495D02*
X0178400Y0167495D01*
X0177796Y0166296D02*
X0225058Y0166296D01*
X0226834Y0165098D02*
X0177192Y0165098D01*
X0176588Y0163899D02*
X0228609Y0163899D01*
X0230385Y0162701D02*
X0176141Y0162701D01*
X0175693Y0161502D02*
X0232160Y0161502D01*
X0233936Y0160303D02*
X0175246Y0160303D01*
X0174798Y0159105D02*
X0235711Y0159105D01*
X0237487Y0157906D02*
X0174351Y0157906D01*
X0173903Y0156708D02*
X0239263Y0156708D01*
X0241038Y0155509D02*
X0173456Y0155509D01*
X0173008Y0154311D02*
X0242814Y0154311D01*
X0244589Y0153112D02*
X0172560Y0153112D01*
X0172141Y0151914D02*
X0246365Y0151914D01*
X0248140Y0150715D02*
X0171837Y0150715D01*
X0171534Y0149517D02*
X0249916Y0149517D01*
X0251692Y0148318D02*
X0171230Y0148318D01*
X0170927Y0147120D02*
X0253467Y0147120D01*
X0255243Y0145921D02*
X0170623Y0145921D01*
X0170319Y0144723D02*
X0257018Y0144723D01*
X0258794Y0143524D02*
X0239688Y0143524D01*
X0239513Y0143700D02*
X0238187Y0143700D01*
X0237250Y0142763D01*
X0237250Y0142450D01*
X0236937Y0142450D01*
X0236000Y0141513D01*
X0236000Y0140187D01*
X0236937Y0139250D01*
X0237250Y0139250D01*
X0237250Y0138937D01*
X0238187Y0138000D01*
X0239038Y0138000D01*
X0239038Y0134044D01*
X0239741Y0133341D01*
X0239896Y0133341D01*
X0239377Y0133019D01*
X0238714Y0132960D01*
X0238095Y0133206D01*
X0237845Y0133429D01*
X0237699Y0133593D01*
X0237294Y0134048D01*
X0235414Y0136164D01*
X0235414Y0136164D01*
X0234238Y0137208D01*
X0234238Y0137675D01*
X0233799Y0138736D01*
X0232986Y0139549D01*
X0231925Y0139988D01*
X0230775Y0139988D01*
X0229714Y0139549D01*
X0228901Y0138736D01*
X0228461Y0137675D01*
X0228461Y0136525D01*
X0228901Y0135464D01*
X0229714Y0134651D01*
X0230775Y0134211D01*
X0231499Y0134211D01*
X0232509Y0133259D01*
X0234855Y0130771D01*
X0235406Y0130152D01*
X0235676Y0129847D01*
X0233556Y0131134D01*
X0226148Y0136072D01*
X0224238Y0137467D01*
X0224238Y0137675D01*
X0223799Y0138736D01*
X0222986Y0139549D01*
X0221925Y0139988D01*
X0220775Y0139988D01*
X0219714Y0139549D01*
X0218901Y0138736D01*
X0218461Y0137675D01*
X0218461Y0136525D01*
X0218901Y0135464D01*
X0219714Y0134651D01*
X0220775Y0134211D01*
X0221862Y0134211D01*
X0223797Y0132756D01*
X0223797Y0132756D01*
X0231398Y0127688D01*
X0234623Y0125795D01*
X0235337Y0125375D01*
X0235800Y0125104D01*
X0236052Y0124956D01*
X0236946Y0124431D01*
X0240605Y0123710D01*
X0240605Y0123710D01*
X0244298Y0124238D01*
X0247610Y0125955D01*
X0250169Y0128669D01*
X0251688Y0132075D01*
X0251774Y0133108D01*
X0251774Y0133108D01*
X0251794Y0133341D01*
X0252959Y0133341D01*
X0253662Y0134044D01*
X0253662Y0140156D01*
X0252959Y0140859D01*
X0247241Y0140859D01*
X0246538Y0140156D01*
X0246538Y0134044D01*
X0247241Y0133341D01*
X0247701Y0133341D01*
X0247662Y0133109D01*
X0246709Y0130974D01*
X0245105Y0129273D01*
X0243029Y0128196D01*
X0240715Y0127866D01*
X0238421Y0128318D01*
X0237363Y0128825D01*
X0237363Y0128825D01*
X0235806Y0129769D01*
X0238116Y0128852D01*
X0240690Y0129081D01*
X0242886Y0130442D01*
X0242886Y0130442D01*
X0242886Y0130442D01*
X0244236Y0132646D01*
X0244236Y0132646D01*
X0244274Y0133108D01*
X0244274Y0133108D01*
X0244294Y0133341D01*
X0245459Y0133341D01*
X0246162Y0134044D01*
X0246162Y0140156D01*
X0245459Y0140859D01*
X0241700Y0140859D01*
X0241700Y0141513D01*
X0240763Y0142450D01*
X0240450Y0142450D01*
X0240450Y0142763D01*
X0239513Y0143700D01*
X0238012Y0143524D02*
X0170016Y0143524D01*
X0169712Y0142326D02*
X0236813Y0142326D01*
X0236000Y0141127D02*
X0169409Y0141127D01*
X0169112Y0139929D02*
X0220631Y0139929D01*
X0222069Y0139929D02*
X0230631Y0139929D01*
X0232069Y0139929D02*
X0236258Y0139929D01*
X0237457Y0138730D02*
X0233801Y0138730D01*
X0234238Y0137532D02*
X0239038Y0137532D01*
X0239038Y0136333D02*
X0235223Y0136333D01*
X0236328Y0135135D02*
X0239038Y0135135D01*
X0239145Y0133936D02*
X0237394Y0133936D01*
X0237294Y0134048D02*
X0237294Y0134048D01*
X0237845Y0133429D02*
X0237845Y0133429D01*
X0235238Y0130341D02*
X0234863Y0130341D01*
X0235406Y0130152D02*
X0235406Y0130152D01*
X0236839Y0129142D02*
X0237385Y0129142D01*
X0238116Y0128852D02*
X0238116Y0128852D01*
X0240319Y0127944D02*
X0241260Y0127944D01*
X0240690Y0129081D02*
X0240690Y0129081D01*
X0240789Y0129142D02*
X0244853Y0129142D01*
X0246112Y0130341D02*
X0242722Y0130341D01*
X0243558Y0131539D02*
X0246961Y0131539D01*
X0247496Y0132738D02*
X0244243Y0132738D01*
X0246055Y0133936D02*
X0246645Y0133936D01*
X0246538Y0135135D02*
X0246162Y0135135D01*
X0246162Y0136333D02*
X0246538Y0136333D01*
X0246538Y0137532D02*
X0246162Y0137532D01*
X0246162Y0138730D02*
X0246538Y0138730D01*
X0246538Y0139929D02*
X0246162Y0139929D01*
X0241700Y0141127D02*
X0262345Y0141127D01*
X0264121Y0139929D02*
X0253662Y0139929D01*
X0253662Y0138730D02*
X0265896Y0138730D01*
X0267672Y0137532D02*
X0253662Y0137532D01*
X0253662Y0136333D02*
X0267213Y0136333D01*
X0265458Y0135135D02*
X0253662Y0135135D01*
X0253555Y0133936D02*
X0263703Y0133936D01*
X0261948Y0132738D02*
X0251743Y0132738D01*
X0251688Y0132075D02*
X0251688Y0132075D01*
X0251449Y0131539D02*
X0260193Y0131539D01*
X0258438Y0130341D02*
X0250914Y0130341D01*
X0250380Y0129142D02*
X0256683Y0129142D01*
X0254928Y0127944D02*
X0249485Y0127944D01*
X0250169Y0128669D02*
X0250169Y0128669D01*
X0248355Y0126745D02*
X0253173Y0126745D01*
X0251418Y0125547D02*
X0246823Y0125547D01*
X0247610Y0125955D02*
X0247610Y0125955D01*
X0249663Y0124348D02*
X0244511Y0124348D01*
X0244298Y0124238D02*
X0244298Y0124238D01*
X0246153Y0121951D02*
X0167219Y0121951D01*
X0167184Y0120753D02*
X0244398Y0120753D01*
X0242643Y0119554D02*
X0167148Y0119554D01*
X0167113Y0118356D02*
X0240888Y0118356D01*
X0239134Y0117157D02*
X0167077Y0117157D01*
X0167042Y0115959D02*
X0237379Y0115959D01*
X0235624Y0114760D02*
X0167028Y0114760D01*
X0167091Y0113562D02*
X0233869Y0113562D01*
X0232114Y0112363D02*
X0167154Y0112363D01*
X0167217Y0111165D02*
X0230359Y0111165D01*
X0228604Y0109966D02*
X0167280Y0109966D01*
X0167343Y0108768D02*
X0226849Y0108768D01*
X0225094Y0107569D02*
X0167510Y0107569D01*
X0167793Y0106370D02*
X0223339Y0106370D01*
X0221584Y0105172D02*
X0168183Y0105172D01*
X0168574Y0103973D02*
X0219829Y0103973D01*
X0218497Y0102775D02*
X0169204Y0102775D01*
X0169939Y0101576D02*
X0218399Y0101576D01*
X0218693Y0100378D02*
X0170749Y0100378D01*
X0171948Y0099179D02*
X0218918Y0099179D01*
X0219143Y0097981D02*
X0173193Y0097981D01*
X0175147Y0096782D02*
X0219367Y0096782D01*
X0219592Y0095584D02*
X0177977Y0095584D01*
X0175763Y0091988D02*
X0160451Y0091988D01*
X0159896Y0092206D02*
X0159609Y0092081D01*
X0159484Y0092367D01*
X0158250Y0092851D01*
X0157035Y0092320D01*
X0156552Y0091086D01*
X0156677Y0090800D01*
X0156390Y0090674D01*
X0155907Y0089440D01*
X0156247Y0088661D01*
X0152622Y0087077D01*
X0152259Y0086152D01*
X0152665Y0085224D01*
X0152510Y0085224D01*
X0152012Y0085512D01*
X0151724Y0086010D01*
X0151723Y0086585D01*
X0151834Y0086853D01*
X0151834Y0086853D01*
X0153028Y0088931D01*
X0154544Y0093478D01*
X0154544Y0093478D01*
X0154576Y0093741D01*
X0155299Y0094464D01*
X0155738Y0095525D01*
X0155738Y0096675D01*
X0155299Y0097736D01*
X0154486Y0098549D01*
X0153425Y0098988D01*
X0152275Y0098988D01*
X0151214Y0098549D01*
X0150401Y0097736D01*
X0149961Y0096675D01*
X0149961Y0095525D01*
X0150401Y0094464D01*
X0150514Y0094351D01*
X0149269Y0090617D01*
X0148366Y0088847D01*
X0147953Y0088129D01*
X0147953Y0088129D01*
X0147684Y0087661D01*
X0147687Y0084925D01*
X0149056Y0082556D01*
X0149056Y0082556D01*
X0149056Y0082556D01*
X0151425Y0081187D01*
X0154161Y0081184D01*
X0154376Y0081308D01*
X0154549Y0080911D01*
X0155474Y0080549D01*
X0161075Y0082996D01*
X0161438Y0083921D01*
X0159933Y0087366D01*
X0160532Y0087628D01*
X0161016Y0088862D01*
X0160890Y0089148D01*
X0161177Y0089274D01*
X0161661Y0090508D01*
X0161130Y0091722D01*
X0159896Y0092206D01*
X0161537Y0090790D02*
X0181482Y0090790D01*
X0182776Y0089448D02*
X0182776Y0089448D01*
X0185085Y0089375D02*
X0185085Y0089375D01*
X0186741Y0089323D02*
X0186741Y0089323D01*
X0187953Y0089285D02*
X0187953Y0089285D01*
X0189507Y0089591D02*
X0161302Y0089591D01*
X0160832Y0088393D02*
X0175662Y0088393D01*
X0178683Y0091037D02*
X0178683Y0091037D01*
X0174375Y0092441D02*
X0174375Y0092441D01*
X0173158Y0093187D02*
X0154447Y0093187D01*
X0154047Y0091988D02*
X0156905Y0091988D01*
X0156655Y0090790D02*
X0153648Y0090790D01*
X0153248Y0089591D02*
X0155966Y0089591D01*
X0155634Y0088393D02*
X0152719Y0088393D01*
X0153028Y0088931D02*
X0153028Y0088931D01*
X0152890Y0087194D02*
X0152030Y0087194D01*
X0151732Y0085996D02*
X0152327Y0085996D01*
X0148454Y0083599D02*
X0145469Y0083599D01*
X0145154Y0084797D02*
X0147761Y0084797D01*
X0147687Y0084925D02*
X0147687Y0084925D01*
X0147686Y0085996D02*
X0145062Y0085996D01*
X0145162Y0087194D02*
X0147685Y0087194D01*
X0147684Y0087661D02*
X0147684Y0087661D01*
X0148105Y0088393D02*
X0145363Y0088393D01*
X0145814Y0089591D02*
X0148746Y0089591D01*
X0149327Y0090790D02*
X0146353Y0090790D01*
X0146014Y0090036D02*
X0146014Y0090036D01*
X0146892Y0091988D02*
X0149726Y0091988D01*
X0150126Y0093187D02*
X0147415Y0093187D01*
X0147883Y0094385D02*
X0150480Y0094385D01*
X0149961Y0095584D02*
X0148350Y0095584D01*
X0148817Y0096782D02*
X0150006Y0096782D01*
X0150646Y0097981D02*
X0149284Y0097981D01*
X0149752Y0099179D02*
X0166594Y0099179D01*
X0167309Y0098013D02*
X0167309Y0098013D01*
X0167341Y0097981D02*
X0155054Y0097981D01*
X0155694Y0096782D02*
X0168540Y0096782D01*
X0169738Y0095584D02*
X0155738Y0095584D01*
X0155220Y0094385D02*
X0171204Y0094385D01*
X0170513Y0094809D02*
X0170513Y0094809D01*
X0165859Y0100378D02*
X0150219Y0100378D01*
X0150232Y0100413D02*
X0150232Y0100413D01*
X0150619Y0101576D02*
X0165124Y0101576D01*
X0164941Y0101875D02*
X0164941Y0101875D01*
X0164647Y0102775D02*
X0151610Y0102775D01*
X0152363Y0103973D02*
X0164257Y0103973D01*
X0163866Y0105172D02*
X0152488Y0105172D01*
X0152227Y0106370D02*
X0163522Y0106370D01*
X0163426Y0107569D02*
X0152634Y0107569D01*
X0152908Y0108768D02*
X0163330Y0108768D01*
X0163234Y0109966D02*
X0153154Y0109966D01*
X0153400Y0111165D02*
X0163139Y0111165D01*
X0163043Y0112363D02*
X0153646Y0112363D01*
X0153892Y0113562D02*
X0162947Y0113562D01*
X0162851Y0114760D02*
X0154138Y0114760D01*
X0154284Y0115959D02*
X0162869Y0115959D01*
X0162904Y0117157D02*
X0154378Y0117157D01*
X0154472Y0118356D02*
X0162940Y0118356D01*
X0162975Y0119554D02*
X0154565Y0119554D01*
X0154659Y0120753D02*
X0163010Y0120753D01*
X0163046Y0121951D02*
X0154753Y0121951D01*
X0154811Y0122688D02*
X0154811Y0122688D01*
X0154789Y0123150D02*
X0163081Y0123150D01*
X0163116Y0124348D02*
X0154734Y0124348D01*
X0154678Y0125547D02*
X0163152Y0125547D01*
X0163187Y0126745D02*
X0154623Y0126745D01*
X0154567Y0127944D02*
X0163226Y0127944D01*
X0163222Y0127914D02*
X0163222Y0127914D01*
X0163393Y0129142D02*
X0154512Y0129142D01*
X0154462Y0130223D02*
X0154462Y0130223D01*
X0154441Y0130341D02*
X0163561Y0130341D01*
X0163728Y0131539D02*
X0154235Y0131539D01*
X0154028Y0132738D02*
X0163895Y0132738D01*
X0164063Y0133936D02*
X0153826Y0133936D01*
X0153542Y0135135D02*
X0164230Y0135135D01*
X0164398Y0136333D02*
X0153258Y0136333D01*
X0152975Y0137532D02*
X0164565Y0137532D01*
X0164732Y0138730D02*
X0152691Y0138730D01*
X0152407Y0139929D02*
X0164900Y0139929D01*
X0165106Y0141127D02*
X0152124Y0141127D01*
X0151813Y0142326D02*
X0165409Y0142326D01*
X0165713Y0143524D02*
X0151459Y0143524D01*
X0151105Y0144723D02*
X0166016Y0144723D01*
X0166320Y0145921D02*
X0150752Y0145921D01*
X0150398Y0147120D02*
X0166623Y0147120D01*
X0166927Y0148318D02*
X0150044Y0148318D01*
X0149691Y0149517D02*
X0167231Y0149517D01*
X0167534Y0150715D02*
X0149337Y0150715D01*
X0148983Y0151914D02*
X0167838Y0151914D01*
X0168141Y0153112D02*
X0148630Y0153112D01*
X0148276Y0154311D02*
X0168555Y0154311D01*
X0169003Y0155509D02*
X0147922Y0155509D01*
X0147569Y0156708D02*
X0169450Y0156708D01*
X0169898Y0157906D02*
X0147174Y0157906D01*
X0146748Y0159105D02*
X0170345Y0159105D01*
X0170793Y0160303D02*
X0146322Y0160303D01*
X0145896Y0161502D02*
X0171240Y0161502D01*
X0171688Y0162701D02*
X0145470Y0162701D01*
X0145044Y0163899D02*
X0172135Y0163899D01*
X0172583Y0165098D02*
X0144618Y0165098D01*
X0144090Y0166296D02*
X0173125Y0166296D01*
X0173729Y0167495D02*
X0143580Y0167495D01*
X0143071Y0168693D02*
X0174333Y0168693D01*
X0174936Y0169892D02*
X0142562Y0169892D01*
X0142052Y0171090D02*
X0175540Y0171090D01*
X0176144Y0172289D02*
X0141543Y0172289D01*
X0141034Y0173487D02*
X0176748Y0173487D01*
X0177351Y0174686D02*
X0140524Y0174686D01*
X0140015Y0175884D02*
X0155704Y0175884D01*
X0157422Y0175496D02*
X0157422Y0175496D01*
X0150686Y0177083D02*
X0139505Y0177083D01*
X0138996Y0178281D02*
X0148103Y0178281D01*
X0142661Y0186671D02*
X0165413Y0186671D01*
X0164790Y0187869D02*
X0141570Y0187869D01*
X0140534Y0189068D02*
X0164510Y0189068D01*
X0164527Y0190266D02*
X0139499Y0190266D01*
X0137256Y0193862D02*
X0147990Y0193862D01*
X0147015Y0195060D02*
X0136601Y0195060D01*
X0135964Y0196259D02*
X0146518Y0196259D01*
X0146450Y0197457D02*
X0135609Y0197457D01*
X0135253Y0198656D02*
X0146594Y0198656D01*
X0147090Y0199854D02*
X0134898Y0199854D01*
X0126680Y0197457D02*
X0124582Y0197457D01*
X0124132Y0197828D02*
X0124132Y0197828D01*
X0121845Y0198656D02*
X0126421Y0198656D01*
X0126162Y0199854D02*
X0114728Y0199854D01*
X0113904Y0199854D02*
X0082457Y0199854D01*
X0082738Y0198656D02*
X0111081Y0198656D01*
X0108607Y0197457D02*
X0082503Y0197457D01*
X0083234Y0196259D02*
X0108501Y0196259D01*
X0107440Y0195060D02*
X0084898Y0195060D01*
X0084335Y0195341D02*
X0084335Y0195341D01*
X0081644Y0192267D02*
X0081644Y0192267D01*
X0081183Y0192528D02*
X0081183Y0192528D01*
X0081055Y0192663D02*
X0051876Y0192663D01*
X0052092Y0191465D02*
X0083062Y0191465D01*
X0083086Y0191451D02*
X0083086Y0191451D01*
X0084981Y0190379D02*
X0084981Y0190379D01*
X0085344Y0190266D02*
X0052307Y0190266D01*
X0052523Y0189068D02*
X0089198Y0189068D01*
X0090721Y0188594D02*
X0090721Y0188594D01*
X0091674Y0192663D02*
X0100089Y0192663D01*
X0103376Y0189068D02*
X0111553Y0189068D01*
X0111422Y0190266D02*
X0106773Y0190266D01*
X0108342Y0190820D02*
X0108342Y0190820D01*
X0109387Y0191465D02*
X0110536Y0191465D01*
X0112373Y0191465D02*
X0113334Y0191465D01*
X0115196Y0192663D02*
X0116158Y0192663D01*
X0117249Y0193862D02*
X0122499Y0193862D01*
X0123891Y0192663D02*
X0118195Y0192663D01*
X0119034Y0192405D02*
X0119034Y0192405D01*
X0121356Y0192359D02*
X0121356Y0192359D01*
X0123050Y0191465D02*
X0124605Y0191465D01*
X0123409Y0191275D02*
X0123409Y0191275D01*
X0123409Y0191275D01*
X0124128Y0190266D02*
X0125109Y0190266D01*
X0124757Y0189384D02*
X0124757Y0189384D01*
X0124805Y0189068D02*
X0125343Y0189068D01*
X0125403Y0187869D02*
X0124990Y0187869D01*
X0125110Y0187089D02*
X0125110Y0187089D01*
X0124975Y0186671D02*
X0125247Y0186671D01*
X0125041Y0185472D02*
X0124587Y0185472D01*
X0124834Y0184274D02*
X0124199Y0184274D01*
X0123811Y0183075D02*
X0124628Y0183075D01*
X0124422Y0181877D02*
X0123388Y0181877D01*
X0123030Y0180678D02*
X0124215Y0180678D01*
X0123999Y0179480D02*
X0123238Y0179480D01*
X0122930Y0178281D02*
X0123742Y0178281D01*
X0123484Y0177083D02*
X0121821Y0177083D01*
X0121044Y0175884D02*
X0123226Y0175884D01*
X0122968Y0174686D02*
X0120575Y0174686D01*
X0120106Y0173487D02*
X0122152Y0173487D01*
X0121509Y0172289D02*
X0119583Y0172289D01*
X0119875Y0172896D02*
X0119875Y0172896D01*
X0119006Y0171090D02*
X0121461Y0171090D01*
X0121573Y0169892D02*
X0118430Y0169892D01*
X0117854Y0168693D02*
X0121124Y0168693D01*
X0120674Y0167495D02*
X0117277Y0167495D01*
X0116701Y0166296D02*
X0120225Y0166296D01*
X0119776Y0165098D02*
X0116125Y0165098D01*
X0115549Y0163899D02*
X0119442Y0163899D01*
X0119656Y0164778D02*
X0119656Y0164778D01*
X0119151Y0162701D02*
X0114972Y0162701D01*
X0114396Y0161502D02*
X0118860Y0161502D01*
X0118568Y0160303D02*
X0113721Y0160303D01*
X0114314Y0161331D02*
X0114314Y0161331D01*
X0113029Y0159105D02*
X0118277Y0159105D01*
X0117986Y0157906D02*
X0112337Y0157906D01*
X0111646Y0156708D02*
X0117695Y0156708D01*
X0117404Y0155509D02*
X0110954Y0155509D01*
X0110262Y0154311D02*
X0117112Y0154311D01*
X0116869Y0153310D02*
X0116869Y0153310D01*
X0116846Y0153112D02*
X0109571Y0153112D01*
X0108879Y0151914D02*
X0116704Y0151914D01*
X0116562Y0150715D02*
X0108187Y0150715D01*
X0107422Y0149517D02*
X0116420Y0149517D01*
X0116277Y0148318D02*
X0106604Y0148318D01*
X0105787Y0147120D02*
X0116135Y0147120D01*
X0115993Y0145921D02*
X0104969Y0145921D01*
X0104151Y0144723D02*
X0115851Y0144723D01*
X0115709Y0143524D02*
X0103334Y0143524D01*
X0102516Y0142326D02*
X0115567Y0142326D01*
X0115481Y0141127D02*
X0101698Y0141127D01*
X0100881Y0139929D02*
X0115484Y0139929D01*
X0115487Y0138730D02*
X0099960Y0138730D01*
X0099003Y0137532D02*
X0115490Y0137532D01*
X0115493Y0136333D02*
X0098046Y0136333D01*
X0097088Y0135135D02*
X0115496Y0135135D01*
X0115499Y0133936D02*
X0096131Y0133936D01*
X0095174Y0132738D02*
X0115502Y0132738D01*
X0115505Y0131539D02*
X0093933Y0131539D01*
X0094770Y0132232D02*
X0094770Y0132232D01*
X0094770Y0132232D01*
X0092484Y0130341D02*
X0115507Y0130341D01*
X0115509Y0129791D02*
X0115509Y0129791D01*
X0115589Y0129142D02*
X0091036Y0129142D01*
X0090096Y0128365D02*
X0090096Y0128365D01*
X0089298Y0127944D02*
X0115737Y0127944D01*
X0115885Y0126745D02*
X0087027Y0126745D01*
X0084755Y0125547D02*
X0116033Y0125547D01*
X0116181Y0124348D02*
X0080606Y0124348D01*
X0078097Y0127944D02*
X0070084Y0127944D01*
X0072852Y0123408D02*
X0072852Y0123408D01*
X0071173Y0121951D02*
X0116477Y0121951D01*
X0116624Y0120753D02*
X0073370Y0120753D01*
X0075662Y0119554D02*
X0116772Y0119554D01*
X0116920Y0118356D02*
X0077675Y0118356D01*
X0077075Y0118846D02*
X0077075Y0118846D01*
X0079141Y0117157D02*
X0117183Y0117157D01*
X0116955Y0118079D02*
X0116955Y0118079D01*
X0117481Y0115959D02*
X0080607Y0115959D01*
X0081542Y0115194D02*
X0081542Y0115194D01*
X0081542Y0115194D01*
X0081882Y0114760D02*
X0117778Y0114760D01*
X0118075Y0113562D02*
X0082821Y0113562D01*
X0083759Y0112363D02*
X0118373Y0112363D01*
X0118670Y0111165D02*
X0084698Y0111165D01*
X0085100Y0110652D02*
X0085100Y0110652D01*
X0085425Y0109966D02*
X0118968Y0109966D01*
X0119265Y0108768D02*
X0085995Y0108768D01*
X0086564Y0107569D02*
X0119562Y0107569D01*
X0119894Y0106370D02*
X0087133Y0106370D01*
X0087576Y0105440D02*
X0087576Y0105440D01*
X0087636Y0105172D02*
X0120350Y0105172D01*
X0120806Y0103973D02*
X0087907Y0103973D01*
X0088179Y0102775D02*
X0121262Y0102775D01*
X0121718Y0101576D02*
X0088450Y0101576D01*
X0088721Y0100378D02*
X0122174Y0100378D01*
X0122630Y0099179D02*
X0088850Y0099179D01*
X0088852Y0097981D02*
X0123086Y0097981D01*
X0123542Y0096782D02*
X0088853Y0096782D01*
X0088855Y0095584D02*
X0124000Y0095584D01*
X0124630Y0094385D02*
X0088857Y0094385D01*
X0088858Y0094043D02*
X0088858Y0094043D01*
X0088667Y0093187D02*
X0125260Y0093187D01*
X0125890Y0091988D02*
X0105389Y0091988D01*
X0105336Y0092010D02*
X0103387Y0092010D01*
X0101586Y0091264D01*
X0100207Y0089886D01*
X0099461Y0088085D01*
X0099461Y0086136D01*
X0100207Y0084335D01*
X0101439Y0083103D01*
X0100919Y0083185D01*
X0100085Y0083185D01*
X0099261Y0083055D01*
X0098468Y0082797D01*
X0097724Y0082418D01*
X0097049Y0081928D01*
X0096460Y0081338D01*
X0095969Y0080663D01*
X0095781Y0080294D01*
X0100287Y0078409D01*
X0099979Y0077670D01*
X0100717Y0077362D01*
X0098832Y0072855D01*
X0099261Y0072716D01*
X0100085Y0072585D01*
X0100919Y0072585D01*
X0101743Y0072716D01*
X0102537Y0072973D01*
X0103280Y0073352D01*
X0103955Y0073842D01*
X0104545Y0074432D01*
X0105035Y0075107D01*
X0105213Y0075457D01*
X0105213Y0073974D01*
X0105959Y0072173D01*
X0107338Y0070795D01*
X0109139Y0070049D01*
X0111088Y0070049D01*
X0112889Y0070795D01*
X0114267Y0072173D01*
X0115013Y0073974D01*
X0115013Y0075923D01*
X0114267Y0077724D01*
X0112889Y0079103D01*
X0111088Y0079849D01*
X0109139Y0079849D01*
X0107338Y0079103D01*
X0105959Y0077724D01*
X0105770Y0077268D01*
X0105802Y0077468D01*
X0105802Y0078302D01*
X0105672Y0079126D01*
X0105414Y0079920D01*
X0105035Y0080663D01*
X0104545Y0081338D01*
X0103955Y0081928D01*
X0103566Y0082210D01*
X0105336Y0082210D01*
X0107137Y0082956D01*
X0108515Y0084335D01*
X0109261Y0086136D01*
X0109261Y0088085D01*
X0108515Y0089886D01*
X0107137Y0091264D01*
X0105336Y0092010D01*
X0103333Y0091988D02*
X0088400Y0091988D01*
X0088132Y0090790D02*
X0101111Y0090790D01*
X0100085Y0089591D02*
X0087865Y0089591D01*
X0087602Y0088411D02*
X0087602Y0088411D01*
X0087593Y0088393D02*
X0099589Y0088393D01*
X0099461Y0087194D02*
X0087028Y0087194D01*
X0086464Y0085996D02*
X0099519Y0085996D01*
X0100016Y0084797D02*
X0085899Y0084797D01*
X0085334Y0083599D02*
X0100943Y0083599D01*
X0097700Y0082400D02*
X0084526Y0082400D01*
X0085142Y0083192D02*
X0085142Y0083192D01*
X0083593Y0081202D02*
X0096361Y0081202D01*
X0096475Y0080003D02*
X0082661Y0080003D01*
X0081728Y0078805D02*
X0095282Y0078805D01*
X0095333Y0079126D02*
X0095202Y0078302D01*
X0095202Y0077468D01*
X0095333Y0076644D01*
X0095590Y0075851D01*
X0095969Y0075107D01*
X0096460Y0074432D01*
X0097049Y0073842D01*
X0097724Y0073352D01*
X0098094Y0073164D01*
X0099979Y0077670D01*
X0095472Y0079556D01*
X0095333Y0079126D01*
X0095202Y0077606D02*
X0080344Y0077606D01*
X0081598Y0078639D02*
X0081598Y0078639D01*
X0081598Y0078639D01*
X0079190Y0076408D02*
X0095409Y0076408D01*
X0095917Y0075209D02*
X0078544Y0075209D01*
X0074636Y0074090D02*
X0074636Y0074090D01*
X0074354Y0074011D02*
X0096881Y0074011D01*
X0098448Y0074011D02*
X0099315Y0074011D01*
X0098964Y0072812D02*
X0070080Y0072812D01*
X0069188Y0072562D02*
X0069188Y0072562D01*
X0070421Y0071614D02*
X0106519Y0071614D01*
X0105695Y0072812D02*
X0102040Y0072812D01*
X0104123Y0074011D02*
X0105213Y0074011D01*
X0105213Y0075209D02*
X0105087Y0075209D01*
X0105802Y0077606D02*
X0105911Y0077606D01*
X0105723Y0078805D02*
X0107040Y0078805D01*
X0105371Y0080003D02*
X0111237Y0080003D01*
X0111197Y0080020D02*
X0112998Y0079274D01*
X0114947Y0079274D01*
X0116748Y0080020D01*
X0118126Y0081398D01*
X0118872Y0083199D01*
X0118872Y0085149D01*
X0118126Y0086950D01*
X0116748Y0088328D01*
X0114947Y0089074D01*
X0112998Y0089074D01*
X0111197Y0088328D01*
X0109818Y0086950D01*
X0109072Y0085149D01*
X0109072Y0083199D01*
X0109818Y0081398D01*
X0111197Y0080020D01*
X0110015Y0081202D02*
X0104644Y0081202D01*
X0105794Y0082400D02*
X0109403Y0082400D01*
X0109072Y0083599D02*
X0107779Y0083599D01*
X0108707Y0084797D02*
X0109072Y0084797D01*
X0109203Y0085996D02*
X0109423Y0085996D01*
X0109261Y0087194D02*
X0110063Y0087194D01*
X0109134Y0088393D02*
X0111353Y0088393D01*
X0108637Y0089591D02*
X0127151Y0089591D01*
X0127781Y0088393D02*
X0116592Y0088393D01*
X0117882Y0087194D02*
X0128411Y0087194D01*
X0129041Y0085996D02*
X0118522Y0085996D01*
X0118872Y0084797D02*
X0129729Y0084797D01*
X0129485Y0085151D02*
X0129485Y0085151D01*
X0130557Y0083599D02*
X0125461Y0083599D01*
X0125588Y0083546D02*
X0123787Y0084292D01*
X0121837Y0084292D01*
X0120036Y0083546D01*
X0118658Y0082168D01*
X0117912Y0080367D01*
X0117912Y0078418D01*
X0118658Y0076617D01*
X0120036Y0075238D01*
X0121837Y0074492D01*
X0123787Y0074492D01*
X0125588Y0075238D01*
X0126966Y0076617D01*
X0127712Y0078418D01*
X0127712Y0080367D01*
X0126966Y0082168D01*
X0125588Y0083546D01*
X0126734Y0082400D02*
X0131385Y0082400D01*
X0132212Y0081202D02*
X0127366Y0081202D01*
X0127712Y0080003D02*
X0133040Y0080003D01*
X0133868Y0078805D02*
X0127712Y0078805D01*
X0127376Y0077606D02*
X0134696Y0077606D01*
X0135523Y0076408D02*
X0126757Y0076408D01*
X0125517Y0075209D02*
X0136396Y0075209D01*
X0136191Y0075441D02*
X0136191Y0075441D01*
X0137458Y0074011D02*
X0122039Y0074011D01*
X0121729Y0074321D02*
X0119928Y0075067D01*
X0117978Y0075067D01*
X0116177Y0074321D01*
X0114799Y0072943D01*
X0114053Y0071142D01*
X0114053Y0069192D01*
X0114799Y0067391D01*
X0116177Y0066013D01*
X0117978Y0065267D01*
X0119928Y0065267D01*
X0121729Y0066013D01*
X0123107Y0067391D01*
X0123853Y0069192D01*
X0123853Y0071142D01*
X0123107Y0072943D01*
X0121729Y0074321D01*
X0120107Y0075209D02*
X0115013Y0075209D01*
X0115013Y0074011D02*
X0115867Y0074011D01*
X0114745Y0072812D02*
X0114532Y0072812D01*
X0114248Y0071614D02*
X0113708Y0071614D01*
X0114053Y0070415D02*
X0111973Y0070415D01*
X0114053Y0069217D02*
X0086034Y0069217D01*
X0083528Y0069879D02*
X0083528Y0069879D01*
X0079972Y0070415D02*
X0108254Y0070415D01*
X0114539Y0068018D02*
X0090569Y0068018D01*
X0094550Y0066820D02*
X0115371Y0066820D01*
X0117123Y0065621D02*
X0097666Y0065621D01*
X0098068Y0065467D02*
X0098068Y0065467D01*
X0101112Y0064423D02*
X0126588Y0064423D01*
X0129891Y0065621D02*
X0120782Y0065621D01*
X0122535Y0066820D02*
X0143194Y0066820D01*
X0142474Y0068018D02*
X0123367Y0068018D01*
X0123853Y0069217D02*
X0141561Y0069217D01*
X0140594Y0070415D02*
X0123853Y0070415D01*
X0123657Y0071614D02*
X0139581Y0071614D01*
X0140103Y0071024D02*
X0140103Y0071024D01*
X0138519Y0072812D02*
X0123161Y0072812D01*
X0118867Y0076408D02*
X0114813Y0076408D01*
X0114316Y0077606D02*
X0118248Y0077606D01*
X0117912Y0078805D02*
X0113187Y0078805D01*
X0116708Y0080003D02*
X0117912Y0080003D01*
X0117930Y0081202D02*
X0118258Y0081202D01*
X0118541Y0082400D02*
X0118890Y0082400D01*
X0118872Y0083599D02*
X0120163Y0083599D01*
X0126520Y0090790D02*
X0107611Y0090790D01*
X0099340Y0078805D02*
X0097267Y0078805D01*
X0099952Y0077606D02*
X0100132Y0077606D01*
X0100318Y0076408D02*
X0099451Y0076408D01*
X0099816Y0075209D02*
X0098949Y0075209D01*
X0092417Y0063224D02*
X0068363Y0063224D01*
X0068789Y0062026D02*
X0095806Y0062026D01*
X0098988Y0060827D02*
X0068789Y0060827D01*
X0068712Y0059629D02*
X0103668Y0059629D01*
X0102395Y0054834D02*
X0135404Y0054834D01*
X0137296Y0054834D02*
X0139275Y0054834D01*
X0139082Y0056033D02*
X0060378Y0056033D01*
X0059984Y0057232D02*
X0059453Y0057232D01*
X0058786Y0058430D02*
X0058254Y0058430D01*
X0057587Y0059629D02*
X0057056Y0059629D01*
X0056389Y0060827D02*
X0054175Y0060827D01*
X0053656Y0062026D02*
X0056460Y0062026D01*
X0056496Y0063224D02*
X0053181Y0063224D01*
X0053117Y0064423D02*
X0056142Y0064423D01*
X0055788Y0065621D02*
X0053053Y0065621D01*
X0053400Y0066820D02*
X0055965Y0066820D01*
X0056167Y0068018D02*
X0053766Y0068018D01*
X0054619Y0069217D02*
X0056914Y0069217D01*
X0056202Y0068224D02*
X0056202Y0068224D01*
X0055781Y0070415D02*
X0057879Y0070415D01*
X0057707Y0070323D02*
X0057707Y0070323D01*
X0057934Y0071614D02*
X0061656Y0071614D01*
X0063564Y0071947D02*
X0063564Y0071947D01*
X0064850Y0071740D02*
X0064850Y0071740D01*
X0066618Y0076408D02*
X0050234Y0076408D01*
X0050484Y0077606D02*
X0071982Y0077606D01*
X0073970Y0078805D02*
X0050733Y0078805D01*
X0050983Y0080003D02*
X0076948Y0080003D01*
X0078250Y0081202D02*
X0051233Y0081202D01*
X0051482Y0082400D02*
X0079287Y0082400D01*
X0080220Y0083599D02*
X0051732Y0083599D01*
X0051982Y0084797D02*
X0081153Y0084797D01*
X0081893Y0085996D02*
X0052231Y0085996D01*
X0052481Y0087194D02*
X0082458Y0087194D01*
X0083023Y0088393D02*
X0052731Y0088393D01*
X0052981Y0089591D02*
X0083588Y0089591D01*
X0083897Y0090790D02*
X0053230Y0090790D01*
X0053480Y0091988D02*
X0084164Y0091988D01*
X0084431Y0093187D02*
X0053730Y0093187D01*
X0053979Y0094385D02*
X0084698Y0094385D01*
X0084721Y0095584D02*
X0054229Y0095584D01*
X0054479Y0096782D02*
X0084719Y0096782D01*
X0084717Y0097981D02*
X0054728Y0097981D01*
X0054978Y0099179D02*
X0084716Y0099179D01*
X0084482Y0100378D02*
X0055228Y0100378D01*
X0055544Y0101576D02*
X0084211Y0101576D01*
X0083940Y0102775D02*
X0055449Y0102775D01*
X0054105Y0103973D02*
X0083669Y0103973D01*
X0083126Y0105172D02*
X0052307Y0105172D01*
X0050509Y0106370D02*
X0082557Y0106370D01*
X0081987Y0107569D02*
X0048711Y0107569D01*
X0046913Y0108768D02*
X0081324Y0108768D01*
X0080385Y0109966D02*
X0045116Y0109966D01*
X0043318Y0111165D02*
X0079447Y0111165D01*
X0078473Y0112363D02*
X0041520Y0112363D01*
X0039722Y0113562D02*
X0077007Y0113562D01*
X0075541Y0114760D02*
X0037925Y0114760D01*
X0036127Y0115959D02*
X0073759Y0115959D01*
X0071516Y0117157D02*
X0034329Y0117157D01*
X0032531Y0118356D02*
X0069124Y0118356D01*
X0067280Y0119554D02*
X0030734Y0119554D01*
X0028936Y0120753D02*
X0065545Y0120753D01*
X0063811Y0121951D02*
X0027138Y0121951D01*
X0025340Y0123150D02*
X0062076Y0123150D01*
X0061409Y0123611D02*
X0061409Y0123611D01*
X0060609Y0124348D02*
X0023542Y0124348D01*
X0021745Y0125547D02*
X0059309Y0125547D01*
X0058009Y0126745D02*
X0019947Y0126745D01*
X0018149Y0127944D02*
X0056710Y0127944D01*
X0055410Y0129142D02*
X0016351Y0129142D01*
X0014554Y0130341D02*
X0054296Y0130341D01*
X0054869Y0129641D02*
X0054869Y0129641D01*
X0053316Y0131539D02*
X0035450Y0131539D01*
X0035450Y0131437D02*
X0035450Y0131750D01*
X0035763Y0131750D01*
X0036700Y0132687D01*
X0036700Y0134013D01*
X0035763Y0134950D01*
X0035450Y0134950D01*
X0035450Y0135263D01*
X0034513Y0136200D01*
X0033662Y0136200D01*
X0033662Y0140156D01*
X0033167Y0140651D01*
X0033373Y0140795D01*
X0034084Y0140924D01*
X0034785Y0140744D01*
X0035090Y0140547D01*
X0035090Y0140547D01*
X0036357Y0139463D01*
X0038461Y0137359D01*
X0038461Y0136525D01*
X0038901Y0135464D01*
X0039714Y0134651D01*
X0040775Y0134211D01*
X0041925Y0134211D01*
X0042986Y0134651D01*
X0043799Y0135464D01*
X0044238Y0136525D01*
X0044238Y0137675D01*
X0043799Y0138736D01*
X0042986Y0139549D01*
X0041925Y0139988D01*
X0041550Y0139988D01*
X0039067Y0142471D01*
X0037610Y0143653D01*
X0036967Y0144175D01*
X0036643Y0144437D01*
X0034232Y0145056D01*
X0031783Y0144611D01*
X0031783Y0144611D01*
X0029743Y0143185D01*
X0029743Y0143185D01*
X0028484Y0141037D01*
X0028466Y0140859D01*
X0027241Y0140859D01*
X0026538Y0140156D01*
X0026538Y0134044D01*
X0027241Y0133341D01*
X0031000Y0133341D01*
X0031000Y0132687D01*
X0031937Y0131750D01*
X0032250Y0131750D01*
X0032250Y0131437D01*
X0033187Y0130500D01*
X0034513Y0130500D01*
X0035450Y0131437D01*
X0036700Y0132738D02*
X0052261Y0132738D01*
X0051142Y0133936D02*
X0036700Y0133936D01*
X0035450Y0135135D02*
X0039230Y0135135D01*
X0038541Y0136333D02*
X0033662Y0136333D01*
X0033662Y0137532D02*
X0038288Y0137532D01*
X0037090Y0138730D02*
X0033662Y0138730D01*
X0033662Y0139929D02*
X0035813Y0139929D01*
X0037769Y0143524D02*
X0040341Y0143524D01*
X0039212Y0142326D02*
X0042653Y0142326D01*
X0044450Y0141127D02*
X0040411Y0141127D01*
X0039067Y0142471D02*
X0039067Y0142471D01*
X0039067Y0142471D01*
X0036967Y0144175D02*
X0036967Y0144175D01*
X0036643Y0144437D02*
X0036643Y0144437D01*
X0037404Y0144723D02*
X0035530Y0144723D01*
X0035889Y0145154D02*
X0035889Y0145154D01*
X0034232Y0145056D02*
X0034232Y0145056D01*
X0032399Y0144723D02*
X0030703Y0144723D01*
X0030228Y0143524D02*
X0028516Y0143524D01*
X0029743Y0143185D02*
X0029743Y0143185D01*
X0029239Y0142326D02*
X0027128Y0142326D01*
X0026319Y0141127D02*
X0028536Y0141127D01*
X0028484Y0141037D02*
X0028484Y0141037D01*
X0026538Y0139929D02*
X0026162Y0139929D01*
X0026162Y0138730D02*
X0026538Y0138730D01*
X0026538Y0137532D02*
X0026162Y0137532D01*
X0026162Y0136333D02*
X0026538Y0136333D01*
X0026538Y0135135D02*
X0026162Y0135135D01*
X0026055Y0133936D02*
X0026645Y0133936D01*
X0031000Y0132738D02*
X0010958Y0132738D01*
X0009160Y0133936D02*
X0019145Y0133936D01*
X0019038Y0135135D02*
X0007363Y0135135D01*
X0005565Y0136333D02*
X0019038Y0136333D01*
X0019038Y0137532D02*
X0005062Y0137532D01*
X0006860Y0138730D02*
X0019038Y0138730D01*
X0019038Y0139929D02*
X0008658Y0139929D01*
X0010456Y0141127D02*
X0021720Y0141127D01*
X0022001Y0142063D02*
X0022001Y0142063D01*
X0022178Y0142326D02*
X0012253Y0142326D01*
X0014051Y0143524D02*
X0022988Y0143524D01*
X0023797Y0144723D02*
X0015849Y0144723D01*
X0017647Y0145921D02*
X0024946Y0145921D01*
X0026445Y0147120D02*
X0019444Y0147120D01*
X0021242Y0148318D02*
X0028633Y0148318D01*
X0026636Y0151914D02*
X0104072Y0151914D01*
X0104816Y0153112D02*
X0028433Y0153112D01*
X0030231Y0154311D02*
X0105508Y0154311D01*
X0106200Y0155509D02*
X0032029Y0155509D01*
X0033827Y0156708D02*
X0106891Y0156708D01*
X0107583Y0157906D02*
X0035624Y0157906D01*
X0037422Y0159105D02*
X0108275Y0159105D01*
X0108966Y0160303D02*
X0039220Y0160303D01*
X0041018Y0161502D02*
X0109658Y0161502D01*
X0110350Y0162701D02*
X0042815Y0162701D01*
X0044613Y0163899D02*
X0110980Y0163899D01*
X0111556Y0165098D02*
X0046411Y0165098D01*
X0048209Y0166296D02*
X0112132Y0166296D01*
X0112708Y0167495D02*
X0050007Y0167495D01*
X0051804Y0168693D02*
X0113285Y0168693D01*
X0113861Y0169892D02*
X0053602Y0169892D01*
X0055382Y0171090D02*
X0114437Y0171090D01*
X0115014Y0172289D02*
X0055621Y0172289D01*
X0055328Y0173487D02*
X0115590Y0173487D01*
X0116156Y0174686D02*
X0055112Y0174686D01*
X0054896Y0175884D02*
X0116651Y0175884D01*
X0117147Y0177083D02*
X0054680Y0177083D01*
X0054465Y0178281D02*
X0117642Y0178281D01*
X0117461Y0179480D02*
X0054249Y0179480D01*
X0054033Y0180678D02*
X0117670Y0180678D01*
X0118542Y0181877D02*
X0115758Y0181877D01*
X0116243Y0183075D02*
X0119515Y0183075D01*
X0119946Y0184274D02*
X0116694Y0184274D01*
X0117450Y0185472D02*
X0120354Y0185472D01*
X0120064Y0186671D02*
X0120762Y0186671D01*
X0120947Y0187216D02*
X0120947Y0187216D01*
X0120895Y0187869D02*
X0120230Y0187869D01*
X0112571Y0186671D02*
X0052955Y0186671D01*
X0052739Y0187869D02*
X0112062Y0187869D01*
X0111853Y0185472D02*
X0053170Y0185472D01*
X0053386Y0184274D02*
X0111369Y0184274D01*
X0111011Y0183075D02*
X0053602Y0183075D01*
X0053817Y0181877D02*
X0111787Y0181877D01*
X0102673Y0188820D02*
X0102673Y0188820D01*
X0104530Y0193862D02*
X0087713Y0193862D01*
X0079918Y0193862D02*
X0051660Y0193862D01*
X0051444Y0195060D02*
X0079033Y0195060D01*
X0079313Y0194499D02*
X0079313Y0194499D01*
X0078106Y0196259D02*
X0051229Y0196259D01*
X0051013Y0197457D02*
X0077197Y0197457D01*
X0076961Y0198656D02*
X0050797Y0198656D01*
X0050582Y0199854D02*
X0077243Y0199854D01*
X0077065Y0201053D02*
X0050366Y0201053D01*
X0050150Y0202251D02*
X0076728Y0202251D01*
X0076736Y0202199D02*
X0076736Y0202199D01*
X0076546Y0203450D02*
X0049934Y0203450D01*
X0049719Y0204648D02*
X0070717Y0204648D01*
X0070401Y0204964D02*
X0071214Y0204151D01*
X0072275Y0203711D01*
X0073425Y0203711D01*
X0074486Y0204151D01*
X0075299Y0204964D01*
X0075738Y0206025D01*
X0075738Y0207175D01*
X0075299Y0208236D01*
X0075039Y0208496D01*
X0075215Y0210350D01*
X0074919Y0213464D01*
X0074890Y0213773D01*
X0074841Y0214289D01*
X0074763Y0215114D01*
X0074715Y0215611D01*
X0073354Y0217892D01*
X0071145Y0219367D01*
X0068517Y0219752D01*
X0065978Y0218972D01*
X0065360Y0218406D01*
X0064638Y0219128D01*
X0063644Y0219128D01*
X0059322Y0214806D01*
X0059322Y0213812D01*
X0061980Y0211154D01*
X0061518Y0210692D01*
X0061518Y0209366D01*
X0061739Y0209145D01*
X0061518Y0208924D01*
X0061518Y0207598D01*
X0062455Y0206661D01*
X0063781Y0206661D01*
X0064002Y0206882D01*
X0064223Y0206661D01*
X0065548Y0206661D01*
X0066486Y0207598D01*
X0066486Y0208924D01*
X0066264Y0209145D01*
X0066486Y0209366D01*
X0066486Y0210692D01*
X0065884Y0211293D01*
X0068681Y0214090D01*
X0068681Y0215085D01*
X0068311Y0215456D01*
X0068834Y0215616D01*
X0069656Y0215496D01*
X0070347Y0215034D01*
X0070774Y0214320D01*
X0070859Y0213911D01*
X0070859Y0213911D01*
X0071028Y0210350D01*
X0070954Y0208789D01*
X0070401Y0208236D01*
X0069961Y0207175D01*
X0069961Y0206025D01*
X0070401Y0204964D01*
X0070035Y0205847D02*
X0049503Y0205847D01*
X0049287Y0207045D02*
X0062071Y0207045D01*
X0061518Y0208244D02*
X0049071Y0208244D01*
X0048856Y0209442D02*
X0061518Y0209442D01*
X0061518Y0210641D02*
X0048640Y0210641D01*
X0048424Y0211839D02*
X0061294Y0211839D01*
X0060096Y0213038D02*
X0048208Y0213038D01*
X0047993Y0214237D02*
X0059322Y0214237D01*
X0059419Y0215435D02*
X0059951Y0215435D01*
X0060618Y0216634D02*
X0061149Y0216634D01*
X0061816Y0217832D02*
X0062348Y0217832D01*
X0063015Y0219031D02*
X0063546Y0219031D01*
X0064736Y0219031D02*
X0066169Y0219031D01*
X0065978Y0218972D02*
X0065978Y0218972D01*
X0068517Y0219752D02*
X0068517Y0219752D01*
X0071145Y0219367D02*
X0071145Y0219367D01*
X0071649Y0219031D02*
X0074052Y0219031D01*
X0073354Y0217892D02*
X0073354Y0217892D01*
X0073354Y0217892D01*
X0073389Y0217832D02*
X0074667Y0217832D01*
X0075099Y0216634D02*
X0074105Y0216634D01*
X0074715Y0215611D02*
X0074715Y0215611D01*
X0074732Y0215435D02*
X0075312Y0215435D01*
X0075368Y0214237D02*
X0074846Y0214237D01*
X0074960Y0213038D02*
X0075393Y0213038D01*
X0075419Y0211839D02*
X0075074Y0211839D01*
X0075188Y0210641D02*
X0075457Y0210641D01*
X0075215Y0210350D02*
X0075215Y0210350D01*
X0075129Y0209442D02*
X0075638Y0209442D01*
X0075820Y0208244D02*
X0075291Y0208244D01*
X0075738Y0207045D02*
X0076002Y0207045D01*
X0076183Y0205847D02*
X0075665Y0205847D01*
X0074983Y0204648D02*
X0076365Y0204648D01*
X0080361Y0205847D02*
X0125292Y0205847D01*
X0125262Y0207045D02*
X0080180Y0207045D01*
X0079998Y0208244D02*
X0125232Y0208244D01*
X0125203Y0209442D02*
X0079816Y0209442D01*
X0079635Y0210641D02*
X0125173Y0210641D01*
X0125341Y0211839D02*
X0079526Y0211839D01*
X0079462Y0213038D02*
X0125538Y0213038D01*
X0125735Y0214237D02*
X0079398Y0214237D01*
X0079343Y0215435D02*
X0125932Y0215435D01*
X0126130Y0216634D02*
X0079318Y0216634D01*
X0079309Y0217047D02*
X0079309Y0217047D01*
X0079026Y0217832D02*
X0126327Y0217832D01*
X0126759Y0219031D02*
X0078594Y0219031D01*
X0078162Y0220229D02*
X0097699Y0220229D01*
X0092469Y0221428D02*
X0077384Y0221428D01*
X0078017Y0220631D02*
X0078017Y0220631D01*
X0076433Y0222626D02*
X0087239Y0222626D01*
X0082009Y0223825D02*
X0075324Y0223825D01*
X0076780Y0225023D02*
X0073474Y0225023D01*
X0072450Y0225686D02*
X0072450Y0225686D01*
X0071550Y0226222D02*
X0070354Y0226222D01*
X0066320Y0227420D02*
X0045620Y0227420D01*
X0045835Y0226222D02*
X0064671Y0226222D01*
X0064959Y0226344D02*
X0064959Y0226344D01*
X0061835Y0225023D02*
X0046051Y0225023D01*
X0046267Y0223825D02*
X0057734Y0223825D01*
X0056535Y0222626D02*
X0046483Y0222626D01*
X0046698Y0221428D02*
X0055337Y0221428D01*
X0054138Y0220229D02*
X0046914Y0220229D01*
X0047130Y0219031D02*
X0054103Y0219031D01*
X0055302Y0217832D02*
X0047346Y0217832D01*
X0047561Y0216634D02*
X0056500Y0216634D01*
X0057699Y0215435D02*
X0047777Y0215435D01*
X0059941Y0223825D02*
X0060281Y0223825D01*
X0060644Y0224146D02*
X0060644Y0224146D01*
X0061450Y0224860D02*
X0061450Y0224860D01*
X0061090Y0228619D02*
X0045404Y0228619D01*
X0045188Y0229817D02*
X0055860Y0229817D01*
X0050630Y0231016D02*
X0044972Y0231016D01*
X0044757Y0232214D02*
X0045400Y0232214D01*
X0063861Y0221428D02*
X0071483Y0221428D01*
X0073100Y0220229D02*
X0063378Y0220229D01*
X0068331Y0215435D02*
X0069747Y0215435D01*
X0070791Y0214237D02*
X0068681Y0214237D01*
X0067629Y0213038D02*
X0070900Y0213038D01*
X0070957Y0211839D02*
X0066430Y0211839D01*
X0066486Y0210641D02*
X0071014Y0210641D01*
X0070985Y0209442D02*
X0066486Y0209442D01*
X0066486Y0208244D02*
X0070409Y0208244D01*
X0069961Y0207045D02*
X0065933Y0207045D01*
X0079332Y0215971D02*
X0079332Y0215971D01*
X0080543Y0204648D02*
X0125322Y0204648D01*
X0125385Y0203450D02*
X0080724Y0203450D01*
X0080990Y0202251D02*
X0125644Y0202251D01*
X0125903Y0201053D02*
X0081476Y0201053D01*
X0096709Y0188067D02*
X0096709Y0188067D01*
X0115651Y0198656D02*
X0115665Y0198656D01*
X0120643Y0199090D02*
X0120643Y0199090D01*
X0126032Y0196259D02*
X0127014Y0196259D01*
X0127234Y0195060D02*
X0127521Y0195060D01*
X0127947Y0193862D02*
X0128028Y0193862D01*
X0129285Y0190266D02*
X0129556Y0190266D01*
X0129520Y0189068D02*
X0130066Y0189068D01*
X0129605Y0188636D02*
X0129605Y0188636D01*
X0129489Y0187869D02*
X0130575Y0187869D01*
X0131084Y0186671D02*
X0129308Y0186671D01*
X0129127Y0185472D02*
X0131594Y0185472D01*
X0132103Y0184274D02*
X0128946Y0184274D01*
X0128765Y0183075D02*
X0132612Y0183075D01*
X0133122Y0181877D02*
X0128584Y0181877D01*
X0128403Y0180678D02*
X0133631Y0180678D01*
X0134141Y0179480D02*
X0128222Y0179480D01*
X0128136Y0178908D02*
X0128136Y0178908D01*
X0127987Y0178281D02*
X0134650Y0178281D01*
X0135159Y0177083D02*
X0127704Y0177083D01*
X0127420Y0175884D02*
X0135669Y0175884D01*
X0136178Y0174686D02*
X0127136Y0174686D01*
X0126852Y0173487D02*
X0136687Y0173487D01*
X0137197Y0172289D02*
X0127191Y0172289D01*
X0127238Y0171090D02*
X0137706Y0171090D01*
X0138215Y0169892D02*
X0126727Y0169892D01*
X0125403Y0168693D02*
X0138725Y0168693D01*
X0139234Y0167495D02*
X0124994Y0167495D01*
X0124585Y0166296D02*
X0139744Y0166296D01*
X0140253Y0165098D02*
X0124177Y0165098D01*
X0123768Y0163899D02*
X0140762Y0163899D01*
X0141214Y0162701D02*
X0123442Y0162701D01*
X0123151Y0161502D02*
X0141621Y0161502D01*
X0142029Y0160303D02*
X0122860Y0160303D01*
X0122569Y0159105D02*
X0142437Y0159105D01*
X0142844Y0157906D02*
X0122277Y0157906D01*
X0121986Y0156708D02*
X0143252Y0156708D01*
X0143640Y0155509D02*
X0121695Y0155509D01*
X0121404Y0154311D02*
X0143993Y0154311D01*
X0144347Y0153112D02*
X0121112Y0153112D01*
X0120903Y0151914D02*
X0144700Y0151914D01*
X0145054Y0150715D02*
X0120761Y0150715D01*
X0120619Y0149517D02*
X0145408Y0149517D01*
X0145761Y0148318D02*
X0120477Y0148318D01*
X0120335Y0147120D02*
X0146115Y0147120D01*
X0146469Y0145921D02*
X0120193Y0145921D01*
X0120051Y0144723D02*
X0146822Y0144723D01*
X0147176Y0143524D02*
X0119909Y0143524D01*
X0119766Y0142326D02*
X0147530Y0142326D01*
X0147883Y0141127D02*
X0119651Y0141127D01*
X0119654Y0139929D02*
X0148199Y0139929D01*
X0148500Y0138730D02*
X0119657Y0138730D01*
X0119660Y0137532D02*
X0148801Y0137532D01*
X0149102Y0136333D02*
X0119663Y0136333D01*
X0119666Y0135135D02*
X0149403Y0135135D01*
X0149704Y0133936D02*
X0119669Y0133936D01*
X0119672Y0132738D02*
X0149952Y0132738D01*
X0150121Y0131539D02*
X0119675Y0131539D01*
X0119678Y0130341D02*
X0150289Y0130341D01*
X0150398Y0129142D02*
X0119791Y0129142D01*
X0119939Y0127944D02*
X0150453Y0127944D01*
X0150509Y0126745D02*
X0120086Y0126745D01*
X0120234Y0125547D02*
X0150564Y0125547D01*
X0150620Y0124348D02*
X0120382Y0124348D01*
X0120530Y0123150D02*
X0150676Y0123150D01*
X0150631Y0121951D02*
X0120678Y0121951D01*
X0120826Y0120753D02*
X0150537Y0120753D01*
X0150443Y0119554D02*
X0120974Y0119554D01*
X0121182Y0118356D02*
X0150350Y0118356D01*
X0150256Y0117157D02*
X0121480Y0117157D01*
X0121777Y0115959D02*
X0150162Y0115959D01*
X0149943Y0114760D02*
X0122075Y0114760D01*
X0122372Y0113562D02*
X0149697Y0113562D01*
X0149451Y0112363D02*
X0122669Y0112363D01*
X0122967Y0111165D02*
X0149205Y0111165D01*
X0148959Y0109966D02*
X0123264Y0109966D01*
X0123562Y0108768D02*
X0148704Y0108768D01*
X0148339Y0107569D02*
X0123899Y0107569D01*
X0124355Y0106370D02*
X0147103Y0106370D01*
X0146711Y0105172D02*
X0124811Y0105172D01*
X0125268Y0103973D02*
X0146837Y0103973D01*
X0146764Y0102775D02*
X0125724Y0102775D01*
X0126180Y0101576D02*
X0146340Y0101576D01*
X0145872Y0100378D02*
X0126636Y0100378D01*
X0127092Y0099179D02*
X0145405Y0099179D01*
X0144938Y0097981D02*
X0127548Y0097981D01*
X0128081Y0096782D02*
X0144471Y0096782D01*
X0144004Y0095584D02*
X0128711Y0095584D01*
X0129341Y0094385D02*
X0143531Y0094385D01*
X0143010Y0093187D02*
X0129972Y0093187D01*
X0130602Y0091988D02*
X0142490Y0091988D01*
X0141967Y0090790D02*
X0131232Y0090790D01*
X0131862Y0089591D02*
X0141429Y0089591D01*
X0141686Y0090164D02*
X0141686Y0090164D01*
X0141134Y0088393D02*
X0132492Y0088393D01*
X0133142Y0087194D02*
X0141034Y0087194D01*
X0140934Y0085996D02*
X0133969Y0085996D01*
X0134797Y0084797D02*
X0140901Y0084797D01*
X0140851Y0084988D02*
X0140851Y0084988D01*
X0141216Y0083599D02*
X0135625Y0083599D01*
X0136453Y0082400D02*
X0141530Y0082400D01*
X0141845Y0081202D02*
X0137280Y0081202D01*
X0138108Y0080003D02*
X0142590Y0080003D01*
X0141888Y0081038D02*
X0141888Y0081038D01*
X0143404Y0078805D02*
X0138936Y0078805D01*
X0139822Y0077606D02*
X0144254Y0077606D01*
X0144181Y0077660D02*
X0144181Y0077659D01*
X0145881Y0076408D02*
X0140821Y0076408D01*
X0141820Y0075209D02*
X0147563Y0075209D01*
X0149879Y0078805D02*
X0155469Y0078805D01*
X0155546Y0080003D02*
X0147936Y0080003D01*
X0146749Y0081202D02*
X0151400Y0081202D01*
X0151425Y0081187D02*
X0151425Y0081187D01*
X0149326Y0082400D02*
X0145935Y0082400D01*
X0154161Y0081184D02*
X0154161Y0081184D01*
X0154191Y0081202D02*
X0154422Y0081202D01*
X0156969Y0081202D02*
X0157908Y0081202D01*
X0159713Y0082400D02*
X0160651Y0082400D01*
X0161867Y0082400D02*
X0162096Y0082400D01*
X0161312Y0083599D02*
X0163989Y0083599D01*
X0166005Y0084797D02*
X0161055Y0084797D01*
X0160532Y0085996D02*
X0168653Y0085996D01*
X0171578Y0087194D02*
X0160008Y0087194D01*
X0165956Y0080003D02*
X0193298Y0080003D01*
X0193656Y0078805D02*
X0164063Y0078805D01*
X0164197Y0077606D02*
X0193461Y0077606D01*
X0193510Y0076408D02*
X0164190Y0076408D01*
X0161987Y0075209D02*
X0194156Y0075209D01*
X0194932Y0074011D02*
X0159243Y0074011D01*
X0157623Y0074011D02*
X0142818Y0074011D01*
X0143646Y0073056D02*
X0143646Y0073056D01*
X0143862Y0072812D02*
X0195160Y0072812D01*
X0195276Y0071614D02*
X0144924Y0071614D01*
X0145890Y0070415D02*
X0195392Y0070415D01*
X0195508Y0069217D02*
X0146610Y0069217D01*
X0147329Y0068018D02*
X0195623Y0068018D01*
X0195739Y0066820D02*
X0148048Y0066820D01*
X0148768Y0065621D02*
X0195855Y0065621D01*
X0195867Y0064423D02*
X0149487Y0064423D01*
X0150021Y0063224D02*
X0195860Y0063224D01*
X0195853Y0062026D02*
X0150467Y0062026D01*
X0150913Y0060827D02*
X0195818Y0060827D01*
X0195819Y0060851D02*
X0195819Y0060851D01*
X0195771Y0059629D02*
X0151359Y0059629D01*
X0151805Y0058430D02*
X0196145Y0058430D01*
X0195770Y0059605D02*
X0195770Y0059605D01*
X0196527Y0057232D02*
X0152251Y0057232D01*
X0152448Y0056701D02*
X0152448Y0056701D01*
X0152564Y0056033D02*
X0196910Y0056033D01*
X0197032Y0055651D02*
X0197032Y0055651D01*
X0197662Y0054834D02*
X0171428Y0054834D01*
X0169042Y0054834D02*
X0152772Y0054834D01*
X0152980Y0053636D02*
X0168253Y0053636D01*
X0167464Y0052437D02*
X0153189Y0052437D01*
X0153397Y0051239D02*
X0166674Y0051239D01*
X0165885Y0050040D02*
X0153605Y0050040D01*
X0153785Y0048842D02*
X0165096Y0048842D01*
X0164307Y0047643D02*
X0153771Y0047643D01*
X0153756Y0046445D02*
X0163517Y0046445D01*
X0162728Y0045246D02*
X0153741Y0045246D01*
X0153726Y0044048D02*
X0161939Y0044048D01*
X0161149Y0042849D02*
X0153711Y0042849D01*
X0153697Y0041651D02*
X0160360Y0041651D01*
X0159571Y0040452D02*
X0153549Y0040452D01*
X0153310Y0039254D02*
X0158782Y0039254D01*
X0157992Y0038055D02*
X0153071Y0038055D01*
X0152832Y0036857D02*
X0157203Y0036857D01*
X0156414Y0035658D02*
X0152594Y0035658D01*
X0152355Y0034460D02*
X0155625Y0034460D01*
X0154835Y0033261D02*
X0152070Y0033261D01*
X0152161Y0033489D02*
X0152161Y0033489D01*
X0151590Y0032063D02*
X0154046Y0032063D01*
X0153257Y0030864D02*
X0151110Y0030864D01*
X0150630Y0029666D02*
X0152468Y0029666D01*
X0151678Y0028467D02*
X0150150Y0028467D01*
X0150399Y0029087D02*
X0150399Y0029087D01*
X0150889Y0027269D02*
X0149356Y0027269D01*
X0150100Y0026070D02*
X0148452Y0026070D01*
X0147815Y0025228D02*
X0147815Y0025228D01*
X0147815Y0025228D01*
X0147355Y0024872D02*
X0149311Y0024872D01*
X0148521Y0023673D02*
X0145806Y0023673D01*
X0144915Y0022984D02*
X0144915Y0022984D01*
X0143686Y0022475D02*
X0147732Y0022475D01*
X0146943Y0021276D02*
X0140109Y0021276D01*
X0139696Y0020078D02*
X0146153Y0020078D01*
X0145364Y0018879D02*
X0126950Y0018879D01*
X0127768Y0017681D02*
X0144575Y0017681D01*
X0143786Y0016482D02*
X0128587Y0016482D01*
X0129405Y0015284D02*
X0142996Y0015284D01*
X0142207Y0014085D02*
X0130224Y0014085D01*
X0131042Y0012887D02*
X0141418Y0012887D01*
X0140629Y0011688D02*
X0131861Y0011688D01*
X0132679Y0010490D02*
X0139839Y0010490D01*
X0139050Y0009291D02*
X0133498Y0009291D01*
X0134316Y0008093D02*
X0138261Y0008093D01*
X0137472Y0006894D02*
X0135135Y0006894D01*
X0135953Y0005696D02*
X0136682Y0005696D01*
X0133004Y0020078D02*
X0126131Y0020078D01*
X0125313Y0021276D02*
X0132591Y0021276D01*
X0129727Y0022475D02*
X0124494Y0022475D01*
X0123676Y0023673D02*
X0127503Y0023673D01*
X0127919Y0023281D02*
X0127919Y0023281D01*
X0126232Y0024872D02*
X0122857Y0024872D01*
X0122039Y0026070D02*
X0125085Y0026070D01*
X0125205Y0025840D02*
X0125205Y0025840D01*
X0124464Y0027269D02*
X0121220Y0027269D01*
X0120402Y0028467D02*
X0123843Y0028467D01*
X0123414Y0029666D02*
X0119583Y0029666D01*
X0118765Y0030864D02*
X0123243Y0030864D01*
X0123072Y0032063D02*
X0117946Y0032063D01*
X0117128Y0033261D02*
X0123042Y0033261D01*
X0123278Y0034460D02*
X0116309Y0034460D01*
X0115491Y0035658D02*
X0123514Y0035658D01*
X0123681Y0036504D02*
X0123681Y0036504D01*
X0123888Y0036857D02*
X0114672Y0036857D01*
X0113854Y0038055D02*
X0124592Y0038055D01*
X0124206Y0037398D02*
X0124206Y0037398D01*
X0125295Y0039254D02*
X0113035Y0039254D01*
X0112217Y0040452D02*
X0125999Y0040452D01*
X0126703Y0041651D02*
X0111398Y0041651D01*
X0110580Y0042849D02*
X0127470Y0042849D01*
X0128269Y0044048D02*
X0109761Y0044048D01*
X0108943Y0045246D02*
X0129068Y0045246D01*
X0129867Y0046445D02*
X0108124Y0046445D01*
X0107306Y0047643D02*
X0130666Y0047643D01*
X0131465Y0048842D02*
X0106487Y0048842D01*
X0105669Y0050040D02*
X0132297Y0050040D01*
X0133199Y0051239D02*
X0104850Y0051239D01*
X0104032Y0052437D02*
X0133461Y0052437D01*
X0133860Y0053636D02*
X0103213Y0053636D01*
X0100043Y0054834D02*
X0059901Y0054834D01*
X0058702Y0053636D02*
X0093651Y0053636D01*
X0087259Y0052437D02*
X0057504Y0052437D01*
X0062298Y0057232D02*
X0138480Y0057232D01*
X0138464Y0058430D02*
X0114166Y0058430D01*
X0113850Y0058407D02*
X0113850Y0058407D01*
X0113534Y0058430D02*
X0063496Y0058430D01*
X0064067Y0063224D02*
X0064247Y0063224D01*
X0062868Y0064423D02*
X0088003Y0064423D01*
X0083469Y0065621D02*
X0061670Y0065621D01*
X0060055Y0065621D02*
X0060002Y0065621D01*
X0060167Y0066820D02*
X0067514Y0066820D01*
X0069186Y0066820D02*
X0076105Y0066820D01*
X0080867Y0051239D02*
X0044990Y0051239D01*
X0044741Y0050040D02*
X0074475Y0050040D01*
X0068082Y0048842D02*
X0044491Y0048842D01*
X0044241Y0047643D02*
X0061690Y0047643D01*
X0055298Y0046445D02*
X0043992Y0046445D01*
X0043742Y0045246D02*
X0048906Y0045246D01*
X0045240Y0052437D02*
X0054171Y0052437D01*
X0052973Y0053636D02*
X0045490Y0053636D01*
X0045740Y0054834D02*
X0051774Y0054834D01*
X0051019Y0056033D02*
X0045989Y0056033D01*
X0046239Y0057232D02*
X0051665Y0057232D01*
X0051304Y0057894D02*
X0051304Y0057894D01*
X0050829Y0058430D02*
X0046489Y0058430D01*
X0046738Y0059629D02*
X0050204Y0059629D01*
X0050579Y0058712D02*
X0050579Y0058712D01*
X0049713Y0060827D02*
X0046988Y0060827D01*
X0047238Y0062026D02*
X0049221Y0062026D01*
X0049072Y0063224D02*
X0047487Y0063224D01*
X0047737Y0064423D02*
X0049008Y0064423D01*
X0048944Y0065621D02*
X0047987Y0065621D01*
X0048236Y0066820D02*
X0049128Y0066820D01*
X0049476Y0068018D02*
X0048486Y0068018D01*
X0048736Y0069217D02*
X0049824Y0069217D01*
X0049991Y0069790D02*
X0049991Y0069790D01*
X0050435Y0070415D02*
X0048985Y0070415D01*
X0049235Y0071614D02*
X0051288Y0071614D01*
X0052142Y0072812D02*
X0049485Y0072812D01*
X0049735Y0074011D02*
X0053758Y0074011D01*
X0052218Y0072919D02*
X0052218Y0072919D01*
X0052218Y0072919D01*
X0049984Y0075209D02*
X0055593Y0075209D01*
X0055352Y0075140D02*
X0055352Y0075140D01*
X0059043Y0076203D02*
X0059043Y0076203D01*
X0069369Y0123150D02*
X0116329Y0123150D01*
X0096633Y0141127D02*
X0050634Y0141127D01*
X0049388Y0142326D02*
X0097531Y0142326D01*
X0098349Y0143524D02*
X0048141Y0143524D01*
X0047925Y0143732D02*
X0047925Y0143732D01*
X0046438Y0144723D02*
X0099167Y0144723D01*
X0099984Y0145921D02*
X0044640Y0145921D01*
X0042339Y0147120D02*
X0100802Y0147120D01*
X0101620Y0148318D02*
X0039585Y0148318D01*
X0039230Y0148473D02*
X0039230Y0148473D01*
X0036005Y0149237D02*
X0036005Y0149237D01*
X0034893Y0149501D02*
X0034893Y0149501D01*
X0024838Y0150715D02*
X0103255Y0150715D01*
X0102437Y0149517D02*
X0023040Y0149517D01*
X0032250Y0131539D02*
X0012756Y0131539D01*
X0042069Y0139929D02*
X0045973Y0139929D01*
X0047220Y0138730D02*
X0043801Y0138730D01*
X0044238Y0137532D02*
X0048453Y0137532D01*
X0048541Y0136333D02*
X0044159Y0136333D01*
X0043470Y0135135D02*
X0049230Y0135135D01*
X0054561Y0136333D02*
X0092859Y0136333D01*
X0093537Y0137098D02*
X0093537Y0137098D01*
X0093870Y0137532D02*
X0054238Y0137532D01*
X0053801Y0138730D02*
X0094791Y0138730D01*
X0095712Y0139929D02*
X0052069Y0139929D01*
X0055755Y0135135D02*
X0091793Y0135135D01*
X0090345Y0133936D02*
X0057046Y0133936D01*
X0058336Y0132738D02*
X0088896Y0132738D01*
X0087253Y0131539D02*
X0060279Y0131539D01*
X0062267Y0130341D02*
X0084982Y0130341D01*
X0082320Y0129142D02*
X0065243Y0129142D01*
X0106459Y0063224D02*
X0121241Y0063224D01*
X0120888Y0058925D02*
X0120888Y0058925D01*
X0124032Y0059629D02*
X0138596Y0059629D01*
X0137718Y0060827D02*
X0128712Y0060827D01*
X0127775Y0060467D02*
X0127775Y0060467D01*
X0131828Y0062026D02*
X0135854Y0062026D01*
X0138166Y0065621D02*
X0143913Y0065621D01*
X0144632Y0064423D02*
X0139794Y0064423D01*
X0141289Y0063224D02*
X0145351Y0063224D01*
X0146025Y0062026D02*
X0141959Y0062026D01*
X0141297Y0063218D02*
X0141297Y0063218D01*
X0142625Y0060827D02*
X0146471Y0060827D01*
X0146917Y0059629D02*
X0143656Y0059629D01*
X0144236Y0058430D02*
X0147363Y0058430D01*
X0147809Y0057232D02*
X0144220Y0057232D01*
X0143618Y0056033D02*
X0148255Y0056033D01*
X0148547Y0054834D02*
X0143503Y0054834D01*
X0143277Y0053636D02*
X0148755Y0053636D01*
X0148964Y0052437D02*
X0143051Y0052437D01*
X0142824Y0051239D02*
X0149172Y0051239D01*
X0149380Y0050040D02*
X0142598Y0050040D01*
X0142367Y0048842D02*
X0149588Y0048842D01*
X0149608Y0047643D02*
X0141820Y0047643D01*
X0141274Y0046445D02*
X0149593Y0046445D01*
X0149578Y0045246D02*
X0140727Y0045246D01*
X0140180Y0044048D02*
X0149563Y0044048D01*
X0149548Y0042849D02*
X0139493Y0042849D01*
X0139238Y0041651D02*
X0149534Y0041651D01*
X0149304Y0040452D02*
X0138787Y0040452D01*
X0137027Y0039254D02*
X0149065Y0039254D01*
X0148827Y0038055D02*
X0135431Y0038055D01*
X0135414Y0038036D02*
X0135414Y0038036D01*
X0135414Y0038036D01*
X0134087Y0036857D02*
X0138844Y0036857D01*
X0137646Y0035658D02*
X0132738Y0035658D01*
X0132679Y0035605D02*
X0132679Y0035605D01*
X0132235Y0034460D02*
X0137250Y0034460D01*
X0141076Y0032063D02*
X0147244Y0032063D01*
X0147661Y0033261D02*
X0142274Y0033261D01*
X0142950Y0034460D02*
X0148078Y0034460D01*
X0148349Y0035658D02*
X0142554Y0035658D01*
X0141356Y0036857D02*
X0148588Y0036857D01*
X0146763Y0030864D02*
X0140109Y0030864D01*
X0140109Y0029666D02*
X0146047Y0029666D01*
X0145142Y0028467D02*
X0140109Y0028467D01*
X0140109Y0026070D02*
X0141690Y0026070D01*
X0143777Y0027269D02*
X0129664Y0027269D01*
X0128459Y0028467D02*
X0132591Y0028467D01*
X0132358Y0029176D02*
X0132358Y0029176D01*
X0131159Y0029666D02*
X0127838Y0029666D01*
X0127383Y0030864D02*
X0129506Y0030864D01*
X0128763Y0032063D02*
X0127212Y0032063D01*
X0127219Y0033261D02*
X0128286Y0033261D01*
X0128331Y0032760D02*
X0128331Y0032760D01*
X0128180Y0034460D02*
X0127455Y0034460D01*
X0128102Y0035334D02*
X0128102Y0035334D01*
X0128231Y0035658D02*
X0127869Y0035658D01*
X0128541Y0036857D02*
X0128706Y0036857D01*
X0131727Y0026070D02*
X0132591Y0026070D01*
X0141527Y0021580D02*
X0141527Y0021580D01*
X0139048Y0053636D02*
X0138840Y0053636D01*
X0134787Y0066620D02*
X0134787Y0066620D01*
X0131063Y0066245D02*
X0131063Y0066245D01*
X0106812Y0058925D02*
X0106812Y0058925D01*
X0155456Y0074231D02*
X0155456Y0074231D01*
X0167979Y0081202D02*
X0192612Y0081202D01*
X0191867Y0082400D02*
X0170628Y0082400D01*
X0173662Y0083599D02*
X0190473Y0083599D01*
X0188207Y0084797D02*
X0178814Y0084797D01*
X0174663Y0083931D02*
X0174663Y0083931D01*
X0185091Y0094385D02*
X0219817Y0094385D01*
X0220042Y0093187D02*
X0191646Y0093187D01*
X0189998Y0093797D02*
X0189998Y0093797D01*
X0188411Y0093987D02*
X0188411Y0093987D01*
X0190328Y0088393D02*
X0192710Y0088393D01*
X0192574Y0087194D02*
X0194503Y0087194D01*
X0194034Y0085996D02*
X0196142Y0085996D01*
X0194932Y0085259D02*
X0194932Y0085259D01*
X0195219Y0084797D02*
X0197250Y0084797D01*
X0198358Y0083599D02*
X0195964Y0083599D01*
X0196708Y0082400D02*
X0199098Y0082400D01*
X0199771Y0081202D02*
X0197223Y0081202D01*
X0197087Y0081791D02*
X0197087Y0081791D01*
X0197502Y0080003D02*
X0200437Y0080003D01*
X0200777Y0078805D02*
X0198730Y0078805D01*
X0199238Y0077606D02*
X0201116Y0077606D01*
X0201456Y0076408D02*
X0199190Y0076408D01*
X0198853Y0075209D02*
X0201534Y0075209D01*
X0201583Y0074011D02*
X0199137Y0074011D01*
X0199229Y0073622D02*
X0199229Y0073622D01*
X0199307Y0072812D02*
X0201633Y0072812D01*
X0200850Y0071614D02*
X0199423Y0071614D01*
X0199539Y0070415D02*
X0200461Y0070415D01*
X0200589Y0069217D02*
X0199655Y0069217D01*
X0199771Y0068018D02*
X0201115Y0068018D01*
X0200987Y0066820D02*
X0199887Y0066820D01*
X0200003Y0065621D02*
X0200939Y0065621D01*
X0200896Y0064423D02*
X0199963Y0064423D01*
X0199916Y0063224D02*
X0200853Y0063224D01*
X0200810Y0062026D02*
X0199868Y0062026D01*
X0199881Y0062349D02*
X0199881Y0062349D01*
X0200801Y0061765D02*
X0200801Y0061765D01*
X0201236Y0060827D02*
X0199882Y0060827D01*
X0200085Y0059629D02*
X0201791Y0059629D01*
X0201984Y0059212D02*
X0201984Y0059212D01*
X0202977Y0058430D02*
X0200467Y0058430D01*
X0201014Y0057232D02*
X0205391Y0057232D01*
X0208074Y0057232D02*
X0212322Y0057232D01*
X0212601Y0056033D02*
X0201940Y0056033D01*
X0203366Y0054834D02*
X0211991Y0054834D01*
X0208849Y0053636D02*
X0206370Y0053636D01*
X0203546Y0050040D02*
X0197529Y0050040D01*
X0199513Y0052437D02*
X0184478Y0052437D01*
X0177953Y0053636D02*
X0198588Y0053636D01*
X0201347Y0051239D02*
X0191004Y0051239D01*
X0203074Y0050144D02*
X0203074Y0050144D01*
X0204054Y0048842D02*
X0228356Y0048842D01*
X0228132Y0050040D02*
X0211704Y0050040D01*
X0214002Y0051239D02*
X0227907Y0051239D01*
X0227682Y0052437D02*
X0217529Y0052437D01*
X0216196Y0052437D02*
X0215581Y0052437D01*
X0214923Y0051719D02*
X0214923Y0051719D01*
X0218727Y0053636D02*
X0227457Y0053636D01*
X0227233Y0054834D02*
X0219926Y0054834D01*
X0221124Y0056033D02*
X0227008Y0056033D01*
X0226783Y0057232D02*
X0221681Y0057232D01*
X0220836Y0058430D02*
X0226558Y0058430D01*
X0226334Y0059629D02*
X0219638Y0059629D01*
X0218439Y0060827D02*
X0226109Y0060827D01*
X0225884Y0062026D02*
X0216378Y0062026D01*
X0216042Y0063224D02*
X0225660Y0063224D01*
X0225435Y0064423D02*
X0214843Y0064423D01*
X0213795Y0065621D02*
X0225210Y0065621D01*
X0224985Y0066820D02*
X0214182Y0066820D01*
X0214182Y0068018D02*
X0224761Y0068018D01*
X0224536Y0069217D02*
X0214067Y0069217D01*
X0209330Y0069217D02*
X0206111Y0069217D01*
X0206238Y0070415D02*
X0224311Y0070415D01*
X0224087Y0071614D02*
X0205850Y0071614D01*
X0205750Y0072812D02*
X0223862Y0072812D01*
X0223637Y0074011D02*
X0205701Y0074011D01*
X0205651Y0075209D02*
X0223412Y0075209D01*
X0223188Y0076408D02*
X0205602Y0076408D01*
X0205393Y0077606D02*
X0222963Y0077606D01*
X0222738Y0078805D02*
X0205053Y0078805D01*
X0204713Y0080003D02*
X0222514Y0080003D01*
X0222289Y0081202D02*
X0204373Y0081202D01*
X0203816Y0082400D02*
X0222064Y0082400D01*
X0221839Y0083599D02*
X0203144Y0083599D01*
X0202471Y0084797D02*
X0221615Y0084797D01*
X0221390Y0085996D02*
X0201745Y0085996D01*
X0201881Y0085850D02*
X0201881Y0085850D01*
X0200637Y0087194D02*
X0221165Y0087194D01*
X0220940Y0088393D02*
X0199529Y0088393D01*
X0198585Y0089413D02*
X0198585Y0089413D01*
X0198319Y0089591D02*
X0220716Y0089591D01*
X0220491Y0090790D02*
X0196527Y0090790D01*
X0194735Y0091988D02*
X0220266Y0091988D01*
X0194550Y0092112D02*
X0194550Y0092112D01*
X0205353Y0068018D02*
X0209214Y0068018D01*
X0209214Y0066820D02*
X0205065Y0066820D01*
X0205033Y0066462D02*
X0205033Y0066462D01*
X0204988Y0065621D02*
X0209602Y0065621D01*
X0208832Y0064423D02*
X0204923Y0064423D01*
X0204859Y0063224D02*
X0207633Y0063224D01*
X0207019Y0062026D02*
X0205146Y0062026D01*
X0204849Y0063029D02*
X0204849Y0063029D01*
X0209664Y0057675D02*
X0209664Y0057675D01*
X0212914Y0058430D02*
X0213446Y0058430D01*
X0214113Y0059629D02*
X0214644Y0059629D01*
X0215311Y0060827D02*
X0215843Y0060827D01*
X0210579Y0047643D02*
X0228581Y0047643D01*
X0228806Y0046445D02*
X0217105Y0046445D01*
X0223630Y0045246D02*
X0229030Y0045246D01*
X0207128Y0049253D02*
X0207128Y0049253D01*
X0167254Y0123150D02*
X0247908Y0123150D01*
X0237366Y0124348D02*
X0167290Y0124348D01*
X0167325Y0125547D02*
X0235046Y0125547D01*
X0236052Y0124956D02*
X0236052Y0124956D01*
X0236946Y0124431D02*
X0236946Y0124431D01*
X0233004Y0126745D02*
X0167360Y0126745D01*
X0167438Y0127944D02*
X0231015Y0127944D01*
X0229217Y0129142D02*
X0167605Y0129142D01*
X0167772Y0130341D02*
X0227420Y0130341D01*
X0225622Y0131539D02*
X0167940Y0131539D01*
X0168107Y0132738D02*
X0223824Y0132738D01*
X0222228Y0133936D02*
X0168275Y0133936D01*
X0168442Y0135135D02*
X0219230Y0135135D01*
X0218541Y0136333D02*
X0168609Y0136333D01*
X0168777Y0137532D02*
X0218461Y0137532D01*
X0218899Y0138730D02*
X0168944Y0138730D01*
X0166291Y0175884D02*
X0177955Y0175884D01*
X0191727Y0189068D02*
X0223409Y0189068D01*
X0223659Y0190266D02*
X0192653Y0190266D01*
X0193771Y0191465D02*
X0223908Y0191465D01*
X0224158Y0192663D02*
X0195539Y0192663D01*
X0186748Y0196259D02*
X0177966Y0196259D01*
X0177006Y0195060D02*
X0185744Y0195060D01*
X0185870Y0195280D02*
X0185870Y0195280D01*
X0166725Y0193862D02*
X0166499Y0193862D01*
X0165488Y0192663D02*
X0164722Y0192663D01*
X0169509Y0217832D02*
X0170915Y0217832D01*
X0171124Y0217832D02*
X0171521Y0217832D01*
X0184441Y0220229D02*
X0218163Y0220229D01*
X0219362Y0221428D02*
X0191099Y0221428D01*
X0197758Y0222626D02*
X0230400Y0222626D01*
X0230151Y0221428D02*
X0220363Y0221428D01*
X0221562Y0220229D02*
X0229901Y0220229D01*
X0229651Y0219031D02*
X0222760Y0219031D01*
X0223959Y0217832D02*
X0229401Y0217832D01*
X0229152Y0216634D02*
X0224681Y0216634D01*
X0224001Y0215435D02*
X0228902Y0215435D01*
X0228652Y0214237D02*
X0224193Y0214237D01*
X0224621Y0213622D02*
X0224621Y0213622D01*
X0224791Y0213038D02*
X0228403Y0213038D01*
X0228153Y0211839D02*
X0225139Y0211839D01*
X0225487Y0210641D02*
X0227903Y0210641D01*
X0227654Y0209442D02*
X0225708Y0209442D01*
X0225656Y0208244D02*
X0227404Y0208244D01*
X0227154Y0207045D02*
X0225604Y0207045D01*
X0225542Y0205847D02*
X0226905Y0205847D01*
X0226655Y0204648D02*
X0225078Y0204648D01*
X0224614Y0203450D02*
X0226405Y0203450D01*
X0226155Y0202251D02*
X0224150Y0202251D01*
X0224126Y0202188D02*
X0224126Y0202188D01*
X0223179Y0201053D02*
X0225906Y0201053D01*
X0225656Y0199854D02*
X0222179Y0199854D01*
X0221593Y0199152D02*
X0221593Y0199152D01*
X0220782Y0198656D02*
X0225406Y0198656D01*
X0218221Y0197088D02*
X0218221Y0197088D01*
X0230650Y0223825D02*
X0204416Y0223825D01*
X0211075Y0225023D02*
X0230900Y0225023D01*
X0231149Y0226222D02*
X0217733Y0226222D01*
X0224391Y0227420D02*
X0231399Y0227420D01*
X0231649Y0228619D02*
X0231050Y0228619D01*
X0240887Y0142326D02*
X0260569Y0142326D01*
X0234131Y0131539D02*
X0232948Y0131539D01*
X0233556Y0131134D02*
X0233556Y0131134D01*
X0233001Y0132738D02*
X0231150Y0132738D01*
X0231791Y0133936D02*
X0229352Y0133936D01*
X0229230Y0135135D02*
X0227554Y0135135D01*
X0228541Y0136333D02*
X0225791Y0136333D01*
X0224238Y0137532D02*
X0228461Y0137532D01*
X0228899Y0138730D02*
X0223801Y0138730D01*
X0131916Y0229817D02*
X0110541Y0229817D01*
X0111330Y0231016D02*
X0132710Y0231016D01*
X0132474Y0230750D02*
X0132474Y0230750D01*
X0133461Y0232214D02*
X0112119Y0232214D01*
X0112908Y0233413D02*
X0133767Y0233413D01*
X0134865Y0234611D02*
X0113698Y0234611D01*
X0114487Y0235810D02*
X0136972Y0235810D01*
X0137286Y0236164D02*
X0137286Y0236164D01*
X0137286Y0236164D01*
X0138236Y0237008D02*
X0133521Y0237008D01*
X0134719Y0238207D02*
X0139585Y0238207D01*
X0140021Y0238595D02*
X0140021Y0238595D01*
X0140466Y0239405D02*
X0135450Y0239405D01*
X0131679Y0237008D02*
X0115276Y0237008D01*
X0116066Y0238207D02*
X0130481Y0238207D01*
X0129750Y0239405D02*
X0116855Y0239405D01*
X0117644Y0240604D02*
X0130091Y0240604D01*
X0131290Y0241802D02*
X0118433Y0241802D01*
X0119223Y0243001D02*
X0132591Y0243001D01*
X0132591Y0244199D02*
X0120012Y0244199D01*
X0120801Y0245398D02*
X0132591Y0245398D01*
X0132978Y0246596D02*
X0121590Y0246596D01*
X0122380Y0247795D02*
X0132787Y0247795D01*
X0132591Y0248993D02*
X0123169Y0248993D01*
X0123958Y0250192D02*
X0132591Y0250192D01*
X0132591Y0251390D02*
X0124747Y0251390D01*
X0125537Y0252589D02*
X0132591Y0252589D01*
X0132669Y0253787D02*
X0126326Y0253787D01*
X0127115Y0254986D02*
X0145716Y0254986D01*
X0144917Y0256184D02*
X0127904Y0256184D01*
X0128694Y0257383D02*
X0144118Y0257383D01*
X0143319Y0258581D02*
X0129483Y0258581D01*
X0130272Y0259780D02*
X0142520Y0259780D01*
X0141721Y0260978D02*
X0131062Y0260978D01*
X0131851Y0262177D02*
X0140922Y0262177D01*
X0140123Y0263375D02*
X0132640Y0263375D01*
X0133429Y0264574D02*
X0139324Y0264574D01*
X0138525Y0265772D02*
X0134219Y0265772D01*
X0135008Y0266971D02*
X0137726Y0266971D01*
X0136927Y0268170D02*
X0135797Y0268170D01*
X0140031Y0253787D02*
X0146515Y0253787D01*
X0147314Y0252589D02*
X0140109Y0252589D01*
X0140109Y0240604D02*
X0140135Y0240604D01*
X0131200Y0228619D02*
X0109751Y0228619D01*
X0108962Y0227420D02*
X0130484Y0227420D01*
X0129767Y0226222D02*
X0108173Y0226222D01*
X0107384Y0225023D02*
X0129051Y0225023D01*
X0128796Y0224597D02*
X0128796Y0224597D01*
X0128513Y0223825D02*
X0106594Y0223825D01*
X0105805Y0222626D02*
X0128075Y0222626D01*
X0127636Y0221428D02*
X0105016Y0221428D01*
X0104227Y0220229D02*
X0127197Y0220229D01*
D19*
X0136350Y0222100D03*
X0136350Y0232100D03*
X0111350Y0207100D03*
X0120350Y0179600D03*
X0124350Y0171600D03*
X0147850Y0171600D03*
X0135350Y0144850D03*
X0122600Y0124600D03*
X0138350Y0109100D03*
X0149600Y0104850D03*
X0152850Y0096100D03*
X0151850Y0070350D03*
X0141350Y0057850D03*
X0136350Y0052100D03*
X0136350Y0042100D03*
X0078350Y0089350D03*
X0076350Y0077100D03*
X0068350Y0069600D03*
X0066350Y0107100D03*
X0051350Y0137100D03*
X0041350Y0137100D03*
X0083350Y0153850D03*
X0065600Y0178100D03*
X0079850Y0198600D03*
X0072850Y0206600D03*
X0159350Y0123850D03*
X0176350Y0132100D03*
X0192100Y0111850D03*
X0205600Y0094850D03*
X0196350Y0077100D03*
X0203350Y0070100D03*
X0221350Y0137100D03*
X0231350Y0137100D03*
X0206350Y0157100D03*
X0200350Y0196100D03*
X0207350Y0203100D03*
D20*
X0205350Y0203100D01*
X0214350Y0203100D02*
X0214468Y0203106D01*
X0214586Y0203117D01*
X0214703Y0203131D01*
X0214820Y0203149D01*
X0214936Y0203171D01*
X0215051Y0203197D01*
X0215165Y0203227D01*
X0215278Y0203260D01*
X0215390Y0203297D01*
X0215501Y0203338D01*
X0215610Y0203382D01*
X0215718Y0203430D01*
X0215824Y0203482D01*
X0215929Y0203537D01*
X0216032Y0203595D01*
X0216132Y0203657D01*
X0216231Y0203722D01*
X0216327Y0203790D01*
X0216421Y0203861D01*
X0216513Y0203936D01*
X0216602Y0204013D01*
X0216688Y0204093D01*
X0216772Y0204176D01*
X0216853Y0204262D01*
X0216931Y0204351D01*
X0217007Y0204442D01*
X0217079Y0204535D01*
X0217148Y0204631D01*
X0217214Y0204729D01*
X0217277Y0204829D01*
X0217336Y0204931D01*
X0217392Y0205035D01*
X0217444Y0205140D01*
X0217493Y0205248D01*
X0217539Y0205357D01*
X0217580Y0205467D01*
X0217619Y0205579D01*
X0217653Y0205692D01*
X0217684Y0205806D01*
X0217711Y0205920D01*
X0217734Y0206036D01*
X0217753Y0206153D01*
X0217768Y0206270D01*
X0217780Y0206387D01*
X0217788Y0206505D01*
X0217792Y0206623D01*
X0217791Y0206741D01*
X0217788Y0206859D01*
X0217780Y0206977D01*
X0217768Y0207094D01*
X0217752Y0207211D01*
X0217733Y0207327D01*
X0217710Y0207443D01*
X0217683Y0207558D01*
X0217652Y0207672D01*
X0217617Y0207785D01*
X0217579Y0207897D01*
X0217537Y0208007D01*
X0217492Y0208116D01*
X0217443Y0208223D01*
X0217390Y0208329D01*
X0217334Y0208433D01*
X0217275Y0208535D01*
X0217212Y0208635D01*
X0217146Y0208732D01*
X0217077Y0208828D01*
X0217004Y0208921D01*
X0216929Y0209012D01*
X0216851Y0209101D01*
X0216850Y0209100D02*
X0214698Y0211448D01*
X0221849Y0214099D02*
X0221987Y0213897D01*
X0222119Y0213691D01*
X0222247Y0213481D01*
X0222369Y0213269D01*
X0222487Y0213054D01*
X0222598Y0212836D01*
X0222705Y0212616D01*
X0222806Y0212392D01*
X0222902Y0212167D01*
X0222992Y0211939D01*
X0223076Y0211709D01*
X0223155Y0211477D01*
X0223228Y0211243D01*
X0223296Y0211008D01*
X0223357Y0210771D01*
X0223413Y0210532D01*
X0223463Y0210292D01*
X0223507Y0210051D01*
X0223545Y0209809D01*
X0223577Y0209566D01*
X0223604Y0209323D01*
X0223624Y0209079D01*
X0223638Y0208834D01*
X0223647Y0208589D01*
X0223649Y0208344D01*
X0223645Y0208099D01*
X0223636Y0207855D01*
X0223620Y0207610D01*
X0223599Y0207366D01*
X0223571Y0207123D01*
X0223538Y0206880D01*
X0223498Y0206638D01*
X0223453Y0206398D01*
X0223402Y0206158D01*
X0223345Y0205920D01*
X0223282Y0205683D01*
X0223213Y0205448D01*
X0223139Y0205214D01*
X0223059Y0204983D01*
X0222973Y0204753D01*
X0222882Y0204526D01*
X0222785Y0204301D01*
X0222683Y0204078D01*
X0222576Y0203858D01*
X0222463Y0203641D01*
X0222344Y0203426D01*
X0222221Y0203215D01*
X0222092Y0203006D01*
X0221959Y0202801D01*
X0221820Y0202599D01*
X0221676Y0202400D01*
X0221528Y0202205D01*
X0221375Y0202014D01*
X0221217Y0201827D01*
X0221055Y0201643D01*
X0220888Y0201464D01*
X0220717Y0201288D01*
X0220542Y0201117D01*
X0220363Y0200950D01*
X0220179Y0200788D01*
X0219992Y0200630D01*
X0219801Y0200477D01*
X0219606Y0200328D01*
X0219407Y0200185D01*
X0219206Y0200046D01*
X0219000Y0199912D01*
X0218792Y0199783D01*
X0218580Y0199659D01*
X0218366Y0199541D01*
X0218149Y0199428D01*
X0217929Y0199320D01*
X0217706Y0199218D01*
X0217481Y0199121D01*
X0217254Y0199029D01*
X0217024Y0198944D01*
X0216793Y0198863D01*
X0216560Y0198789D01*
X0216324Y0198720D01*
X0216088Y0198657D01*
X0215850Y0198600D01*
X0200350Y0196100D02*
X0200057Y0196091D01*
X0199765Y0196074D01*
X0199473Y0196051D01*
X0199181Y0196021D01*
X0198891Y0195983D01*
X0198601Y0195939D01*
X0198313Y0195888D01*
X0198025Y0195830D01*
X0197740Y0195764D01*
X0197456Y0195692D01*
X0197174Y0195614D01*
X0196893Y0195528D01*
X0196615Y0195436D01*
X0196340Y0195337D01*
X0196066Y0195231D01*
X0195796Y0195119D01*
X0195528Y0195000D01*
X0195263Y0194875D01*
X0195001Y0194744D01*
X0194743Y0194606D01*
X0194487Y0194462D01*
X0194236Y0194312D01*
X0193988Y0194156D01*
X0193744Y0193994D01*
X0193503Y0193826D01*
X0193267Y0193653D01*
X0193036Y0193473D01*
X0192808Y0193289D01*
X0192585Y0193098D01*
X0192367Y0192903D01*
X0192154Y0192702D01*
X0191945Y0192496D01*
X0191742Y0192286D01*
X0191543Y0192070D01*
X0191350Y0191850D01*
X0141351Y0237099D02*
X0140304Y0236147D01*
X0139280Y0235170D01*
X0138280Y0234170D01*
X0137303Y0233146D01*
X0136351Y0232099D01*
X0141349Y0237100D02*
X0141435Y0237179D01*
X0141518Y0237260D01*
X0141598Y0237344D01*
X0141675Y0237431D01*
X0141749Y0237521D01*
X0141820Y0237613D01*
X0141888Y0237707D01*
X0141953Y0237804D01*
X0142015Y0237902D01*
X0142073Y0238003D01*
X0142127Y0238106D01*
X0142178Y0238210D01*
X0142226Y0238316D01*
X0142270Y0238424D01*
X0142310Y0238533D01*
X0142347Y0238643D01*
X0142380Y0238755D01*
X0142409Y0238867D01*
X0142434Y0238981D01*
X0142455Y0239095D01*
X0142473Y0239210D01*
X0142487Y0239325D01*
X0142496Y0239441D01*
X0142502Y0239557D01*
X0142504Y0239673D01*
X0142502Y0239790D01*
X0142496Y0239906D01*
X0142486Y0240022D01*
X0142472Y0240137D01*
X0142455Y0240252D01*
X0142433Y0240366D01*
X0142408Y0240480D01*
X0142378Y0240592D01*
X0142345Y0240704D01*
X0142309Y0240814D01*
X0142268Y0240923D01*
X0142224Y0241030D01*
X0142176Y0241136D01*
X0142125Y0241241D01*
X0142070Y0241343D01*
X0142012Y0241444D01*
X0141950Y0241542D01*
X0141886Y0241639D01*
X0141817Y0241733D01*
X0141746Y0241825D01*
X0141672Y0241914D01*
X0141595Y0242001D01*
X0141514Y0242085D01*
X0141431Y0242167D01*
X0141346Y0242245D01*
X0141258Y0242321D01*
X0141167Y0242394D01*
X0141074Y0242463D01*
X0140978Y0242529D01*
X0140880Y0242592D01*
X0140781Y0242652D01*
X0140679Y0242708D01*
X0140575Y0242761D01*
X0140470Y0242811D01*
X0140363Y0242856D01*
X0140255Y0242898D01*
X0140145Y0242937D01*
X0140034Y0242971D01*
X0139922Y0243002D01*
X0139809Y0243029D01*
X0139695Y0243053D01*
X0139581Y0243072D01*
X0139465Y0243088D01*
X0139350Y0243099D01*
X0139350Y0243100D02*
X0136350Y0243350D01*
X0139850Y0250100D02*
X0140048Y0250098D01*
X0140245Y0250090D01*
X0140443Y0250078D01*
X0140640Y0250062D01*
X0140836Y0250040D01*
X0141032Y0250014D01*
X0141227Y0249982D01*
X0141422Y0249947D01*
X0141615Y0249906D01*
X0141808Y0249861D01*
X0141999Y0249811D01*
X0142189Y0249756D01*
X0142378Y0249697D01*
X0142565Y0249633D01*
X0142750Y0249565D01*
X0142934Y0249492D01*
X0143116Y0249415D01*
X0143296Y0249333D01*
X0143474Y0249247D01*
X0143650Y0249157D01*
X0143823Y0249062D01*
X0143995Y0248963D01*
X0144164Y0248860D01*
X0144330Y0248753D01*
X0144493Y0248642D01*
X0144654Y0248527D01*
X0144812Y0248409D01*
X0144967Y0248286D01*
X0145119Y0248160D01*
X0145268Y0248030D01*
X0145414Y0247896D01*
X0145556Y0247759D01*
X0145695Y0247618D01*
X0145831Y0247474D01*
X0145963Y0247327D01*
X0146091Y0247177D01*
X0146216Y0247024D01*
X0146337Y0246867D01*
X0146454Y0246708D01*
X0146567Y0246546D01*
X0146677Y0246381D01*
X0146782Y0246214D01*
X0146883Y0246044D01*
X0146980Y0245871D01*
X0147072Y0245697D01*
X0147161Y0245520D01*
X0147245Y0245341D01*
X0147325Y0245160D01*
X0147400Y0244977D01*
X0147471Y0244793D01*
X0147537Y0244606D01*
X0147599Y0244419D01*
X0147656Y0244229D01*
X0147709Y0244039D01*
X0147756Y0243847D01*
X0147800Y0243654D01*
X0147838Y0243460D01*
X0147872Y0243265D01*
X0147901Y0243070D01*
X0147925Y0242874D01*
X0147945Y0242677D01*
X0147959Y0242480D01*
X0147969Y0242282D01*
X0147974Y0242085D01*
X0147975Y0241887D01*
X0147970Y0241689D01*
X0147961Y0241492D01*
X0147946Y0241295D01*
X0147928Y0241098D01*
X0147904Y0240902D01*
X0147875Y0240706D01*
X0147842Y0240511D01*
X0147804Y0240317D01*
X0147761Y0240124D01*
X0147714Y0239932D01*
X0147662Y0239741D01*
X0147605Y0239552D01*
X0147544Y0239364D01*
X0147478Y0239177D01*
X0147408Y0238993D01*
X0147333Y0238810D01*
X0147254Y0238629D01*
X0147170Y0238449D01*
X0147082Y0238272D01*
X0146990Y0238097D01*
X0146894Y0237925D01*
X0146793Y0237755D01*
X0146688Y0237587D01*
X0146579Y0237422D01*
X0146467Y0237260D01*
X0146350Y0237100D01*
X0139850Y0250100D02*
X0136350Y0250850D01*
X0077350Y0215100D02*
X0077400Y0213579D01*
X0077485Y0212060D01*
X0077607Y0210544D01*
X0077764Y0209031D01*
X0077956Y0207522D01*
X0078184Y0206017D01*
X0078447Y0204519D01*
X0078746Y0203027D01*
X0079079Y0201543D01*
X0079447Y0200067D01*
X0079850Y0198600D01*
X0079880Y0198433D01*
X0079914Y0198265D01*
X0079952Y0198099D01*
X0079995Y0197934D01*
X0080041Y0197770D01*
X0080091Y0197607D01*
X0080145Y0197445D01*
X0080203Y0197285D01*
X0080264Y0197126D01*
X0080330Y0196968D01*
X0080399Y0196812D01*
X0080472Y0196658D01*
X0080549Y0196506D01*
X0080629Y0196356D01*
X0080713Y0196207D01*
X0080800Y0196061D01*
X0080891Y0195916D01*
X0080986Y0195774D01*
X0081084Y0195635D01*
X0081185Y0195497D01*
X0081289Y0195363D01*
X0081397Y0195230D01*
X0081508Y0195101D01*
X0081621Y0194974D01*
X0081738Y0194850D01*
X0081858Y0194728D01*
X0081981Y0194610D01*
X0082106Y0194494D01*
X0082235Y0194382D01*
X0082365Y0194273D01*
X0082499Y0194167D01*
X0082635Y0194064D01*
X0082774Y0193964D01*
X0082914Y0193868D01*
X0083057Y0193775D01*
X0083203Y0193686D01*
X0083350Y0193600D01*
X0053600Y0134350D02*
X0054521Y0133251D01*
X0055467Y0132174D01*
X0056438Y0131120D01*
X0057433Y0130088D01*
X0058452Y0129080D01*
X0059495Y0128096D01*
X0060560Y0127137D01*
X0061647Y0126203D01*
X0062756Y0125294D01*
X0063886Y0124412D01*
X0065036Y0123556D01*
X0066205Y0122728D01*
X0067394Y0121927D01*
X0068601Y0121154D01*
X0069826Y0120409D01*
X0071068Y0119693D01*
X0072326Y0119007D01*
X0073600Y0118350D01*
X0076350Y0077100D02*
X0075659Y0076786D01*
X0074960Y0076488D01*
X0074254Y0076207D01*
X0073542Y0075943D01*
X0072824Y0075695D01*
X0072101Y0075465D01*
X0071372Y0075251D01*
X0070638Y0075055D01*
X0069900Y0074876D01*
X0069158Y0074714D01*
X0068413Y0074569D01*
X0067664Y0074443D01*
X0066912Y0074333D01*
X0066158Y0074242D01*
X0065402Y0074168D01*
X0064645Y0074112D01*
X0063887Y0074074D01*
X0063127Y0074054D01*
X0062368Y0074051D01*
X0061609Y0074066D01*
X0060850Y0074100D01*
X0061350Y0069600D02*
X0061232Y0069594D01*
X0061114Y0069583D01*
X0060997Y0069569D01*
X0060880Y0069551D01*
X0060764Y0069529D01*
X0060649Y0069503D01*
X0060535Y0069473D01*
X0060422Y0069440D01*
X0060310Y0069403D01*
X0060199Y0069362D01*
X0060090Y0069318D01*
X0059982Y0069270D01*
X0059876Y0069218D01*
X0059771Y0069163D01*
X0059668Y0069105D01*
X0059568Y0069043D01*
X0059469Y0068978D01*
X0059373Y0068910D01*
X0059279Y0068839D01*
X0059187Y0068764D01*
X0059098Y0068687D01*
X0059012Y0068607D01*
X0058928Y0068524D01*
X0058847Y0068438D01*
X0058769Y0068349D01*
X0058693Y0068258D01*
X0058621Y0068165D01*
X0058552Y0068069D01*
X0058486Y0067971D01*
X0058423Y0067871D01*
X0058364Y0067769D01*
X0058308Y0067665D01*
X0058256Y0067560D01*
X0058207Y0067452D01*
X0058161Y0067343D01*
X0058120Y0067233D01*
X0058081Y0067121D01*
X0058047Y0067008D01*
X0058016Y0066894D01*
X0057989Y0066780D01*
X0057966Y0066664D01*
X0057947Y0066547D01*
X0057932Y0066430D01*
X0057920Y0066313D01*
X0057912Y0066195D01*
X0057908Y0066077D01*
X0057909Y0065959D01*
X0057912Y0065841D01*
X0057920Y0065723D01*
X0057932Y0065606D01*
X0057948Y0065489D01*
X0057967Y0065373D01*
X0057990Y0065257D01*
X0058017Y0065142D01*
X0058048Y0065028D01*
X0058083Y0064915D01*
X0058121Y0064803D01*
X0058163Y0064693D01*
X0058208Y0064584D01*
X0058257Y0064477D01*
X0058310Y0064371D01*
X0058366Y0064267D01*
X0058425Y0064165D01*
X0058488Y0064065D01*
X0058554Y0063968D01*
X0058623Y0063872D01*
X0058696Y0063779D01*
X0058771Y0063688D01*
X0058849Y0063599D01*
X0058850Y0063600D02*
X0061002Y0061252D01*
X0053350Y0058600D02*
X0053201Y0058773D01*
X0053056Y0058949D01*
X0052915Y0059129D01*
X0052779Y0059313D01*
X0052647Y0059499D01*
X0052520Y0059689D01*
X0052397Y0059882D01*
X0052280Y0060078D01*
X0052167Y0060276D01*
X0052059Y0060478D01*
X0051956Y0060682D01*
X0051858Y0060888D01*
X0051765Y0061097D01*
X0051677Y0061308D01*
X0051595Y0061521D01*
X0051517Y0061736D01*
X0051445Y0061952D01*
X0051379Y0062171D01*
X0051317Y0062391D01*
X0051261Y0062613D01*
X0051211Y0062835D01*
X0051166Y0063059D01*
X0051126Y0063284D01*
X0051093Y0063510D01*
X0051064Y0063737D01*
X0051041Y0063964D01*
X0051024Y0064192D01*
X0051012Y0064420D01*
X0051006Y0064649D01*
X0051005Y0064877D01*
X0051011Y0065105D01*
X0051021Y0065334D01*
X0051037Y0065561D01*
X0051059Y0065789D01*
X0051087Y0066016D01*
X0051119Y0066242D01*
X0051158Y0066467D01*
X0051202Y0066691D01*
X0051251Y0066914D01*
X0051306Y0067136D01*
X0051366Y0067356D01*
X0051432Y0067575D01*
X0051503Y0067792D01*
X0051579Y0068008D01*
X0051661Y0068221D01*
X0051748Y0068432D01*
X0051839Y0068642D01*
X0051936Y0068848D01*
X0052038Y0069053D01*
X0052145Y0069255D01*
X0052257Y0069454D01*
X0052374Y0069650D01*
X0052496Y0069844D01*
X0052622Y0070034D01*
X0052753Y0070221D01*
X0052888Y0070405D01*
X0053028Y0070586D01*
X0053172Y0070763D01*
X0053321Y0070937D01*
X0053473Y0071107D01*
X0053630Y0071273D01*
X0053791Y0071435D01*
X0053956Y0071593D01*
X0054125Y0071747D01*
X0054297Y0071897D01*
X0054473Y0072043D01*
X0054652Y0072184D01*
X0054835Y0072321D01*
X0055021Y0072454D01*
X0055211Y0072581D01*
X0055403Y0072704D01*
X0055599Y0072823D01*
X0055797Y0072936D01*
X0055998Y0073045D01*
X0056201Y0073149D01*
X0056407Y0073247D01*
X0056616Y0073341D01*
X0056826Y0073429D01*
X0057039Y0073513D01*
X0057254Y0073591D01*
X0057470Y0073664D01*
X0057689Y0073731D01*
X0057908Y0073793D01*
X0058130Y0073850D01*
X0058352Y0073901D01*
X0058576Y0073947D01*
X0058801Y0073987D01*
X0059027Y0074022D01*
X0059253Y0074051D01*
X0059481Y0074075D01*
X0059708Y0074093D01*
X0059937Y0074106D01*
X0060165Y0074112D01*
X0060393Y0074114D01*
X0060622Y0074110D01*
X0060850Y0074100D01*
X0076350Y0077100D02*
X0078100Y0078350D01*
X0131349Y0037101D02*
X0132396Y0038053D01*
X0133420Y0039030D01*
X0134420Y0040030D01*
X0135397Y0041054D01*
X0136349Y0042101D01*
X0148850Y0030600D02*
X0148741Y0030338D01*
X0148627Y0030079D01*
X0148506Y0029823D01*
X0148379Y0029570D01*
X0148246Y0029321D01*
X0148107Y0029074D01*
X0147961Y0028831D01*
X0147811Y0028591D01*
X0147654Y0028356D01*
X0147492Y0028124D01*
X0147324Y0027896D01*
X0147151Y0027672D01*
X0146972Y0027452D01*
X0146788Y0027237D01*
X0146599Y0027026D01*
X0146405Y0026820D01*
X0146206Y0026619D01*
X0146002Y0026422D01*
X0145794Y0026231D01*
X0145581Y0026044D01*
X0145363Y0025863D01*
X0145141Y0025687D01*
X0144915Y0025517D01*
X0144685Y0025352D01*
X0144451Y0025192D01*
X0144214Y0025038D01*
X0143972Y0024891D01*
X0143727Y0024749D01*
X0143479Y0024612D01*
X0143228Y0024482D01*
X0142973Y0024359D01*
X0142716Y0024241D01*
X0142455Y0024129D01*
X0142193Y0024024D01*
X0141927Y0023925D01*
X0141660Y0023833D01*
X0141390Y0023747D01*
X0141118Y0023668D01*
X0140845Y0023595D01*
X0140569Y0023529D01*
X0140292Y0023469D01*
X0140014Y0023417D01*
X0139735Y0023371D01*
X0139455Y0023331D01*
X0139173Y0023299D01*
X0138891Y0023273D01*
X0138609Y0023254D01*
X0138326Y0023242D01*
X0138043Y0023237D01*
X0137760Y0023239D01*
X0137477Y0023247D01*
X0137194Y0023263D01*
X0136912Y0023285D01*
X0136631Y0023314D01*
X0136350Y0023350D01*
X0133350Y0023600D01*
X0133350Y0031100D02*
X0136350Y0030850D01*
X0133350Y0023600D02*
X0133133Y0023621D01*
X0132916Y0023647D01*
X0132699Y0023678D01*
X0132484Y0023715D01*
X0132270Y0023757D01*
X0132056Y0023804D01*
X0131844Y0023856D01*
X0131633Y0023913D01*
X0131424Y0023976D01*
X0131216Y0024043D01*
X0131010Y0024116D01*
X0130806Y0024193D01*
X0130604Y0024276D01*
X0130403Y0024363D01*
X0130205Y0024455D01*
X0130010Y0024552D01*
X0129816Y0024654D01*
X0129625Y0024760D01*
X0129437Y0024871D01*
X0129252Y0024987D01*
X0129069Y0025107D01*
X0128890Y0025232D01*
X0128713Y0025360D01*
X0128540Y0025493D01*
X0128370Y0025631D01*
X0128203Y0025772D01*
X0128040Y0025917D01*
X0127881Y0026066D01*
X0127725Y0026219D01*
X0127573Y0026376D01*
X0127424Y0026537D01*
X0127280Y0026701D01*
X0127140Y0026868D01*
X0127004Y0027039D01*
X0126872Y0027213D01*
X0126744Y0027390D01*
X0126621Y0027571D01*
X0126502Y0027754D01*
X0126387Y0027940D01*
X0126277Y0028129D01*
X0126172Y0028320D01*
X0126072Y0028514D01*
X0125976Y0028711D01*
X0125885Y0028909D01*
X0125799Y0029110D01*
X0125717Y0029313D01*
X0125641Y0029517D01*
X0125570Y0029724D01*
X0125504Y0029932D01*
X0125442Y0030142D01*
X0125386Y0030353D01*
X0125335Y0030565D01*
X0125290Y0030779D01*
X0125249Y0030994D01*
X0125214Y0031209D01*
X0125184Y0031426D01*
X0125159Y0031643D01*
X0125140Y0031860D01*
X0125125Y0032078D01*
X0125117Y0032297D01*
X0125113Y0032515D01*
X0125115Y0032734D01*
X0125122Y0032952D01*
X0125134Y0033170D01*
X0125152Y0033388D01*
X0125175Y0033605D01*
X0125203Y0033822D01*
X0125237Y0034038D01*
X0125275Y0034253D01*
X0125319Y0034467D01*
X0125369Y0034679D01*
X0125423Y0034891D01*
X0125482Y0035101D01*
X0125547Y0035310D01*
X0125616Y0035517D01*
X0125691Y0035722D01*
X0125771Y0035926D01*
X0125855Y0036127D01*
X0125945Y0036327D01*
X0126039Y0036524D01*
X0126138Y0036719D01*
X0126241Y0036911D01*
X0126350Y0037101D01*
X0131351Y0037100D02*
X0131265Y0037021D01*
X0131182Y0036940D01*
X0131102Y0036856D01*
X0131025Y0036769D01*
X0130951Y0036679D01*
X0130880Y0036587D01*
X0130812Y0036493D01*
X0130747Y0036396D01*
X0130685Y0036298D01*
X0130627Y0036197D01*
X0130573Y0036094D01*
X0130522Y0035990D01*
X0130474Y0035884D01*
X0130430Y0035776D01*
X0130390Y0035667D01*
X0130353Y0035557D01*
X0130320Y0035445D01*
X0130291Y0035333D01*
X0130266Y0035219D01*
X0130245Y0035105D01*
X0130227Y0034990D01*
X0130213Y0034875D01*
X0130204Y0034759D01*
X0130198Y0034643D01*
X0130196Y0034527D01*
X0130198Y0034410D01*
X0130204Y0034294D01*
X0130214Y0034178D01*
X0130228Y0034063D01*
X0130245Y0033948D01*
X0130267Y0033834D01*
X0130292Y0033720D01*
X0130322Y0033608D01*
X0130355Y0033496D01*
X0130391Y0033386D01*
X0130432Y0033277D01*
X0130476Y0033170D01*
X0130524Y0033064D01*
X0130575Y0032959D01*
X0130630Y0032857D01*
X0130688Y0032756D01*
X0130750Y0032658D01*
X0130814Y0032561D01*
X0130883Y0032467D01*
X0130954Y0032375D01*
X0131028Y0032286D01*
X0131105Y0032199D01*
X0131186Y0032115D01*
X0131269Y0032033D01*
X0131354Y0031955D01*
X0131442Y0031879D01*
X0131533Y0031806D01*
X0131626Y0031737D01*
X0131722Y0031671D01*
X0131820Y0031608D01*
X0131919Y0031548D01*
X0132021Y0031492D01*
X0132125Y0031439D01*
X0132230Y0031389D01*
X0132337Y0031344D01*
X0132445Y0031302D01*
X0132555Y0031263D01*
X0132666Y0031229D01*
X0132778Y0031198D01*
X0132891Y0031171D01*
X0133005Y0031147D01*
X0133119Y0031128D01*
X0133235Y0031112D01*
X0133350Y0031101D01*
X0148850Y0030600D02*
X0149200Y0031504D01*
X0149527Y0032417D01*
X0149833Y0033337D01*
X0150117Y0034265D01*
X0150378Y0035199D01*
X0150617Y0036139D01*
X0150833Y0037084D01*
X0151026Y0038034D01*
X0151197Y0038989D01*
X0151344Y0039948D01*
X0151468Y0040910D01*
X0151570Y0041874D01*
X0151648Y0042841D01*
X0151702Y0043809D01*
X0151734Y0044778D01*
X0151742Y0045748D01*
X0151727Y0046718D01*
X0151688Y0047687D01*
X0151626Y0048655D01*
X0151541Y0049621D01*
X0151433Y0050585D01*
X0151302Y0051546D01*
X0151147Y0052503D01*
X0150970Y0053457D01*
X0150769Y0054405D01*
X0150546Y0055349D01*
X0150301Y0056288D01*
X0150033Y0057220D01*
X0149742Y0058145D01*
X0149430Y0059063D01*
X0149095Y0059973D01*
X0148739Y0060875D01*
X0148361Y0061768D01*
X0147961Y0062652D01*
X0147541Y0063526D01*
X0147100Y0064390D01*
X0146638Y0065243D01*
X0146155Y0066084D01*
X0145653Y0066913D01*
X0145131Y0067731D01*
X0144589Y0068535D01*
X0144028Y0069326D01*
X0143449Y0070104D01*
X0142850Y0070867D01*
X0142234Y0071616D01*
X0141600Y0072350D01*
X0196350Y0077100D02*
X0196636Y0075830D01*
X0196892Y0074554D01*
X0197120Y0073272D01*
X0197318Y0071986D01*
X0197488Y0070695D01*
X0197628Y0069401D01*
X0197739Y0068104D01*
X0197820Y0066805D01*
X0197872Y0065504D01*
X0197894Y0064203D01*
X0197887Y0062901D01*
X0197850Y0061600D01*
X0202849Y0063100D02*
X0202847Y0062977D01*
X0202848Y0062853D01*
X0202854Y0062730D01*
X0202863Y0062608D01*
X0202876Y0062485D01*
X0202893Y0062363D01*
X0202914Y0062242D01*
X0202939Y0062121D01*
X0202968Y0062001D01*
X0203000Y0061883D01*
X0203036Y0061765D01*
X0203076Y0061648D01*
X0203119Y0061533D01*
X0203166Y0061419D01*
X0203217Y0061307D01*
X0203271Y0061196D01*
X0203329Y0061088D01*
X0203390Y0060981D01*
X0203455Y0060876D01*
X0203523Y0060773D01*
X0203594Y0060672D01*
X0203668Y0060574D01*
X0203745Y0060478D01*
X0203825Y0060385D01*
X0203908Y0060294D01*
X0203995Y0060206D01*
X0204083Y0060121D01*
X0204175Y0060038D01*
X0204269Y0059959D01*
X0204365Y0059882D01*
X0204464Y0059809D01*
X0204565Y0059738D01*
X0204669Y0059671D01*
X0204774Y0059608D01*
X0204881Y0059547D01*
X0204991Y0059491D01*
X0205102Y0059437D01*
X0205214Y0059387D01*
X0205328Y0059341D01*
X0205444Y0059299D01*
X0205561Y0059260D01*
X0205679Y0059225D01*
X0205798Y0059193D01*
X0205918Y0059165D01*
X0206039Y0059142D01*
X0206160Y0059122D01*
X0206282Y0059106D01*
X0206405Y0059093D01*
X0206528Y0059085D01*
X0206651Y0059081D01*
X0206774Y0059080D01*
X0206897Y0059084D01*
X0207020Y0059091D01*
X0207143Y0059102D01*
X0207265Y0059117D01*
X0207387Y0059136D01*
X0207508Y0059159D01*
X0207628Y0059186D01*
X0207747Y0059216D01*
X0207865Y0059250D01*
X0207983Y0059288D01*
X0208099Y0059330D01*
X0208213Y0059375D01*
X0208326Y0059424D01*
X0208437Y0059477D01*
X0208547Y0059533D01*
X0208655Y0059592D01*
X0208761Y0059655D01*
X0208865Y0059721D01*
X0208966Y0059791D01*
X0209066Y0059863D01*
X0209163Y0059939D01*
X0209258Y0060018D01*
X0209350Y0060099D01*
X0209350Y0060100D02*
X0211698Y0062252D01*
X0214850Y0054599D02*
X0214687Y0054425D01*
X0214519Y0054255D01*
X0214347Y0054089D01*
X0214172Y0053928D01*
X0213992Y0053770D01*
X0213809Y0053617D01*
X0213621Y0053469D01*
X0213431Y0053325D01*
X0213237Y0053186D01*
X0213039Y0053052D01*
X0212838Y0052922D01*
X0212635Y0052798D01*
X0212428Y0052678D01*
X0212218Y0052564D01*
X0212006Y0052454D01*
X0211791Y0052350D01*
X0211574Y0052252D01*
X0211354Y0052158D01*
X0211132Y0052070D01*
X0210908Y0051987D01*
X0210682Y0051910D01*
X0210454Y0051839D01*
X0210225Y0051773D01*
X0209994Y0051712D01*
X0209761Y0051657D01*
X0209527Y0051608D01*
X0209293Y0051565D01*
X0209057Y0051527D01*
X0208820Y0051495D01*
X0208583Y0051469D01*
X0208345Y0051449D01*
X0208106Y0051435D01*
X0207868Y0051426D01*
X0207629Y0051423D01*
X0207390Y0051426D01*
X0207152Y0051435D01*
X0206913Y0051449D01*
X0206675Y0051470D01*
X0206438Y0051496D01*
X0206201Y0051528D01*
X0205965Y0051566D01*
X0205731Y0051609D01*
X0205497Y0051659D01*
X0205265Y0051714D01*
X0205034Y0051774D01*
X0204804Y0051840D01*
X0204576Y0051912D01*
X0204350Y0051989D01*
X0204126Y0052072D01*
X0203904Y0052160D01*
X0203685Y0052254D01*
X0203467Y0052353D01*
X0203253Y0052457D01*
X0203040Y0052567D01*
X0202831Y0052681D01*
X0202624Y0052801D01*
X0202420Y0052925D01*
X0202220Y0053055D01*
X0202022Y0053189D01*
X0201828Y0053329D01*
X0201638Y0053473D01*
X0201451Y0053621D01*
X0201267Y0053774D01*
X0201088Y0053932D01*
X0200912Y0054093D01*
X0200741Y0054259D01*
X0200573Y0054430D01*
X0200410Y0054604D01*
X0200251Y0054782D01*
X0200096Y0054964D01*
X0199946Y0055150D01*
X0199800Y0055339D01*
X0199659Y0055532D01*
X0199523Y0055728D01*
X0199392Y0055927D01*
X0199265Y0056130D01*
X0199144Y0056335D01*
X0199027Y0056544D01*
X0198916Y0056755D01*
X0198810Y0056969D01*
X0198709Y0057185D01*
X0198613Y0057404D01*
X0198523Y0057625D01*
X0198438Y0057849D01*
X0198359Y0058074D01*
X0198285Y0058301D01*
X0198217Y0058530D01*
X0198154Y0058760D01*
X0198097Y0058992D01*
X0198046Y0059225D01*
X0198000Y0059460D01*
X0197960Y0059695D01*
X0197926Y0059932D01*
X0197898Y0060169D01*
X0197875Y0060406D01*
X0197859Y0060645D01*
X0197848Y0060883D01*
X0197842Y0061122D01*
X0197843Y0061361D01*
X0197850Y0061600D01*
X0203351Y0070100D02*
X0203432Y0070542D01*
X0203502Y0070985D01*
X0203562Y0071430D01*
X0203611Y0071877D01*
X0203649Y0072324D01*
X0203676Y0072772D01*
X0203692Y0073221D01*
X0203698Y0073670D01*
X0203693Y0074119D01*
X0203676Y0074567D01*
X0203649Y0075016D01*
X0203612Y0075463D01*
X0203563Y0075909D01*
X0203503Y0076354D01*
X0203433Y0076798D01*
X0203352Y0077239D01*
X0203261Y0077679D01*
X0203159Y0078116D01*
X0203046Y0078551D01*
X0202923Y0078983D01*
X0202789Y0079411D01*
X0202645Y0079837D01*
X0202491Y0080258D01*
X0202326Y0080676D01*
X0202152Y0081090D01*
X0201968Y0081499D01*
X0201773Y0081904D01*
X0201569Y0082304D01*
X0201356Y0082699D01*
X0201133Y0083089D01*
X0200900Y0083473D01*
X0200659Y0083851D01*
X0200408Y0084224D01*
X0200148Y0084590D01*
X0199880Y0084950D01*
X0199603Y0085303D01*
X0199317Y0085650D01*
X0199023Y0085989D01*
X0198721Y0086321D01*
X0198411Y0086646D01*
X0198094Y0086963D01*
X0197769Y0087273D01*
X0197436Y0087574D01*
X0197096Y0087868D01*
X0196749Y0088153D01*
X0196395Y0088430D01*
X0196035Y0088698D01*
X0195669Y0088957D01*
X0195296Y0089207D01*
X0194917Y0089448D01*
X0194533Y0089680D01*
X0194143Y0089903D01*
X0193747Y0090116D01*
X0193347Y0090319D01*
X0192942Y0090513D01*
X0192533Y0090697D01*
X0192119Y0090871D01*
X0191701Y0091034D01*
X0191279Y0091188D01*
X0190853Y0091331D01*
X0190424Y0091464D01*
X0189992Y0091587D01*
X0189558Y0091699D01*
X0189120Y0091801D01*
X0188681Y0091892D01*
X0188239Y0091972D01*
X0187795Y0092042D01*
X0187350Y0092101D01*
X0187350Y0092100D02*
X0181100Y0092850D01*
X0231349Y0137099D02*
X0232396Y0136147D01*
X0233420Y0135170D01*
X0234420Y0134170D01*
X0235397Y0133146D01*
X0236349Y0132099D01*
X0236350Y0132101D02*
X0236429Y0132015D01*
X0236510Y0131932D01*
X0236594Y0131852D01*
X0236681Y0131775D01*
X0236771Y0131701D01*
X0236863Y0131630D01*
X0236957Y0131562D01*
X0237054Y0131497D01*
X0237152Y0131435D01*
X0237253Y0131377D01*
X0237356Y0131323D01*
X0237460Y0131272D01*
X0237566Y0131224D01*
X0237674Y0131180D01*
X0237783Y0131140D01*
X0237893Y0131103D01*
X0238005Y0131070D01*
X0238117Y0131041D01*
X0238231Y0131016D01*
X0238345Y0130995D01*
X0238460Y0130977D01*
X0238575Y0130963D01*
X0238691Y0130954D01*
X0238807Y0130948D01*
X0238923Y0130946D01*
X0239040Y0130948D01*
X0239156Y0130954D01*
X0239272Y0130964D01*
X0239387Y0130978D01*
X0239502Y0130995D01*
X0239616Y0131017D01*
X0239730Y0131042D01*
X0239842Y0131072D01*
X0239954Y0131105D01*
X0240064Y0131141D01*
X0240173Y0131182D01*
X0240280Y0131226D01*
X0240386Y0131274D01*
X0240491Y0131325D01*
X0240593Y0131380D01*
X0240694Y0131438D01*
X0240792Y0131500D01*
X0240889Y0131564D01*
X0240983Y0131633D01*
X0241075Y0131704D01*
X0241164Y0131778D01*
X0241251Y0131855D01*
X0241335Y0131936D01*
X0241417Y0132019D01*
X0241495Y0132104D01*
X0241571Y0132192D01*
X0241644Y0132283D01*
X0241713Y0132376D01*
X0241779Y0132472D01*
X0241842Y0132570D01*
X0241902Y0132669D01*
X0241958Y0132771D01*
X0242011Y0132875D01*
X0242061Y0132980D01*
X0242106Y0133087D01*
X0242148Y0133195D01*
X0242187Y0133305D01*
X0242221Y0133416D01*
X0242252Y0133528D01*
X0242279Y0133641D01*
X0242303Y0133755D01*
X0242322Y0133869D01*
X0242338Y0133985D01*
X0242349Y0134100D01*
X0242350Y0134100D02*
X0242600Y0137100D01*
X0249850Y0134100D02*
X0249829Y0133883D01*
X0249803Y0133666D01*
X0249772Y0133449D01*
X0249735Y0133234D01*
X0249693Y0133020D01*
X0249646Y0132806D01*
X0249594Y0132594D01*
X0249537Y0132383D01*
X0249474Y0132174D01*
X0249407Y0131966D01*
X0249334Y0131760D01*
X0249257Y0131556D01*
X0249174Y0131354D01*
X0249087Y0131153D01*
X0248995Y0130955D01*
X0248898Y0130760D01*
X0248796Y0130566D01*
X0248690Y0130375D01*
X0248579Y0130187D01*
X0248463Y0130002D01*
X0248343Y0129819D01*
X0248218Y0129640D01*
X0248090Y0129463D01*
X0247957Y0129290D01*
X0247819Y0129120D01*
X0247678Y0128953D01*
X0247533Y0128790D01*
X0247384Y0128631D01*
X0247231Y0128475D01*
X0247074Y0128323D01*
X0246913Y0128174D01*
X0246749Y0128030D01*
X0246582Y0127890D01*
X0246411Y0127754D01*
X0246237Y0127622D01*
X0246060Y0127494D01*
X0245879Y0127371D01*
X0245696Y0127252D01*
X0245510Y0127137D01*
X0245321Y0127027D01*
X0245130Y0126922D01*
X0244936Y0126822D01*
X0244739Y0126726D01*
X0244541Y0126635D01*
X0244340Y0126549D01*
X0244137Y0126467D01*
X0243933Y0126391D01*
X0243726Y0126320D01*
X0243518Y0126254D01*
X0243308Y0126192D01*
X0243097Y0126136D01*
X0242885Y0126085D01*
X0242671Y0126040D01*
X0242456Y0125999D01*
X0242241Y0125964D01*
X0242024Y0125934D01*
X0241807Y0125909D01*
X0241590Y0125890D01*
X0241372Y0125875D01*
X0241153Y0125867D01*
X0240935Y0125863D01*
X0240716Y0125865D01*
X0240498Y0125872D01*
X0240280Y0125884D01*
X0240062Y0125902D01*
X0239845Y0125925D01*
X0239628Y0125953D01*
X0239412Y0125987D01*
X0239197Y0126025D01*
X0238983Y0126069D01*
X0238771Y0126119D01*
X0238559Y0126173D01*
X0238349Y0126232D01*
X0238140Y0126297D01*
X0237933Y0126366D01*
X0237728Y0126441D01*
X0237524Y0126521D01*
X0237323Y0126605D01*
X0237123Y0126695D01*
X0236926Y0126789D01*
X0236731Y0126888D01*
X0236539Y0126991D01*
X0236349Y0127100D01*
X0249850Y0134100D02*
X0250100Y0137100D01*
X0136351Y0222099D02*
X0138216Y0225187D01*
X0140150Y0228232D01*
X0142151Y0231233D01*
X0144218Y0234190D01*
X0146350Y0237099D01*
X0136350Y0232100D02*
X0135771Y0231433D01*
X0135209Y0230752D01*
X0134664Y0230057D01*
X0134136Y0229349D01*
X0133625Y0228629D01*
X0133132Y0227896D01*
X0132658Y0227151D01*
X0132201Y0226395D01*
X0131764Y0225627D01*
X0131345Y0224850D01*
X0130946Y0224062D01*
X0130566Y0223265D01*
X0130205Y0222458D01*
X0129865Y0221644D01*
X0129544Y0220821D01*
X0129244Y0219990D01*
X0128964Y0219152D01*
X0128705Y0218308D01*
X0128467Y0217458D01*
X0128250Y0216602D01*
X0128053Y0215740D01*
X0127878Y0214875D01*
X0127724Y0214005D01*
X0127591Y0213132D01*
X0127480Y0212256D01*
X0127390Y0211377D01*
X0127322Y0210497D01*
X0127276Y0209615D01*
X0127251Y0208732D01*
X0127247Y0207849D01*
X0127266Y0206966D01*
X0127306Y0206083D01*
X0127367Y0205202D01*
X0127450Y0204323D01*
X0127555Y0203446D01*
X0127681Y0202572D01*
X0127829Y0201701D01*
X0127998Y0200834D01*
X0128188Y0199972D01*
X0128399Y0199114D01*
X0128631Y0198262D01*
X0128883Y0197416D01*
X0129157Y0196576D01*
X0129451Y0195743D01*
X0129765Y0194918D01*
X0130100Y0194101D01*
X0130100Y0194100D02*
X0142850Y0164100D01*
X0124350Y0171600D02*
X0123600Y0169600D01*
X0112885Y0195552D02*
X0112533Y0195423D01*
X0112185Y0195286D01*
X0111840Y0195140D01*
X0111498Y0194987D01*
X0111160Y0194825D01*
X0110826Y0194656D01*
X0110497Y0194478D01*
X0110171Y0194293D01*
X0109850Y0194100D01*
X0112885Y0195552D02*
X0115850Y0196600D01*
X0118850Y0190100D02*
X0115815Y0188648D01*
X0115850Y0196601D02*
X0116052Y0196669D01*
X0116256Y0196733D01*
X0116461Y0196792D01*
X0116667Y0196845D01*
X0116875Y0196894D01*
X0117084Y0196937D01*
X0117294Y0196975D01*
X0117505Y0197009D01*
X0117716Y0197036D01*
X0117928Y0197059D01*
X0118141Y0197077D01*
X0118354Y0197089D01*
X0118567Y0197096D01*
X0118781Y0197098D01*
X0118994Y0197095D01*
X0119207Y0197086D01*
X0119420Y0197072D01*
X0119633Y0197053D01*
X0119845Y0197029D01*
X0120056Y0196999D01*
X0120267Y0196965D01*
X0120476Y0196925D01*
X0120685Y0196880D01*
X0120892Y0196830D01*
X0121098Y0196775D01*
X0121303Y0196715D01*
X0121506Y0196649D01*
X0121708Y0196579D01*
X0121907Y0196504D01*
X0122105Y0196424D01*
X0122301Y0196340D01*
X0122495Y0196250D01*
X0122686Y0196156D01*
X0122875Y0196057D01*
X0123062Y0195954D01*
X0123246Y0195846D01*
X0123427Y0195733D01*
X0123606Y0195616D01*
X0123781Y0195495D01*
X0123954Y0195369D01*
X0124123Y0195239D01*
X0124289Y0195106D01*
X0124452Y0194968D01*
X0124611Y0194826D01*
X0124767Y0194680D01*
X0124920Y0194531D01*
X0125068Y0194377D01*
X0125213Y0194221D01*
X0125354Y0194060D01*
X0125491Y0193897D01*
X0125623Y0193730D01*
X0125752Y0193559D01*
X0125876Y0193386D01*
X0125997Y0193210D01*
X0126112Y0193031D01*
X0126224Y0192849D01*
X0126331Y0192664D01*
X0126433Y0192477D01*
X0126531Y0192287D01*
X0126624Y0192095D01*
X0126712Y0191901D01*
X0126796Y0191704D01*
X0126874Y0191506D01*
X0126948Y0191306D01*
X0127017Y0191104D01*
X0127081Y0190900D01*
X0127139Y0190695D01*
X0127193Y0190489D01*
X0127242Y0190281D01*
X0127286Y0190072D01*
X0127324Y0189862D01*
X0127357Y0189652D01*
X0127385Y0189440D01*
X0127408Y0189228D01*
X0127426Y0189015D01*
X0127439Y0188802D01*
X0127446Y0188589D01*
X0127448Y0188376D01*
X0127445Y0188162D01*
X0127436Y0187949D01*
X0127423Y0187736D01*
X0127404Y0187524D01*
X0127380Y0187312D01*
X0127351Y0187100D01*
X0122849Y0186600D02*
X0122880Y0186703D01*
X0122908Y0186806D01*
X0122931Y0186910D01*
X0122951Y0187016D01*
X0122966Y0187121D01*
X0122978Y0187228D01*
X0122986Y0187334D01*
X0122990Y0187441D01*
X0122989Y0187548D01*
X0122985Y0187655D01*
X0122977Y0187762D01*
X0122965Y0187868D01*
X0122949Y0187974D01*
X0122930Y0188079D01*
X0122906Y0188183D01*
X0122878Y0188287D01*
X0122847Y0188389D01*
X0122812Y0188490D01*
X0122773Y0188590D01*
X0122731Y0188688D01*
X0122685Y0188784D01*
X0122635Y0188879D01*
X0122582Y0188972D01*
X0122526Y0189063D01*
X0122466Y0189151D01*
X0122403Y0189238D01*
X0122337Y0189322D01*
X0122267Y0189403D01*
X0122195Y0189482D01*
X0122120Y0189559D01*
X0122042Y0189632D01*
X0121962Y0189702D01*
X0121879Y0189770D01*
X0121793Y0189834D01*
X0121706Y0189895D01*
X0121616Y0189953D01*
X0121523Y0190007D01*
X0121429Y0190058D01*
X0121334Y0190106D01*
X0121236Y0190150D01*
X0121137Y0190190D01*
X0121036Y0190227D01*
X0120935Y0190259D01*
X0120832Y0190288D01*
X0120728Y0190314D01*
X0120623Y0190335D01*
X0120517Y0190352D01*
X0120411Y0190366D01*
X0120305Y0190376D01*
X0120198Y0190381D01*
X0120091Y0190383D01*
X0119984Y0190381D01*
X0119877Y0190375D01*
X0119771Y0190364D01*
X0119665Y0190350D01*
X0119559Y0190332D01*
X0119455Y0190311D01*
X0119351Y0190285D01*
X0119248Y0190255D01*
X0119146Y0190222D01*
X0119046Y0190185D01*
X0118947Y0190144D01*
X0118850Y0190100D01*
X0109850Y0194101D02*
X0109308Y0193775D01*
X0108758Y0193464D01*
X0108201Y0193165D01*
X0107637Y0192880D01*
X0107067Y0192609D01*
X0106489Y0192352D01*
X0105906Y0192108D01*
X0105317Y0191879D01*
X0104723Y0191665D01*
X0104123Y0191465D01*
X0103519Y0191279D01*
X0102911Y0191109D01*
X0102298Y0190953D01*
X0101682Y0190811D01*
X0101063Y0190685D01*
X0100441Y0190574D01*
X0099816Y0190479D01*
X0099189Y0190398D01*
X0098561Y0190332D01*
X0097931Y0190282D01*
X0097300Y0190247D01*
X0096668Y0190228D01*
X0096036Y0190223D01*
X0095405Y0190234D01*
X0094773Y0190261D01*
X0094143Y0190303D01*
X0093513Y0190360D01*
X0092885Y0190432D01*
X0092260Y0190519D01*
X0091636Y0190622D01*
X0091015Y0190740D01*
X0090397Y0190872D01*
X0089783Y0191020D01*
X0089172Y0191183D01*
X0088566Y0191360D01*
X0087963Y0191552D01*
X0087366Y0191759D01*
X0086774Y0191980D01*
X0086188Y0192215D01*
X0085607Y0192464D01*
X0085033Y0192728D01*
X0084465Y0193005D01*
X0083904Y0193296D01*
X0083350Y0193601D01*
X0072851Y0214100D02*
X0072837Y0214222D01*
X0072819Y0214344D01*
X0072798Y0214466D01*
X0072773Y0214586D01*
X0072744Y0214706D01*
X0072711Y0214825D01*
X0072675Y0214943D01*
X0072635Y0215059D01*
X0072591Y0215174D01*
X0072543Y0215288D01*
X0072492Y0215400D01*
X0072437Y0215511D01*
X0072379Y0215619D01*
X0072318Y0215726D01*
X0072253Y0215831D01*
X0072185Y0215934D01*
X0072114Y0216034D01*
X0072039Y0216132D01*
X0071961Y0216228D01*
X0071881Y0216321D01*
X0071797Y0216412D01*
X0071711Y0216500D01*
X0071622Y0216585D01*
X0071530Y0216668D01*
X0071436Y0216747D01*
X0071339Y0216823D01*
X0071240Y0216897D01*
X0071139Y0216967D01*
X0071035Y0217033D01*
X0070930Y0217097D01*
X0070822Y0217157D01*
X0070713Y0217214D01*
X0070602Y0217267D01*
X0070489Y0217317D01*
X0070374Y0217363D01*
X0070259Y0217405D01*
X0070142Y0217444D01*
X0070024Y0217479D01*
X0069904Y0217510D01*
X0069784Y0217538D01*
X0069663Y0217561D01*
X0069542Y0217581D01*
X0069419Y0217597D01*
X0069297Y0217609D01*
X0069174Y0217617D01*
X0069051Y0217621D01*
X0068927Y0217622D01*
X0068804Y0217618D01*
X0068681Y0217611D01*
X0068558Y0217599D01*
X0068436Y0217584D01*
X0068314Y0217565D01*
X0068193Y0217542D01*
X0068073Y0217515D01*
X0067954Y0217485D01*
X0067835Y0217450D01*
X0067718Y0217412D01*
X0067602Y0217371D01*
X0067488Y0217325D01*
X0067374Y0217276D01*
X0067263Y0217224D01*
X0067153Y0217167D01*
X0067045Y0217108D01*
X0066939Y0217045D01*
X0066835Y0216979D01*
X0066734Y0216909D01*
X0066634Y0216837D01*
X0066537Y0216761D01*
X0066442Y0216682D01*
X0066350Y0216600D01*
X0064002Y0214448D01*
X0061351Y0222099D02*
X0061529Y0222253D01*
X0061710Y0222403D01*
X0061896Y0222548D01*
X0062085Y0222688D01*
X0062277Y0222824D01*
X0062472Y0222955D01*
X0062671Y0223081D01*
X0062873Y0223202D01*
X0063077Y0223318D01*
X0063285Y0223430D01*
X0063495Y0223536D01*
X0063707Y0223637D01*
X0063922Y0223732D01*
X0064139Y0223823D01*
X0064359Y0223908D01*
X0064580Y0223988D01*
X0064803Y0224062D01*
X0065028Y0224131D01*
X0065255Y0224194D01*
X0065483Y0224252D01*
X0065713Y0224304D01*
X0065943Y0224351D01*
X0066175Y0224392D01*
X0066408Y0224427D01*
X0066641Y0224456D01*
X0066875Y0224480D01*
X0067110Y0224498D01*
X0067345Y0224510D01*
X0067580Y0224517D01*
X0067815Y0224518D01*
X0068051Y0224513D01*
X0068286Y0224502D01*
X0068521Y0224485D01*
X0068755Y0224463D01*
X0068988Y0224435D01*
X0069221Y0224402D01*
X0069453Y0224362D01*
X0069684Y0224317D01*
X0069914Y0224267D01*
X0070143Y0224211D01*
X0070370Y0224149D01*
X0070595Y0224082D01*
X0070819Y0224009D01*
X0071041Y0223930D01*
X0071261Y0223847D01*
X0071479Y0223758D01*
X0071694Y0223663D01*
X0071907Y0223564D01*
X0072118Y0223459D01*
X0072326Y0223349D01*
X0072532Y0223234D01*
X0072734Y0223114D01*
X0072933Y0222990D01*
X0073130Y0222860D01*
X0073323Y0222726D01*
X0073513Y0222586D01*
X0073699Y0222443D01*
X0073882Y0222294D01*
X0074061Y0222142D01*
X0074236Y0221985D01*
X0074408Y0221824D01*
X0074575Y0221658D01*
X0074738Y0221489D01*
X0074898Y0221315D01*
X0075052Y0221138D01*
X0075203Y0220957D01*
X0075349Y0220773D01*
X0075490Y0220585D01*
X0075627Y0220393D01*
X0075759Y0220199D01*
X0075886Y0220001D01*
X0076009Y0219800D01*
X0076126Y0219596D01*
X0076239Y0219389D01*
X0076346Y0219180D01*
X0076448Y0218968D01*
X0076545Y0218753D01*
X0076637Y0218536D01*
X0076723Y0218318D01*
X0076804Y0218097D01*
X0076880Y0217874D01*
X0076950Y0217649D01*
X0077014Y0217423D01*
X0077073Y0217195D01*
X0077127Y0216966D01*
X0077175Y0216735D01*
X0077217Y0216504D01*
X0077253Y0216271D01*
X0077284Y0216038D01*
X0077309Y0215804D01*
X0077328Y0215570D01*
X0077342Y0215335D01*
X0077350Y0215100D01*
X0061350Y0222100D02*
X0058698Y0219752D01*
X0072849Y0214100D02*
X0072927Y0213164D01*
X0072983Y0212227D01*
X0073016Y0211289D01*
X0073027Y0210350D01*
X0073016Y0209411D01*
X0072983Y0208473D01*
X0072927Y0207536D01*
X0072849Y0206600D01*
X0051351Y0137100D02*
X0051743Y0136560D01*
X0052149Y0136031D01*
X0052567Y0135511D01*
X0052998Y0135002D01*
X0053441Y0134503D01*
X0053896Y0134015D01*
X0054363Y0133539D01*
X0054841Y0133074D01*
X0055331Y0132620D01*
X0055831Y0132179D01*
X0056342Y0131750D01*
X0056863Y0131334D01*
X0057394Y0130931D01*
X0057935Y0130540D01*
X0058485Y0130163D01*
X0059045Y0129799D01*
X0059613Y0129450D01*
X0060189Y0129114D01*
X0060773Y0128792D01*
X0061365Y0128484D01*
X0061965Y0128191D01*
X0062571Y0127913D01*
X0063184Y0127649D01*
X0063803Y0127401D01*
X0064428Y0127168D01*
X0065058Y0126950D01*
X0065694Y0126747D01*
X0066334Y0126560D01*
X0066979Y0126388D01*
X0067627Y0126233D01*
X0068280Y0126093D01*
X0068935Y0125969D01*
X0069594Y0125861D01*
X0070254Y0125769D01*
X0070917Y0125693D01*
X0071581Y0125634D01*
X0072247Y0125590D01*
X0072914Y0125563D01*
X0073581Y0125552D01*
X0074248Y0125558D01*
X0074914Y0125579D01*
X0075580Y0125617D01*
X0076245Y0125671D01*
X0076909Y0125741D01*
X0077570Y0125827D01*
X0078229Y0125930D01*
X0078886Y0126048D01*
X0079539Y0126183D01*
X0080189Y0126333D01*
X0080835Y0126499D01*
X0081477Y0126680D01*
X0082115Y0126878D01*
X0082747Y0127090D01*
X0083374Y0127318D01*
X0083995Y0127562D01*
X0084610Y0127820D01*
X0085219Y0128093D01*
X0085820Y0128381D01*
X0086415Y0128684D01*
X0087002Y0129001D01*
X0087581Y0129332D01*
X0088152Y0129677D01*
X0088714Y0130036D01*
X0089268Y0130408D01*
X0089812Y0130794D01*
X0090346Y0131193D01*
X0090871Y0131605D01*
X0091386Y0132030D01*
X0091890Y0132467D01*
X0092383Y0132916D01*
X0092865Y0133377D01*
X0093336Y0133849D01*
X0093795Y0134333D01*
X0094242Y0134828D01*
X0094677Y0135334D01*
X0095100Y0135850D01*
X0151850Y0133600D02*
X0152069Y0132230D01*
X0152256Y0130855D01*
X0152411Y0129476D01*
X0152532Y0128094D01*
X0152621Y0126710D01*
X0152677Y0125323D01*
X0152700Y0123936D01*
X0152691Y0122548D01*
X0152648Y0121162D01*
X0152573Y0119776D01*
X0152464Y0118393D01*
X0152323Y0117013D01*
X0152150Y0115636D01*
X0151943Y0114264D01*
X0151705Y0112897D01*
X0151434Y0111536D01*
X0151131Y0110182D01*
X0150795Y0108836D01*
X0150428Y0107498D01*
X0150030Y0106169D01*
X0149600Y0104850D01*
X0150100Y0087850D02*
X0150047Y0087754D01*
X0149997Y0087656D01*
X0149951Y0087556D01*
X0149909Y0087455D01*
X0149870Y0087352D01*
X0149834Y0087248D01*
X0149802Y0087143D01*
X0149775Y0087036D01*
X0149750Y0086929D01*
X0149730Y0086821D01*
X0149714Y0086712D01*
X0149701Y0086603D01*
X0149692Y0086493D01*
X0149687Y0086383D01*
X0149686Y0086273D01*
X0149689Y0086164D01*
X0149696Y0086054D01*
X0149706Y0085944D01*
X0149721Y0085835D01*
X0149739Y0085727D01*
X0149761Y0085619D01*
X0149787Y0085512D01*
X0149817Y0085406D01*
X0149850Y0085302D01*
X0149887Y0085198D01*
X0149928Y0085096D01*
X0149972Y0084995D01*
X0150020Y0084896D01*
X0150071Y0084799D01*
X0150126Y0084704D01*
X0150184Y0084610D01*
X0150245Y0084519D01*
X0150310Y0084430D01*
X0150377Y0084343D01*
X0150448Y0084259D01*
X0150521Y0084177D01*
X0150598Y0084098D01*
X0150677Y0084021D01*
X0150759Y0083948D01*
X0150843Y0083877D01*
X0150930Y0083810D01*
X0151019Y0083745D01*
X0151110Y0083684D01*
X0151204Y0083626D01*
X0151299Y0083571D01*
X0151396Y0083520D01*
X0151495Y0083472D01*
X0151596Y0083428D01*
X0151698Y0083387D01*
X0151802Y0083350D01*
X0151906Y0083317D01*
X0152012Y0083287D01*
X0152119Y0083261D01*
X0152227Y0083239D01*
X0152335Y0083221D01*
X0152444Y0083206D01*
X0152554Y0083196D01*
X0152664Y0083189D01*
X0152773Y0083186D01*
X0152883Y0083187D01*
X0152993Y0083192D01*
X0153103Y0083201D01*
X0153212Y0083214D01*
X0153321Y0083230D01*
X0153429Y0083250D01*
X0153536Y0083275D01*
X0153643Y0083302D01*
X0153748Y0083334D01*
X0153852Y0083370D01*
X0153955Y0083409D01*
X0154056Y0083451D01*
X0154156Y0083497D01*
X0154254Y0083547D01*
X0154350Y0083600D01*
X0156849Y0085036D01*
X0156600Y0076850D02*
X0156374Y0076761D01*
X0156145Y0076679D01*
X0155915Y0076602D01*
X0155683Y0076530D01*
X0155449Y0076465D01*
X0155214Y0076405D01*
X0154977Y0076351D01*
X0154739Y0076302D01*
X0154500Y0076260D01*
X0154260Y0076223D01*
X0154019Y0076193D01*
X0153778Y0076168D01*
X0153535Y0076149D01*
X0153293Y0076136D01*
X0153050Y0076129D01*
X0152807Y0076128D01*
X0152565Y0076133D01*
X0152322Y0076144D01*
X0152080Y0076161D01*
X0151838Y0076184D01*
X0151597Y0076212D01*
X0151356Y0076247D01*
X0151117Y0076288D01*
X0150879Y0076334D01*
X0150641Y0076386D01*
X0150406Y0076444D01*
X0150171Y0076508D01*
X0149939Y0076577D01*
X0149708Y0076652D01*
X0149479Y0076733D01*
X0149252Y0076819D01*
X0149027Y0076911D01*
X0148804Y0077009D01*
X0148584Y0077111D01*
X0148367Y0077219D01*
X0148152Y0077333D01*
X0147940Y0077452D01*
X0147732Y0077575D01*
X0147526Y0077704D01*
X0147323Y0077838D01*
X0147124Y0077977D01*
X0146928Y0078121D01*
X0146736Y0078269D01*
X0146547Y0078422D01*
X0146363Y0078580D01*
X0146182Y0078742D01*
X0146005Y0078909D01*
X0145833Y0079079D01*
X0145664Y0079254D01*
X0145500Y0079433D01*
X0145341Y0079616D01*
X0145185Y0079803D01*
X0145035Y0079994D01*
X0144889Y0080188D01*
X0144748Y0080386D01*
X0144612Y0080587D01*
X0144481Y0080791D01*
X0144355Y0080999D01*
X0144234Y0081210D01*
X0144119Y0081423D01*
X0144008Y0081639D01*
X0143903Y0081858D01*
X0143803Y0082080D01*
X0143709Y0082304D01*
X0143620Y0082530D01*
X0143537Y0082758D01*
X0143460Y0082988D01*
X0143388Y0083220D01*
X0143322Y0083454D01*
X0143261Y0083689D01*
X0143207Y0083925D01*
X0143158Y0084163D01*
X0143115Y0084402D01*
X0143078Y0084642D01*
X0143046Y0084883D01*
X0143021Y0085124D01*
X0143002Y0085367D01*
X0142988Y0085609D01*
X0142981Y0085852D01*
X0142979Y0086095D01*
X0142984Y0086337D01*
X0142994Y0086580D01*
X0143010Y0086822D01*
X0143032Y0087064D01*
X0143061Y0087305D01*
X0143095Y0087546D01*
X0143134Y0087785D01*
X0143180Y0088024D01*
X0143232Y0088261D01*
X0143289Y0088497D01*
X0143352Y0088731D01*
X0143421Y0088964D01*
X0143496Y0089195D01*
X0143576Y0089425D01*
X0143662Y0089652D01*
X0143753Y0089877D01*
X0143850Y0090100D01*
X0150100Y0087850D02*
X0150351Y0088299D01*
X0150592Y0088754D01*
X0150822Y0089215D01*
X0151041Y0089681D01*
X0151249Y0090152D01*
X0151446Y0090628D01*
X0151632Y0091108D01*
X0151806Y0091593D01*
X0151969Y0092082D01*
X0152120Y0092574D01*
X0152260Y0093069D01*
X0152388Y0093568D01*
X0152504Y0094070D01*
X0152608Y0094574D01*
X0152701Y0095081D01*
X0152781Y0095589D01*
X0152850Y0096100D01*
X0159851Y0078164D02*
X0156600Y0076850D01*
X0141350Y0057850D02*
X0141326Y0058031D01*
X0141298Y0058211D01*
X0141265Y0058391D01*
X0141229Y0058570D01*
X0141187Y0058747D01*
X0141142Y0058924D01*
X0141092Y0059100D01*
X0141038Y0059274D01*
X0140980Y0059447D01*
X0140917Y0059618D01*
X0140851Y0059788D01*
X0140780Y0059956D01*
X0140705Y0060123D01*
X0140627Y0060287D01*
X0140544Y0060450D01*
X0140457Y0060611D01*
X0140367Y0060769D01*
X0140272Y0060925D01*
X0140174Y0061079D01*
X0140072Y0061231D01*
X0139967Y0061380D01*
X0139858Y0061526D01*
X0139745Y0061670D01*
X0139629Y0061810D01*
X0139510Y0061948D01*
X0139387Y0062084D01*
X0139261Y0062216D01*
X0139132Y0062345D01*
X0139000Y0062470D01*
X0138865Y0062593D01*
X0138727Y0062712D01*
X0138586Y0062828D01*
X0138442Y0062940D01*
X0138296Y0063049D01*
X0138147Y0063155D01*
X0137995Y0063256D01*
X0137841Y0063354D01*
X0137685Y0063448D01*
X0137526Y0063539D01*
X0137366Y0063625D01*
X0137203Y0063708D01*
X0137038Y0063786D01*
X0136872Y0063861D01*
X0136703Y0063931D01*
X0136533Y0063998D01*
X0136362Y0064060D01*
X0136189Y0064118D01*
X0136015Y0064172D01*
X0135839Y0064222D01*
X0135662Y0064267D01*
X0135484Y0064308D01*
X0135306Y0064345D01*
X0135126Y0064377D01*
X0134946Y0064405D01*
X0134765Y0064429D01*
X0134583Y0064448D01*
X0134401Y0064463D01*
X0134219Y0064473D01*
X0134037Y0064479D01*
X0133854Y0064481D01*
X0133672Y0064478D01*
X0133490Y0064471D01*
X0133308Y0064459D01*
X0133126Y0064443D01*
X0132944Y0064422D01*
X0132764Y0064398D01*
X0132584Y0064368D01*
X0132404Y0064335D01*
X0132226Y0064297D01*
X0132048Y0064254D01*
X0131872Y0064208D01*
X0131697Y0064157D01*
X0131523Y0064102D01*
X0131350Y0064042D01*
X0131179Y0063979D01*
X0131009Y0063911D01*
X0130842Y0063840D01*
X0130676Y0063764D01*
X0130512Y0063684D01*
X0130349Y0063600D01*
X0141350Y0057850D02*
X0141374Y0057288D01*
X0141385Y0056725D01*
X0141381Y0056162D01*
X0141364Y0055599D01*
X0141334Y0055037D01*
X0141290Y0054476D01*
X0141233Y0053916D01*
X0141162Y0053357D01*
X0141077Y0052800D01*
X0140979Y0052246D01*
X0140868Y0051694D01*
X0140744Y0051145D01*
X0140606Y0050599D01*
X0140455Y0050057D01*
X0140291Y0049518D01*
X0140114Y0048983D01*
X0139925Y0048453D01*
X0139722Y0047928D01*
X0139507Y0047408D01*
X0139280Y0046893D01*
X0139040Y0046383D01*
X0138788Y0045880D01*
X0138524Y0045383D01*
X0138248Y0044892D01*
X0137960Y0044408D01*
X0137660Y0043931D01*
X0137349Y0043462D01*
X0137027Y0043000D01*
X0136694Y0042546D01*
X0136350Y0042100D01*
X0174100Y0085850D02*
X0174981Y0086097D01*
X0175868Y0086323D01*
X0176760Y0086526D01*
X0177657Y0086708D01*
X0178558Y0086868D01*
X0179462Y0087006D01*
X0180370Y0087122D01*
X0181280Y0087216D01*
X0182192Y0087287D01*
X0183106Y0087336D01*
X0184021Y0087363D01*
X0184936Y0087368D01*
X0185850Y0087350D01*
X0186101Y0087339D01*
X0186351Y0087322D01*
X0186602Y0087299D01*
X0186851Y0087270D01*
X0187100Y0087234D01*
X0187347Y0087193D01*
X0187594Y0087146D01*
X0187840Y0087092D01*
X0188084Y0087033D01*
X0188326Y0086968D01*
X0188567Y0086897D01*
X0188806Y0086820D01*
X0189044Y0086738D01*
X0189279Y0086650D01*
X0189512Y0086556D01*
X0189742Y0086456D01*
X0189970Y0086351D01*
X0190196Y0086240D01*
X0190418Y0086124D01*
X0190638Y0086002D01*
X0190855Y0085876D01*
X0191069Y0085743D01*
X0191279Y0085606D01*
X0191486Y0085464D01*
X0191689Y0085317D01*
X0191889Y0085165D01*
X0192085Y0085008D01*
X0192278Y0084846D01*
X0192466Y0084680D01*
X0192650Y0084509D01*
X0192830Y0084334D01*
X0193006Y0084154D01*
X0193177Y0083970D01*
X0193343Y0083783D01*
X0193506Y0083591D01*
X0193663Y0083395D01*
X0193816Y0083195D01*
X0193963Y0082992D01*
X0194106Y0082786D01*
X0194244Y0082576D01*
X0194376Y0082362D01*
X0194504Y0082146D01*
X0194626Y0081926D01*
X0194742Y0081704D01*
X0194853Y0081479D01*
X0194959Y0081251D01*
X0195059Y0081020D01*
X0195154Y0080788D01*
X0195243Y0080553D01*
X0195326Y0080316D01*
X0195403Y0080077D01*
X0195475Y0079836D01*
X0195540Y0079594D01*
X0195600Y0079350D01*
X0195716Y0079076D01*
X0195825Y0078800D01*
X0195929Y0078522D01*
X0196026Y0078242D01*
X0196116Y0077959D01*
X0196201Y0077674D01*
X0196279Y0077388D01*
X0196350Y0077100D01*
X0217002Y0056948D02*
X0214850Y0054600D01*
X0174100Y0085850D02*
X0173234Y0085585D01*
X0172374Y0085299D01*
X0171521Y0084994D01*
X0170675Y0084669D01*
X0169837Y0084325D01*
X0169007Y0083961D01*
X0168186Y0083578D01*
X0167375Y0083176D01*
X0166572Y0082755D01*
X0165780Y0082316D01*
X0164998Y0081858D01*
X0164227Y0081382D01*
X0163467Y0080889D01*
X0162719Y0080378D01*
X0161983Y0079849D01*
X0161260Y0079304D01*
X0160549Y0078742D01*
X0159851Y0078164D01*
X0181100Y0092850D02*
X0180684Y0092888D01*
X0180269Y0092937D01*
X0179855Y0092995D01*
X0179443Y0093064D01*
X0179033Y0093142D01*
X0178624Y0093231D01*
X0178218Y0093329D01*
X0177815Y0093438D01*
X0177414Y0093556D01*
X0177016Y0093684D01*
X0176621Y0093821D01*
X0176230Y0093968D01*
X0175843Y0094125D01*
X0175459Y0094291D01*
X0175080Y0094466D01*
X0174705Y0094650D01*
X0174335Y0094844D01*
X0173969Y0095046D01*
X0173609Y0095257D01*
X0173253Y0095477D01*
X0172903Y0095706D01*
X0172559Y0095943D01*
X0172221Y0096188D01*
X0171889Y0096441D01*
X0171563Y0096703D01*
X0171243Y0096972D01*
X0170930Y0097249D01*
X0170624Y0097533D01*
X0170325Y0097825D01*
X0170033Y0098124D01*
X0169749Y0098430D01*
X0169472Y0098743D01*
X0169203Y0099063D01*
X0168941Y0099389D01*
X0168688Y0099721D01*
X0168443Y0100059D01*
X0168206Y0100403D01*
X0167977Y0100753D01*
X0167757Y0101109D01*
X0167546Y0101469D01*
X0167344Y0101835D01*
X0167150Y0102205D01*
X0166966Y0102580D01*
X0166791Y0102959D01*
X0166625Y0103343D01*
X0166468Y0103730D01*
X0166321Y0104121D01*
X0166184Y0104516D01*
X0166056Y0104914D01*
X0165938Y0105315D01*
X0165829Y0105718D01*
X0165731Y0106124D01*
X0165642Y0106533D01*
X0165564Y0106943D01*
X0165495Y0107355D01*
X0165437Y0107769D01*
X0165388Y0108184D01*
X0165350Y0108600D01*
X0141601Y0072351D02*
X0140091Y0074098D01*
X0138623Y0075880D01*
X0137199Y0077698D01*
X0135819Y0079549D01*
X0134484Y0081433D01*
X0133195Y0083349D01*
X0131952Y0085295D01*
X0130757Y0087271D01*
X0129609Y0089274D01*
X0128510Y0091305D01*
X0127460Y0093362D01*
X0126460Y0095443D01*
X0125511Y0097548D01*
X0124612Y0099675D01*
X0123765Y0101823D01*
X0122970Y0103991D01*
X0122227Y0106177D01*
X0121537Y0108381D01*
X0120900Y0110600D01*
X0120317Y0112835D01*
X0119788Y0115082D01*
X0119314Y0117342D01*
X0118893Y0119613D01*
X0118528Y0121893D01*
X0118217Y0124181D01*
X0117962Y0126476D01*
X0117762Y0128776D01*
X0117618Y0131081D01*
X0117529Y0133388D01*
X0117495Y0135697D01*
X0117517Y0138006D01*
X0117595Y0140313D01*
X0117729Y0142619D01*
X0117917Y0144920D01*
X0118162Y0147216D01*
X0118461Y0149506D01*
X0118815Y0151787D01*
X0119225Y0154060D01*
X0119688Y0156322D01*
X0120207Y0158572D01*
X0120779Y0160809D01*
X0121405Y0163032D01*
X0122084Y0165239D01*
X0122816Y0167429D01*
X0123601Y0169600D01*
X0136350Y0222100D02*
X0135979Y0221491D01*
X0135623Y0220873D01*
X0135282Y0220247D01*
X0134956Y0219612D01*
X0134646Y0218970D01*
X0134352Y0218320D01*
X0134074Y0217663D01*
X0133812Y0217000D01*
X0133566Y0216330D01*
X0133337Y0215655D01*
X0133124Y0214974D01*
X0132928Y0214288D01*
X0132749Y0213598D01*
X0132587Y0212903D01*
X0132442Y0212205D01*
X0132314Y0211503D01*
X0132203Y0210798D01*
X0132109Y0210091D01*
X0132033Y0209382D01*
X0131974Y0208671D01*
X0131933Y0207959D01*
X0131909Y0207246D01*
X0131902Y0206533D01*
X0131913Y0205820D01*
X0131941Y0205107D01*
X0131987Y0204395D01*
X0132050Y0203685D01*
X0132131Y0202976D01*
X0132228Y0202269D01*
X0132343Y0201565D01*
X0132476Y0200865D01*
X0132625Y0200167D01*
X0132791Y0199473D01*
X0132975Y0198784D01*
X0133175Y0198099D01*
X0133391Y0197420D01*
X0133625Y0196746D01*
X0133874Y0196078D01*
X0134140Y0195416D01*
X0134422Y0194761D01*
X0134721Y0194113D01*
X0135034Y0193472D01*
X0135364Y0192839D01*
X0135708Y0192215D01*
X0136068Y0191599D01*
X0136443Y0190992D01*
X0136833Y0190395D01*
X0137237Y0189807D01*
X0137655Y0189229D01*
X0138088Y0188662D01*
X0138534Y0188106D01*
X0138993Y0187560D01*
X0139466Y0187026D01*
X0139952Y0186504D01*
X0140450Y0185993D01*
X0140961Y0185495D01*
X0141484Y0185010D01*
X0142018Y0184538D01*
X0142564Y0184078D01*
X0143121Y0183633D01*
X0143688Y0183201D01*
X0144266Y0182783D01*
X0144854Y0182379D01*
X0145452Y0181990D01*
X0146059Y0181616D01*
X0146675Y0181256D01*
X0147300Y0180912D01*
X0147933Y0180583D01*
X0148574Y0180269D01*
X0149222Y0179972D01*
X0149877Y0179690D01*
X0150539Y0179425D01*
X0151208Y0179176D01*
X0151882Y0178943D01*
X0152562Y0178726D01*
X0153246Y0178527D01*
X0153936Y0178344D01*
X0154630Y0178178D01*
X0155327Y0178029D01*
X0156028Y0177898D01*
X0156732Y0177783D01*
X0157439Y0177686D01*
X0158148Y0177606D01*
X0158858Y0177543D01*
X0159570Y0177498D01*
X0160283Y0177470D01*
X0160996Y0177460D01*
X0161709Y0177467D01*
X0162422Y0177492D01*
X0163134Y0177534D01*
X0163845Y0177593D01*
X0164554Y0177670D01*
X0165261Y0177764D01*
X0165966Y0177875D01*
X0166667Y0178004D01*
X0167366Y0178149D01*
X0168060Y0178312D01*
X0168750Y0178492D01*
X0169436Y0178688D01*
X0170117Y0178901D01*
X0170792Y0179131D01*
X0171461Y0179377D01*
X0172125Y0179640D01*
X0172781Y0179919D01*
X0173431Y0180213D01*
X0174073Y0180524D01*
X0174707Y0180850D01*
X0175334Y0181191D01*
X0175951Y0181548D01*
X0176560Y0181920D01*
X0177160Y0182306D01*
X0177750Y0182707D01*
X0178330Y0183122D01*
X0178899Y0183552D01*
X0179458Y0183995D01*
X0180006Y0184452D01*
X0180542Y0184922D01*
X0181067Y0185405D01*
X0181580Y0185900D01*
X0182081Y0186408D01*
X0182569Y0186929D01*
X0183044Y0187460D01*
X0183506Y0188004D01*
X0183955Y0188558D01*
X0184390Y0189124D01*
X0184811Y0189700D01*
X0185218Y0190285D01*
X0185610Y0190881D01*
X0185987Y0191486D01*
X0186350Y0192101D01*
X0186350Y0192100D02*
X0186622Y0192561D01*
X0186905Y0193014D01*
X0187199Y0193461D01*
X0187504Y0193900D01*
X0187820Y0194332D01*
X0188145Y0194756D01*
X0188482Y0195172D01*
X0188828Y0195579D01*
X0189184Y0195978D01*
X0189550Y0196368D01*
X0189925Y0196750D01*
X0190309Y0197121D01*
X0190702Y0197484D01*
X0191104Y0197836D01*
X0191515Y0198179D01*
X0191934Y0198512D01*
X0192360Y0198834D01*
X0192795Y0199146D01*
X0193237Y0199447D01*
X0193686Y0199737D01*
X0194142Y0200016D01*
X0194605Y0200284D01*
X0195074Y0200541D01*
X0195550Y0200786D01*
X0196031Y0201019D01*
X0196517Y0201241D01*
X0197009Y0201450D01*
X0197506Y0201648D01*
X0198008Y0201833D01*
X0198514Y0202006D01*
X0199024Y0202167D01*
X0199538Y0202315D01*
X0200055Y0202451D01*
X0200576Y0202573D01*
X0201099Y0202684D01*
X0201625Y0202781D01*
X0202153Y0202865D01*
X0202683Y0202937D01*
X0203214Y0202996D01*
X0203747Y0203041D01*
X0204281Y0203074D01*
X0204815Y0203093D01*
X0205350Y0203100D01*
X0221850Y0214100D02*
X0220002Y0216752D01*
X0221350Y0137100D02*
X0224257Y0134964D01*
X0227212Y0132895D01*
X0230213Y0130894D01*
X0233260Y0128961D01*
X0236350Y0127099D01*
X0165350Y0108600D02*
X0165160Y0111387D01*
X0165038Y0114177D01*
X0164982Y0116970D01*
X0164993Y0119763D01*
X0165070Y0122555D01*
X0165215Y0125344D01*
X0165426Y0128129D01*
X0165703Y0130908D01*
X0166047Y0133680D01*
X0166457Y0136443D01*
X0166933Y0139195D01*
X0167474Y0141935D01*
X0168081Y0144661D01*
X0168753Y0147372D01*
X0169490Y0150066D01*
X0170290Y0152742D01*
X0171155Y0155398D01*
X0172082Y0158033D01*
X0173073Y0160644D01*
X0174125Y0163231D01*
X0175239Y0165793D01*
X0176414Y0168326D01*
X0177650Y0170831D01*
X0178944Y0173306D01*
X0180298Y0175749D01*
X0181709Y0178159D01*
X0183178Y0180535D01*
X0184703Y0182875D01*
X0186284Y0185178D01*
X0187919Y0187442D01*
X0189608Y0189667D01*
X0191350Y0191850D01*
X0200350Y0196099D02*
X0202309Y0196257D01*
X0204263Y0196460D01*
X0206213Y0196706D01*
X0208157Y0196997D01*
X0210093Y0197332D01*
X0212021Y0197711D01*
X0213941Y0198133D01*
X0215850Y0198599D01*
X0214350Y0203100D02*
X0212600Y0203048D01*
X0210850Y0203031D01*
X0209100Y0203048D01*
X0207350Y0203100D01*
X0130350Y0063601D02*
X0129295Y0063210D01*
X0128231Y0062845D01*
X0127158Y0062506D01*
X0126077Y0062193D01*
X0124989Y0061907D01*
X0123894Y0061648D01*
X0122793Y0061415D01*
X0121687Y0061210D01*
X0120576Y0061032D01*
X0119461Y0060881D01*
X0118343Y0060757D01*
X0117222Y0060661D01*
X0116099Y0060592D01*
X0114975Y0060551D01*
X0113850Y0060537D01*
X0112725Y0060551D01*
X0111601Y0060592D01*
X0110478Y0060661D01*
X0109357Y0060757D01*
X0108239Y0060881D01*
X0107124Y0061032D01*
X0106013Y0061210D01*
X0104907Y0061415D01*
X0103806Y0061648D01*
X0102711Y0061907D01*
X0101623Y0062193D01*
X0100542Y0062506D01*
X0099469Y0062845D01*
X0098405Y0063210D01*
X0097350Y0063601D01*
X0078100Y0078350D02*
X0078545Y0078725D01*
X0078981Y0079111D01*
X0079407Y0079508D01*
X0079824Y0079914D01*
X0080230Y0080331D01*
X0080627Y0080757D01*
X0081012Y0081193D01*
X0081388Y0081638D01*
X0081752Y0082092D01*
X0082105Y0082555D01*
X0082447Y0083026D01*
X0082777Y0083506D01*
X0083096Y0083993D01*
X0083403Y0084488D01*
X0083697Y0084990D01*
X0083980Y0085499D01*
X0084250Y0086015D01*
X0084507Y0086537D01*
X0084752Y0087065D01*
X0084983Y0087599D01*
X0085202Y0088139D01*
X0085408Y0088684D01*
X0085600Y0089233D01*
X0085779Y0089787D01*
X0085944Y0090345D01*
X0086096Y0090907D01*
X0086234Y0091473D01*
X0086359Y0092041D01*
X0086469Y0092613D01*
X0086566Y0093187D01*
X0086649Y0093763D01*
X0086718Y0094341D01*
X0086772Y0094921D01*
X0086813Y0095502D01*
X0086840Y0096083D01*
X0086852Y0096665D01*
X0086850Y0097248D01*
X0086834Y0097829D01*
X0086805Y0098411D01*
X0086761Y0098991D01*
X0086703Y0099571D01*
X0086630Y0100148D01*
X0086544Y0100724D01*
X0086444Y0101298D01*
X0086330Y0101869D01*
X0086203Y0102437D01*
X0086061Y0103001D01*
X0085906Y0103562D01*
X0085738Y0104120D01*
X0085555Y0104672D01*
X0085360Y0105221D01*
X0085151Y0105764D01*
X0084929Y0106303D01*
X0084695Y0106835D01*
X0084447Y0107362D01*
X0084187Y0107883D01*
X0083914Y0108397D01*
X0083628Y0108905D01*
X0083331Y0109405D01*
X0083021Y0109898D01*
X0082700Y0110383D01*
X0082367Y0110861D01*
X0082022Y0111330D01*
X0081666Y0111791D01*
X0081299Y0112243D01*
X0080921Y0112686D01*
X0080533Y0113119D01*
X0080134Y0113543D01*
X0079725Y0113958D01*
X0079306Y0114362D01*
X0078878Y0114756D01*
X0078439Y0115139D01*
X0077992Y0115512D01*
X0077536Y0115874D01*
X0077071Y0116224D01*
X0076598Y0116564D01*
X0076117Y0116891D01*
X0075628Y0117207D01*
X0075132Y0117511D01*
X0074628Y0117803D01*
X0074117Y0118082D01*
X0073600Y0118349D01*
X0053600Y0134350D02*
X0051350Y0137100D01*
X0036350Y0142100D02*
X0036255Y0142175D01*
X0036158Y0142246D01*
X0036059Y0142314D01*
X0035957Y0142378D01*
X0035854Y0142440D01*
X0035748Y0142498D01*
X0035641Y0142552D01*
X0035532Y0142603D01*
X0035421Y0142651D01*
X0035309Y0142694D01*
X0035195Y0142734D01*
X0035080Y0142771D01*
X0034964Y0142803D01*
X0034847Y0142832D01*
X0034730Y0142857D01*
X0034611Y0142878D01*
X0034492Y0142895D01*
X0034372Y0142909D01*
X0034252Y0142918D01*
X0034132Y0142923D01*
X0034011Y0142925D01*
X0033891Y0142923D01*
X0033771Y0142916D01*
X0033651Y0142906D01*
X0033531Y0142892D01*
X0033412Y0142874D01*
X0033294Y0142852D01*
X0033176Y0142826D01*
X0033059Y0142797D01*
X0032944Y0142763D01*
X0032829Y0142726D01*
X0032716Y0142685D01*
X0032604Y0142641D01*
X0032494Y0142593D01*
X0032385Y0142541D01*
X0032278Y0142486D01*
X0032173Y0142427D01*
X0032070Y0142365D01*
X0031968Y0142300D01*
X0031869Y0142231D01*
X0031773Y0142159D01*
X0031679Y0142084D01*
X0031587Y0142006D01*
X0031498Y0141925D01*
X0031411Y0141842D01*
X0031328Y0141755D01*
X0031247Y0141666D01*
X0031169Y0141574D01*
X0031094Y0141480D01*
X0031022Y0141383D01*
X0030954Y0141284D01*
X0030889Y0141183D01*
X0030827Y0141079D01*
X0030768Y0140974D01*
X0030713Y0140867D01*
X0030662Y0140758D01*
X0030614Y0140648D01*
X0030569Y0140536D01*
X0030529Y0140422D01*
X0030492Y0140308D01*
X0030459Y0140192D01*
X0030429Y0140075D01*
X0030404Y0139958D01*
X0030382Y0139839D01*
X0030364Y0139720D01*
X0030350Y0139600D01*
X0030100Y0137100D01*
X0023350Y0139600D02*
X0023430Y0139855D01*
X0023516Y0140107D01*
X0023608Y0140357D01*
X0023706Y0140606D01*
X0023810Y0140851D01*
X0023921Y0141094D01*
X0024037Y0141334D01*
X0024158Y0141572D01*
X0024286Y0141806D01*
X0024419Y0142037D01*
X0024558Y0142265D01*
X0024703Y0142489D01*
X0024852Y0142710D01*
X0025008Y0142927D01*
X0025168Y0143140D01*
X0025333Y0143349D01*
X0025504Y0143554D01*
X0025680Y0143755D01*
X0025860Y0143951D01*
X0026045Y0144144D01*
X0026235Y0144331D01*
X0026429Y0144514D01*
X0026628Y0144692D01*
X0026831Y0144865D01*
X0027038Y0145033D01*
X0027249Y0145196D01*
X0027464Y0145354D01*
X0027683Y0145506D01*
X0027906Y0145654D01*
X0028132Y0145795D01*
X0028361Y0145931D01*
X0028594Y0146062D01*
X0028829Y0146187D01*
X0029068Y0146306D01*
X0029310Y0146419D01*
X0029554Y0146526D01*
X0029801Y0146627D01*
X0030050Y0146722D01*
X0030302Y0146811D01*
X0030555Y0146894D01*
X0030811Y0146971D01*
X0031068Y0147041D01*
X0031327Y0147105D01*
X0031587Y0147163D01*
X0031849Y0147215D01*
X0032112Y0147260D01*
X0032376Y0147298D01*
X0032641Y0147330D01*
X0032906Y0147356D01*
X0033172Y0147375D01*
X0033439Y0147388D01*
X0033706Y0147394D01*
X0033972Y0147394D01*
X0034239Y0147387D01*
X0034505Y0147374D01*
X0034771Y0147354D01*
X0035037Y0147328D01*
X0035302Y0147295D01*
X0035565Y0147256D01*
X0035828Y0147210D01*
X0036090Y0147158D01*
X0036350Y0147100D01*
X0023350Y0139600D02*
X0022600Y0137100D01*
X0036350Y0147100D02*
X0036966Y0146946D01*
X0037578Y0146777D01*
X0038185Y0146593D01*
X0038788Y0146394D01*
X0039386Y0146181D01*
X0039979Y0145952D01*
X0040565Y0145710D01*
X0041146Y0145453D01*
X0041720Y0145182D01*
X0042287Y0144897D01*
X0042848Y0144598D01*
X0043400Y0144286D01*
X0043945Y0143960D01*
X0044482Y0143621D01*
X0045010Y0143269D01*
X0045530Y0142904D01*
X0046040Y0142526D01*
X0046541Y0142136D01*
X0047032Y0141734D01*
X0047514Y0141320D01*
X0047985Y0140894D01*
X0048445Y0140457D01*
X0048895Y0140008D01*
X0049333Y0139549D01*
X0049760Y0139079D01*
X0050176Y0138599D01*
X0050579Y0138109D01*
X0050971Y0137609D01*
X0051350Y0137100D01*
X0041349Y0137099D02*
X0040846Y0137705D01*
X0040330Y0138298D01*
X0039799Y0138880D01*
X0039256Y0139449D01*
X0038699Y0140006D01*
X0038130Y0140549D01*
X0037548Y0141080D01*
X0036955Y0141596D01*
X0036349Y0142099D01*
X0149600Y0104850D02*
X0148571Y0101855D01*
X0147480Y0098881D01*
X0146330Y0095929D01*
X0145120Y0093002D01*
X0143850Y0090100D01*
X0055698Y0055948D02*
X0053350Y0058600D01*
X0151850Y0133600D02*
X0150317Y0139776D01*
X0148650Y0145916D01*
X0146849Y0152019D01*
X0144916Y0158081D01*
X0142850Y0164100D01*
X0203350Y0070100D02*
X0203128Y0067771D01*
X0202961Y0065437D01*
X0202850Y0063100D01*
X0136350Y0052100D02*
X0134214Y0049193D01*
X0132145Y0046238D01*
X0130144Y0043236D01*
X0128212Y0040190D01*
X0126350Y0037100D01*
X0068350Y0069600D02*
X0066600Y0069652D01*
X0064850Y0069669D01*
X0063100Y0069652D01*
X0061350Y0069600D01*
X0068350Y0069600D02*
X0070472Y0069488D01*
X0072591Y0069327D01*
X0074705Y0069117D01*
X0076814Y0068858D01*
X0078916Y0068549D01*
X0081010Y0068191D01*
X0083096Y0067785D01*
X0085171Y0067331D01*
X0087235Y0066828D01*
X0089287Y0066277D01*
X0091326Y0065678D01*
X0093350Y0065032D01*
X0095358Y0064339D01*
X0097350Y0063600D01*
X0124351Y0171600D02*
X0125221Y0175451D01*
X0126011Y0179319D01*
X0126721Y0183202D01*
X0127351Y0187100D01*
X0122850Y0186600D02*
X0122063Y0184250D01*
X0121230Y0181917D01*
X0120350Y0179600D01*
X0120351Y0179600D02*
X0118888Y0175984D01*
X0117341Y0172403D01*
X0115712Y0168860D01*
X0114002Y0165354D01*
X0112211Y0161890D01*
X0110340Y0158467D01*
X0108390Y0155089D01*
X0106363Y0151757D01*
X0104259Y0148473D01*
X0102080Y0145239D01*
X0099826Y0142055D01*
X0097499Y0138925D01*
X0095101Y0135849D01*
M02*
