%
M48
M72
T01C0.01377
T02C0.03937
T03C0.04000
T04C0.08661
%
T01
X76350Y77100
X68350Y69600
X78350Y89350
X66350Y107100
X51350Y137100
X41350Y137100
X83350Y153850
X65600Y178100
X79850Y198600
X72850Y206600
X111350Y207100
X136350Y222100
X136350Y232100
X147850Y171600
X124350Y171600
X120350Y179600
X135350Y144850
X122600Y124600
X138350Y109100
X149600Y104850
X152850Y96100
X151850Y70350
X141350Y57850
X136350Y52100
X136350Y42100
X196350Y77100
X203350Y70100
X205600Y94850
X192100Y111850
X176350Y132100
X159350Y123850
X206350Y157100
X221350Y137100
X231350Y137100
X200350Y196100
X207350Y203100
T02
X169631Y189616
X173506Y198834
X151194Y197366
X155069Y206584
T03
X118953Y70167
X110113Y74949
X113972Y84174
X104361Y87110
X100502Y77885
X122812Y79392
T04
X162350Y198100
X167850Y212100
M30
