%
M48
M72
T01C0.01377
T02C0.03937
T03C0.04000
T04C0.08661
%
T01
X44300Y49100
X45550Y41600
X59300Y54100
X58050Y64100
X84300Y39100
X101800Y6600
X136800Y37100
X151800Y6600
X169300Y39100
X191800Y66600
X195550Y57850
X203050Y42850
X211800Y51600
X185550Y119100
X183050Y114100
X176800Y96600
X166800Y91600
X154300Y107100
X161300Y114600
X161800Y136600
X164300Y151600
X176800Y74100
X149300Y74100
X139300Y89100
X114800Y89100
X100800Y107100
X114300Y124100
X139300Y124100
X136800Y166600
X150550Y175350
X153050Y180350
X154300Y190600
X142800Y194600
X116800Y225350
X123050Y230350
X130550Y230350
X131300Y226100
X134800Y224100
X126800Y251600
X116800Y166600
X110800Y176600
X100550Y181600
X99300Y174100
X99800Y191100
X76800Y96600
X70550Y114100
X71800Y120350
X89300Y151600
T02
X131800Y184100
X121800Y184100
X121800Y204100
X131800Y204100
T03
X116800Y16100
X116800Y26100
X126800Y27100
X126800Y17100
X136800Y16100
X136800Y26100
T04
X126800Y213600
X126800Y239100
M30
